<?xml version="1.0" encoding="UTF-8" standalone="no"?>
<svg width="960px" height="960px" viewBox="0 0 960 960" version="1.1" xmlns="http://www.w3.org/2000/svg" xmlns:xlink="http://www.w3.org/1999/xlink">
    <!-- Generator: Sketch 39.1 (31720) - http://www.bohemiancoding.com/sketch -->
    <title>bot-avatar</title>
    <desc>Created with Sketch.</desc>
    <defs>
        <path d="M24,600 L24,264 C24,119.22288 144.353922,0 288,0 L336,0 C479.658168,0 600,119.216517 600,264 L600,600" id="path-1"></path>
        <mask id="mask-2" maskContentUnits="userSpaceOnUse" maskUnits="objectBoundingBox" x="0" y="0" width="576" height="600" fill="white">
            <use xlink:href="#path-1"></use>
        </mask>
        <path d="M312,336 C365.019336,336 408,293.019336 408,240 C408,186.980664 365.019336,144 312,144 C258.980664,144 216,186.980664 216,240 C216,293.019336 258.980664,336 312,336 Z" id="path-3"></path>
        <mask id="mask-4" maskContentUnits="userSpaceOnUse" maskUnits="objectBoundingBox" x="0" y="0" width="192" height="192" fill="white">
            <use xlink:href="#path-3"></use>
        </mask>
        <path d="M565.278576,147.870261 C557.300604,145.355858 548.808641,144 540,144 C493.608081,144 456,181.608081 456,228 C456,274.391919 493.608081,312 540,312 L540,312 C561.224186,312 580.609881,304.12848 595.396988,291.145535" id="path-5"></path>
        <mask id="mask-6" maskContentUnits="userSpaceOnUse" maskUnits="objectBoundingBox" x="0" y="0" width="139.396988" height="168" fill="white">
            <use xlink:href="#path-5"></use>
        </mask>
    </defs>
    <g id="Illustrations-app" stroke="none" stroke-width="1" fill="none" fill-rule="evenodd">
        <g id="bot-avatar">
            <path d="M506.756867,887.039239 C765.28232,879.650539 851.083867,843.323608 799.355153,811.601297 C747.626439,779.878986 683.77342,790.3408 478.323493,790.3408 C272.873566,790.3408 159.115318,792.579326 126.749607,832.168044 C94.383897,871.756763 248.231414,894.42794 506.756867,887.039239 Z" id="Shadow" fill="#C8CDCF" transform="translate(468.098455, 838.557521) rotate(2.000000) translate(-468.098455, -838.557521) "></path>
            <g id="Fill" transform="translate(169.000000, 96.000000)">
                <path d="M614.233834,643.751999 C595.304345,677.613968 460.46278,709.562302 310.121308,709.562302 C159.779835,709.562302 36.3184347,667.673401 9.49921669,643.751999 C-17.3200013,619.830597 23,600 23,600 L23,264 C23,119.22288 143.353922,0 287,0 L335,0 C478.658168,0 599,119.216517 599,264 L599,600 C599,600 633.163323,609.89003 614.233834,643.751999 Z" id="Rectangle" fill="#FF9F72"></path>
                <path d="M311,336 C364.019336,336 407,293.019336 407,240 C407,186.980664 364.019336,144 311,144 C257.980664,144 215,186.980664 215,240 C215,293.019336 257.980664,336 311,336 Z" id="Oval" fill="#FFFFFF"></path>
                <path d="M564.278576,147.870261 C556.300604,145.355858 547.808641,144 539,144 C492.608081,144 455,181.608081 455,228 C455,274.391919 492.608081,312 539,312 L539,312 C560.224186,312 579.609881,304.12848 594.396988,291.145535" id="Oval" fill="#FFFFFF"></path>
                <path d="M39.4543839,240.061146 C39.4543839,240.061146 84.193048,97.6318357 149.639484,55.2342926 C215.085921,12.8367495 334.588516,16.6598892 334.588516,16.6598892 C334.588516,16.6598892 340.076347,84.4703065 263.972702,120.338155 C231.661924,135.56631 192.195793,168.499265 192.195793,240.06114 C192.195793,311.623014 215,287.051439 215,384.944818 C215,408.91254 215,432.309065 215,480 C215,527.690935 239,529.378435 239,576.527361 C239,623.676287 239,634.889665 239,634.889665 L47,600 L39.4543839,240.061146 Z" id="Rectangle-3" fill-opacity="0.696218297" fill="#858585"></path>
                <path d="M3.22481127,609.607799 L34.4674592,590.269305 C34.4674592,590.269305 213.709652,630.580555 279.693767,640.874398 C289.155481,642.350472 311.617222,634.597125 343.951519,640.874398 C368.500515,669.003284 346.06483,707.028041 346.06483,707.028041 L162.584972,699.018848 L12.9751258,652.706697 L3.22481127,609.607799 Z" id="Rectangle-4" fill-opacity="0.696218297" fill="#858585"></path>
            </g>
            <g id="Stroke" transform="translate(168.000000, 96.000000)">
                <use id="Rectangle" stroke="#4D394B" mask="url(#mask-2)" stroke-width="48" stroke-linecap="round" stroke-linejoin="round" xlink:href="#path-1"></use>
                <path d="M130.854636,263.678793 L87.5917539,266.017814 C91.9181971,265.661517 92.6249175,264.524576 92.6249175,265.075369 L92.6249175,331.688541 C92.6249175,332.629939 92.4105775,332.271673 88.0488122,331.658472 L131.191963,336.332468 C124.856744,335.869293 123.375082,338.264722 123.375082,337.179174 L123.375082,263.462383 C123.375082,261.732502 123.058416,260.47788 122.895674,260.207155 C123.950827,261.962422 126.611091,263.796634 130.350776,263.699027 L130.854636,263.678793 Z M144,263.462383 L144,337.179174 C144,350.312106 137.673583,360.556505 129.882473,359.986888 L86.1175268,355.256571 C78.320632,354.141133 72,343.547132 72,331.688541 L72,265.075369 C72,253.207974 78.3264166,243.017825 86.1175268,242.376201 L129.882473,240.002898 C137.679368,239.799397 144,250.339194 144,263.462383 Z" id="Rectangle-2" fill="#4D394B"></path>
                <path d="M108,585.673828 L108,540.319336 M108,492.335449 L108,468.452637 M108,420.183105 L108,345.670898 M108,240 C117.455048,139.041254 181.886566,50.5757798 270.900879,13.5644531" id="Rectangle" stroke="#4D394B" stroke-width="24" stroke-linecap="round" stroke-linejoin="round"></path>
                <path d="M142.73621,618.350064 C134.382458,616.628537 126.178127,614.796725 118.126308,612.861696 C97.2600044,607.847066 79.0003877,602.500029 63.5111849,597.19087 C54.4880444,594.098052 48.5583194,591.783674 45.8862331,590.619687 C28.793636,583.173981 9.34107003,592.082919 2.43771104,610.518357 C-4.46564794,628.953795 3.79436165,649.934608 20.8869588,657.380313 C36.3012403,664.094928 64.2978715,673.691197 103.608088,683.138304 C168.333222,698.693173 241.782631,708 322.660457,708 C403.761478,708 473.342974,698.63306 531.446029,682.918936 C567.177415,673.255289 591.587595,663.307662 604.754084,656.120917 C621.201799,647.14316 627.787521,625.484225 619.463705,607.744333 C611.13989,590.00444 591.058596,582.901326 574.610881,591.879083 C572.916517,592.803929 568.499787,594.908591 561.346611,597.823651 C548.737326,602.962182 533.363873,608.171184 515.209568,613.081064 C462.387464,627.36694 398.257537,636 322.660457,636 C298.973759,636 275.991111,635.151569 253.7517,633.544384 M214.785983,629.880929 C203.845117,628.60952 193.105762,627.152711 182.5732,625.522587" id="Line" stroke="#4D394B" stroke-width="24" stroke-linecap="round"></path>
                <use id="Oval" stroke="#4D394B" mask="url(#mask-4)" stroke-width="48" xlink:href="#path-3"></use>
                <use id="Oval" stroke="#4D394B" mask="url(#mask-6)" stroke-width="48" xlink:href="#path-5"></use>
                <circle id="Oval-2" fill="#4D394B" cx="540" cy="228" r="12"></circle>
                <circle id="Oval-2" fill="#4D394B" cx="324" cy="228" r="12"></circle>
                <path d="M456.000002,408.064433 C408,408.064433 316.846658,408.14069 311.998789,408 C275.316416,406.382541 241.746323,437.22575 239.998789,480 C238.382541,516.683584 269.22575,550.253677 311.998789,552 C311.61062,552.048006 383.999921,551.971571 456,551.93557 C528,551.899569 575.93811,528 575.93811,528 L587.972168,516.675293 L587.972168,391.423828 L575.93811,384 C575.93811,384 528,408 456.000002,408.064433 Z" id="Line" fill="#4D394B"></path>
            </g>
        </g>
    </g>
</svg>
