<?xml version="1.0" encoding="UTF-8" standalone="no"?>
<svg width="1024px" height="1024px" viewBox="0 0 1024 1024" version="1.1" xmlns="http://www.w3.org/2000/svg" xmlns:xlink="http://www.w3.org/1999/xlink">
    <!-- Generator: Sketch 39.1 (31720) - http://www.bohemiancoding.com/sketch -->
    <title>face-sleeping</title>
    <desc>Created with Sketch.</desc>
    <defs>
        <path d="M738.140803,411.502939 C745.829408,411.331715 752.062253,420.199807 752.062253,431.241542 L752.062253,493.266202 C752.062253,504.316135 745.823704,512.935682 738.140803,512.456411 L694.983703,508.476364 C687.295099,507.537844 681.062253,498.624145 681.062253,488.646431 L681.062253,432.598695 C681.062253,422.613573 687.300803,414.039672 694.983703,413.499815 L738.140803,411.502939 Z" id="path-1"></path>
        <mask id="mask-2" maskContentUnits="userSpaceOnUse" maskUnits="objectBoundingBox" x="0" y="0" width="71" height="100.974968" fill="white">
            <use xlink:href="#path-1"></use>
        </mask>
    </defs>
    <g id="Illustrations-app" stroke="none" stroke-width="1" fill="none" fill-rule="evenodd">
        <g id="face-sleeping" stroke="#4D394B">
            <path d="M207,768.645246 L207,442.997111 L207,442.997111 C207,288.358977 332.368669,163 486.99063,163 L527.00937,163 C681.643925,163 807,288.352286 807,442.997111 L807,768.645246" id="Rectangle" stroke-width="20" stroke-linecap="round" stroke-linejoin="round" transform="translate(507.000000, 465.822623) scale(-1, 1) translate(-507.000000, -465.822623) "></path>
            <use id="Rectangle-2" mask="url(#mask-2)" stroke-width="40" transform="translate(716.562253, 461.987984) scale(-1, 1) translate(-716.562253, -461.987984) " xlink:href="#path-1"></use>
            <path d="M488.628005,782.211784 L488.628005,713.29516 M488.700005,675.847038 L488.700005,654.847038 M488.628005,620.360127 L488.628005,502.84905 M489.93482,415.036378 C501.813079,288.549713 593.497406,184.094324 716.99063,163.441459" id="Rectangle" stroke-width="20" stroke-linecap="round" stroke-linejoin="round" transform="translate(602.809318, 472.826622) scale(-1, 1) translate(-602.809318, -472.826622) "></path>
            <path d="M338.835289,789.527559 C325.052138,787.923808 318.714655,786.913074 304.888075,784.984611 C280.680107,781.608204 258.209766,777.991991 238.070472,774.380512 C231.047132,773.121051 224.826225,771.954196 219.481589,770.910576 C217.627536,770.548544 216.020019,770.228772 214.668254,769.955088 C214.203969,769.861087 213.807056,769.780041 213.478665,769.712428 C196.919881,766.248925 181.02258,776.645267 177.629691,792.862693 C174.236803,809.080119 184.633144,824.97742 200.85057,828.370309 C201.206396,828.444752 201.846576,828.57656 202.762006,828.761901 C204.248375,829.062837 205.991688,829.409623 207.982851,829.798427 C213.624543,830.900052 220.147776,832.123614 227.479906,833.438449 C248.356236,837.182097 271.58902,840.921012 296.599802,844.409392 C368.180657,854.393133 439.816046,860.387941 506.993939,860.387941 C574.171832,860.387941 645.80722,854.393133 717.388075,844.409392 C742.398857,840.921012 765.631641,837.182097 786.507972,833.438449 C793.840101,832.123614 800.363335,830.900052 806.005026,829.798427 C807.996189,829.409623 809.739502,829.062837 811.225871,828.761901 C812.141302,828.57656 812.781481,828.444752 813.137307,828.370309 C829.354733,824.97742 839.751075,809.080119 836.358186,792.862693 C832.965297,776.645267 817.067996,766.248925 800.85057,769.641814 C800.180822,769.780041 799.783908,769.861087 799.319624,769.955088 C797.967858,770.228772 796.360341,770.548544 794.506288,770.910576 C789.161652,771.954196 782.940745,773.121051 775.917406,774.380512 C755.778111,777.991991 733.30777,781.608204 709.099802,784.984611 C640.055657,794.614545 571.066046,800.387941 506.993939,800.387941 C473.375747,800.387941 442.402755,798.856632 406.779412,795.954657 M378.680097,793.58305 C374.954266,793.214304 371.137367,792.834073 367.483217,792.467745" id="Line" stroke-width="20" stroke-linecap="round" transform="translate(506.993939, 814.693971) scale(-1, 1) translate(-506.993939, -814.693971) "></path>
            <path d="M519.5,479 C565.063492,479 602,442.063492 602,396.5 C602,350.936508 565.063492,314 519.5,314 C473.936508,314 437,350.936508 437,396.5 C437,442.063492 473.936508,479 519.5,479 Z" id="Oval" stroke-width="20" transform="translate(519.500000, 396.500000) scale(-1, 1) translate(-519.500000, -396.500000) "></path>
            <path d="M296.509831,313.101529 C292.296484,312.377328 287.964554,312 283.544493,312 C241.570852,312 207.544493,346.026359 207.544493,388 C207.544493,429.973641 241.570852,464 283.544493,464 L283.544493,464 C300.143515,464 315.499653,458.678584 328,449.648662" id="Oval" stroke-width="20" transform="translate(267.772247, 388.000000) scale(-1, 1) translate(-267.772247, -388.000000) "></path>
            <path d="M437,398 L597,398" id="Line" stroke-width="20" stroke-linecap="round"></path>
            <path d="M307.352948,687.578156 C478.119748,719.413757 571,686 571,591" id="Line" stroke-width="20" stroke-linecap="round"></path>
            <path d="M212,397 L322.000002,397" id="Line" stroke-width="20" stroke-linecap="round"></path>
        </g>
    </g>
</svg>