<?xml version="1.0" encoding="UTF-8"?>
<svg width="960px" height="960px" viewBox="0 0 960 960" version="1.1" xmlns="http://www.w3.org/2000/svg" xmlns:xlink="http://www.w3.org/1999/xlink">
    <!-- Generator: Sketch 44.1 (41455) - http://www.bohemiancoding.com/sketch -->
    <title>free-month</title>
    <desc>Created with Sketch.</desc>
    <defs></defs>
    <g id="Illustrations-app" stroke="none" stroke-width="1" fill="none" fill-rule="evenodd">
        <g id="free-month">
            <g id="User:-Speechbubbel" transform="translate(263.000000, 0.000000)">
                <path d="M295.705315,636.000617 C307.744988,639.259254 402.271797,639.995899 500.108113,547.441716 C563.826062,487.163867 592.999167,390.368964 588.282869,299.7105 C579.162193,161.270263 463.766301,53 324.122309,53 C177.91336,53 59.3875887,171.306403 59.3875887,317.244747 C59.3875887,463.18309 170.856584,581.601469 337.900343,581.601469 C345.188003,594.131667 331.821679,611.985145 295.705315,636.000617 Z" id="Bubble" stroke="#4D394B" stroke-width="13" fill="#FAFEFF" stroke-linecap="round" stroke-linejoin="round" transform="translate(324.081252, 345.000000) rotate(13.000000) translate(-324.081252, -345.000000) "></path>
                <path d="M182.474957,235.485 C182.024955,235.485 181.462461,235.417501 180.787457,235.2825 C180.112454,235.147499 179.48246,234.922502 178.897457,234.6075 C178.312454,234.292498 177.79496,233.887502 177.344957,233.3925 C176.894955,232.897498 176.669957,232.380003 176.669957,231.84 C176.669957,231.119996 177.097453,230.242505 177.952457,229.2075 C178.807462,228.172495 180.224947,227.385003 182.204957,226.845 C184.904971,226.214997 187.739943,225.832501 190.709957,225.6975 C193.679972,225.562499 196.649943,225.562499 199.619957,225.6975 C202.589972,225.832501 205.514943,226.012499 208.394957,226.2375 C211.274972,226.462501 213.974945,226.62 216.494957,226.71 C217.934965,226.71 218.879955,226.979997 219.329957,227.52 C219.77996,228.060003 220.004957,228.689996 220.004957,229.41 C220.004957,231.030008 219.284965,232.289995 217.844957,233.19 C216.40495,234.090004 214.964965,234.495 213.524957,234.405 C211.99495,234.315 210.397466,234.27 208.732457,234.27 L203.534957,234.27 C203.534957,236.790013 203.647456,239.602484 203.872457,242.7075 C204.097458,245.812516 204.344956,248.939984 204.614957,252.09 C204.884959,255.240016 205.177456,258.254986 205.492457,261.135 C205.807459,264.015014 206.099956,266.44499 206.369957,268.425 C206.549958,269.145004 206.39246,269.797497 205.897457,270.3825 C205.402455,270.967503 204.659962,271.26 203.669957,271.26 C201.779948,271.26 200.384962,270.090012 199.484957,267.75 C197.774949,263.339978 196.559961,258.300028 195.839957,252.63 C190.979933,255.600015 186.209981,257.444996 181.529957,258.165 C176.849934,258.885004 172.642476,258.727505 168.907457,257.6925 C165.172439,256.657495 162.157469,254.857513 159.862457,252.2925 C157.567446,249.727487 156.419957,246.600018 156.419957,242.91 C156.419957,239.399982 157.049951,235.62002 158.309957,231.57 C159.569964,227.51998 161.369946,223.605019 163.709957,219.825 C166.049969,216.044981 168.817441,212.602516 172.012457,209.4975 C175.207473,206.392484 178.784938,204.030008 182.744957,202.41 C184.094964,202.049998 185.377451,201.982499 186.592457,202.2075 C187.807463,202.432501 188.932452,202.882497 189.967457,203.5575 C191.002463,204.232503 191.947453,205.042495 192.802457,205.9875 C193.657462,206.932505 194.399954,207.854995 195.029957,208.755 C195.47996,209.385003 195.749957,210.059996 195.839957,210.78 C195.929958,211.500004 195.659961,212.174997 195.029957,212.805 C193.679951,213.795005 192.509962,213.705006 191.519957,212.535 C189.98995,210.644991 188.707463,209.497502 187.672457,209.0925 C186.637452,208.687498 185.219966,209.069994 183.419957,210.24 C181.619948,211.500006 179.639968,213.412487 177.479957,215.9775 C175.319947,218.542513 173.317467,221.377484 171.472457,224.4825 C169.627448,227.587516 168.164963,230.782484 167.084957,234.0675 C166.004952,237.352516 165.644956,240.389986 166.004957,243.18 C166.274959,245.610012 167.624945,247.342495 170.054957,248.3775 C172.48497,249.412505 175.252442,249.885 178.357457,249.795 C181.462473,249.705 184.567442,249.120005 187.672457,248.04 C190.777473,246.959995 193.184949,245.520009 194.894957,243.72 C194.804957,242.189992 194.714958,240.637508 194.624957,239.0625 C194.534957,237.487492 194.489957,235.935008 194.489957,234.405 C192.509947,234.585001 190.529967,234.742499 188.549957,234.8775 C186.569947,235.012501 184.544968,235.214999 182.474957,235.485 Z M259.559957,239.4 C256.04994,241.47001 252.269978,243.067494 248.219957,244.1925 C244.169937,245.317506 239.804981,245.88 235.124957,245.88 C235.304958,249.030016 236.204949,251.527491 237.824957,253.3725 C239.444965,255.217509 241.469945,256.319998 243.899957,256.68 C245.339965,256.860001 246.80245,256.815001 248.287457,256.545 C249.772465,256.274999 251.167451,255.847503 252.472457,255.2625 C253.777464,254.677497 254.969952,254.025004 256.049957,253.305 C257.129963,252.584996 258.074953,251.865004 258.884957,251.145 C259.694961,250.424996 260.549953,249.952501 261.449957,249.7275 C262.349962,249.502499 263.024955,249.479999 263.474957,249.66 C264.734964,250.110002 265.184959,251.459989 264.824957,253.71 C263.38495,256.590014 261.314971,259.04249 258.614957,261.0675 C255.914944,263.09251 252.899974,264.374997 249.569957,264.915 C246.689943,265.455003 243.719973,265.320004 240.659957,264.51 C237.599942,263.699996 234.85497,262.125012 232.424957,259.785 C230.354947,257.71499 228.779963,255.285014 227.699957,252.495 C226.619952,249.704986 225.944959,246.825015 225.674957,243.855 C225.404956,241.064986 225.652454,238.410013 226.417457,235.89 C227.182461,233.369987 228.374949,231.14251 229.994957,229.2075 C231.614965,227.27249 233.639945,225.675006 236.069957,224.415 C238.49997,223.154994 241.334941,222.435001 244.574957,222.255 C248.444977,221.984999 251.954942,222.704991 255.104957,224.415 C258.254973,226.125009 260.459951,228.509985 261.719957,231.57 C262.439961,233.280009 262.642459,234.764994 262.327457,236.025 C262.012456,237.285006 261.089965,238.409995 259.559957,239.4 Z M244.034957,230.22 C243.134953,230.400001 242.167463,230.714998 241.132457,231.165 C240.097452,231.615002 239.152462,232.177497 238.297457,232.8525 C237.442453,233.527503 236.677461,234.292496 236.002457,235.1475 C235.327454,236.002504 234.944958,236.969995 234.854957,238.05 C236.384965,238.05 238.072448,237.915001 239.917457,237.645 C241.762467,237.374999 243.562449,237.037502 245.317457,236.6325 C247.072466,236.227498 248.69245,235.755003 250.177457,235.215 C251.662465,234.674997 252.899952,234.090003 253.889957,233.46 C253.169954,231.749991 251.842467,230.692502 249.907457,230.2875 C247.972448,229.882498 246.014967,229.859998 244.034957,230.22 Z M304.919957,234.945 C306.629966,234.855 308.339949,235.259996 310.049957,236.16 C311.759966,237.060005 312.614957,238.454991 312.614957,240.345 C312.434956,241.875008 311.602465,242.842498 310.117457,243.2475 C308.63245,243.652502 307.439962,243.855 306.539957,243.855 C304.739948,243.855 302.804968,243.9 300.734957,243.99 C298.664947,244.08 296.549968,244.214999 294.389957,244.395 C294.209956,247.365015 294.052458,250.154987 293.917457,252.765 C293.782457,255.375013 293.669958,257.69249 293.579957,259.7175 C293.489957,261.74251 293.444957,263.384994 293.444957,264.645 C293.444957,265.905006 293.489957,266.58 293.579957,266.67 C295.559967,266.309998 297.697446,265.702504 299.992457,264.8475 C302.287469,263.992496 304.582446,263.047505 306.877457,262.0125 C309.172469,260.977495 311.422446,259.897506 313.627457,258.7725 C315.832468,257.647494 317.924947,256.590005 319.904957,255.6 C320.804962,255.149998 321.637454,255.014999 322.402457,255.195 C323.167461,255.375001 323.639956,255.779997 323.819957,256.41 C323.999958,257.400005 323.86496,258.614993 323.414957,260.055 C322.964955,261.495007 322.154963,262.799994 320.984957,263.97 C319.634951,265.050005 317.857468,266.287493 315.652457,267.6825 C313.447446,269.077507 311.08497,270.404994 308.564957,271.665 C306.044945,272.925006 303.50247,274.027495 300.937457,274.9725 C298.372445,275.917505 296.099967,276.479999 294.119957,276.66 C291.149943,276.930001 288.899965,276.120009 287.369957,274.23 C285.83995,272.339991 284.984958,269.955014 284.804957,267.075 C284.624956,264.194986 284.602457,260.865019 284.737457,257.085 C284.872458,253.304981 285.029956,249.300021 285.209957,245.07 C283.499949,245.250001 281.857465,245.407499 280.282457,245.5425 C278.707449,245.677501 277.199965,245.834999 275.759957,246.015 C274.589952,246.015 273.307464,245.745003 271.912457,245.205 C270.51745,244.664997 269.819957,243.630008 269.819957,242.1 C269.819957,241.559997 270.044955,240.840004 270.494957,239.94 C270.94496,239.039995 271.93495,238.365002 273.464957,237.915 C277.154976,237.284997 281.249935,236.745002 285.749957,236.295 C286.019959,232.064979 286.334956,227.97002 286.694957,224.01 C287.054959,220.04998 287.369956,216.450016 287.639957,213.21 C287.729958,212.129995 288.044955,211.185004 288.584957,210.375 C289.12496,209.564996 289.709954,209.16 290.339957,209.16 C291.869965,209.07 293.33245,209.452496 294.727457,210.3075 C296.122464,211.162504 296.819957,212.129995 296.819957,213.21 C296.459956,216.270015 296.122459,219.734981 295.807457,223.605 C295.492456,227.475019 295.199959,231.43498 294.929957,235.485 C296.729966,235.304999 298.462449,235.1925 300.127457,235.1475 C301.792466,235.1025 303.38995,235.035 304.919957,234.945 Z M398.204957,224.01 C400.904971,225.000005 403.177448,226.48499 405.022457,228.465 C406.867467,230.44501 408.284952,232.672488 409.274957,235.1475 C410.264962,237.622512 410.827457,240.164987 410.962457,242.775 C411.097458,245.385013 410.804961,247.814989 410.084957,250.065 C409.094952,252.585013 407.834965,255.059988 406.304957,257.49 C404.77495,259.920012 403.019967,262.079991 401.039957,263.97 C399.059947,265.860009 396.80997,267.389994 394.289957,268.56 C391.769945,269.730006 388.979973,270.315 385.919957,270.315 C382.229939,270.315 379.12497,269.460009 376.604957,267.75 C374.084945,266.039991 372.104965,263.835014 370.664957,261.135 C369.22495,258.434987 368.302459,255.375017 367.897457,251.955 C367.492455,248.534983 367.559955,245.115017 368.099957,241.695 C368.459959,239.174987 369.067453,236.722512 369.922457,234.3375 C370.777462,231.952488 371.879951,229.837509 373.229957,227.9925 C374.579964,226.147491 376.132449,224.640006 377.887457,223.47 C379.642466,222.299994 381.644946,221.715 383.894957,221.715 C385.154964,221.715 386.729948,221.962498 388.619957,222.4575 C390.509967,222.952502 392.264949,223.649996 393.884957,224.55 C395.054963,223.469995 396.494949,223.289996 398.204957,224.01 Z M393.074957,233.865 C392.084952,233.234997 390.937464,232.402505 389.632457,231.3675 C388.327451,230.332495 387.179962,229.815 386.189957,229.815 C385.109952,229.815 384.052463,230.309995 383.017457,231.3 C381.982452,232.290005 381.082461,233.437493 380.317457,234.7425 C379.552454,236.047507 378.89996,237.374993 378.359957,238.725 C377.819955,240.075007 377.459958,241.154996 377.279957,241.965 C377.009956,243.315007 376.829958,244.934991 376.739957,246.825 C376.649957,248.715009 376.784956,250.582491 377.144957,252.4275 C377.504959,254.272509 378.202452,255.937493 379.237457,257.4225 C380.272463,258.907507 381.824947,259.964997 383.894957,260.595 C385.154964,260.955002 386.639949,260.932502 388.349957,260.5275 C390.059966,260.122498 391.747449,259.380005 393.412457,258.3 C395.077466,257.219995 396.65245,255.780009 398.137457,253.98 C399.622465,252.179991 400.769953,250.110012 401.579957,247.77 C402.479962,245.159987 402.502462,242.437514 401.647457,239.6025 C400.792453,236.767486 399.05997,234.720006 396.449957,233.46 C395.819954,233.910002 395.189961,234.135 394.559957,234.135 C393.929954,234.135 393.434959,234.045001 393.074957,233.865 Z M430.334957,226.575 C430.604959,227.925007 430.897456,229.432492 431.212457,231.0975 C431.527459,232.762508 431.864956,234.472491 432.224957,236.2275 C432.584959,237.982509 432.899956,239.759991 433.169957,241.56 C433.439959,243.360009 433.664956,245.069992 433.844957,246.69 C434.924963,244.349988 436.094951,241.875013 437.354957,239.265 C438.614964,236.654987 439.98745,234.247511 441.472457,232.0425 C442.957465,229.837489 444.532449,228.015007 446.197457,226.575 C447.862466,225.134993 449.684947,224.415 451.664957,224.415 C454.634972,224.415 457.132447,225.494989 459.157457,227.655 C461.182467,229.815011 462.89245,232.492484 464.287457,235.6875 C465.682464,238.882516 466.784953,242.234982 467.594957,245.745 C468.404961,249.255018 469.079955,252.359987 469.619957,255.06 C470.15996,257.490012 469.079971,259.289994 466.379957,260.46 C465.119951,261.090003 464.174961,261.180002 463.544957,260.73 C462.914954,260.279998 462.554958,259.830002 462.464957,259.38 C462.014955,258.299995 461.452461,256.410013 460.777457,253.71 C460.102454,251.009986 459.337462,248.265014 458.482457,245.475 C457.627453,242.684986 456.659963,240.25501 455.579957,238.185 C454.499952,236.11499 453.284964,235.169999 451.934957,235.35 C450.314949,235.44 448.874964,236.654988 447.614957,238.995 C446.534952,240.885009 445.432463,242.977489 444.307457,245.2725 C443.182452,247.567511 442.079963,249.907488 440.999957,252.2925 C439.919952,254.677512 438.862463,257.062488 437.827457,259.4475 C436.792452,261.832512 435.824962,264.01499 434.924957,265.995 C434.294954,266.625003 433.507462,267.052499 432.562457,267.2775 C431.617453,267.502501 430.649962,267.435002 429.659957,267.075 C428.759953,266.804999 428.03996,266.355003 427.499957,265.725 C426.959955,265.094997 426.689957,264.465003 426.689957,263.835 C425.879953,256.814965 425.047462,250.425029 424.192457,244.665 C423.337453,238.904971 422.234964,233.01003 420.884957,226.98 C420.254954,224.90999 420.142455,223.267506 420.547457,222.0525 C420.952459,220.837494 422.279946,220.364999 424.529957,220.635 C427.679973,221.175003 429.614954,223.154983 430.334957,226.575 Z M511.604957,239.4 C508.09494,241.47001 504.314978,243.067494 500.264957,244.1925 C496.214937,245.317506 491.849981,245.88 487.169957,245.88 C487.349958,249.030016 488.249949,251.527491 489.869957,253.3725 C491.489965,255.217509 493.514945,256.319998 495.944957,256.68 C497.384965,256.860001 498.84745,256.815001 500.332457,256.545 C501.817465,256.274999 503.212451,255.847503 504.517457,255.2625 C505.822464,254.677497 507.014952,254.025004 508.094957,253.305 C509.174963,252.584996 510.119953,251.865004 510.929957,251.145 C511.739961,250.424996 512.594953,249.952501 513.494957,249.7275 C514.394962,249.502499 515.069955,249.479999 515.519957,249.66 C516.779964,250.110002 517.229959,251.459989 516.869957,253.71 C515.42995,256.590014 513.359971,259.04249 510.659957,261.0675 C507.959944,263.09251 504.944974,264.374997 501.614957,264.915 C498.734943,265.455003 495.764973,265.320004 492.704957,264.51 C489.644942,263.699996 486.89997,262.125012 484.469957,259.785 C482.399947,257.71499 480.824963,255.285014 479.744957,252.495 C478.664952,249.704986 477.989959,246.825015 477.719957,243.855 C477.449956,241.064986 477.697454,238.410013 478.462457,235.89 C479.227461,233.369987 480.419949,231.14251 482.039957,229.2075 C483.659965,227.27249 485.684945,225.675006 488.114957,224.415 C490.54497,223.154994 493.379941,222.435001 496.619957,222.255 C500.489977,221.984999 503.999942,222.704991 507.149957,224.415 C510.299973,226.125009 512.504951,228.509985 513.764957,231.57 C514.484961,233.280009 514.687459,234.764994 514.372457,236.025 C514.057456,237.285006 513.134965,238.409995 511.604957,239.4 Z M496.079957,230.22 C495.179953,230.400001 494.212463,230.714998 493.177457,231.165 C492.142452,231.615002 491.197462,232.177497 490.342457,232.8525 C489.487453,233.527503 488.722461,234.292496 488.047457,235.1475 C487.372454,236.002504 486.989958,236.969995 486.899957,238.05 C488.429965,238.05 490.117448,237.915001 491.962457,237.645 C493.807467,237.374999 495.607449,237.037502 497.362457,236.6325 C499.117466,236.227498 500.73745,235.755003 502.222457,235.215 C503.707465,234.674997 504.944952,234.090003 505.934957,233.46 C505.214954,231.749991 503.887467,230.692502 501.952457,230.2875 C500.017448,229.882498 498.059967,229.859998 496.079957,230.22 Z M197.797457,319.52 C197.887458,320.960007 198.044956,322.737489 198.269957,324.8525 C198.494958,326.967511 198.742456,329.172489 199.012457,331.4675 C199.282459,333.762511 199.574956,336.034989 199.889957,338.285 C200.204959,340.535011 200.497456,342.604991 200.767457,344.495 L204.412457,337.205 C205.852465,334.324986 207.359949,331.557513 208.934957,328.9025 C210.509965,326.247487 212.129949,323.997509 213.794957,322.1525 C215.459966,320.307491 216.967451,319.385 218.317457,319.385 C219.757465,319.385 221.084951,320.082493 222.299957,321.4775 C223.514963,322.872507 224.572453,324.55999 225.472457,326.54 C226.372462,328.52001 227.159954,330.634989 227.834957,332.885 C228.509961,335.135011 229.072455,337.114991 229.522457,338.825 C229.882459,337.654994 230.354954,336.327507 230.939957,334.8425 C231.52496,333.357493 232.154954,331.827508 232.829957,330.2525 C233.504961,328.677492 234.269953,327.125008 235.124957,325.595 C235.979962,324.064992 236.902452,322.715006 237.892457,321.545 C239.062463,320.284994 240.322451,319.362503 241.672457,318.7775 C243.022464,318.192497 244.012454,317.9 244.642457,317.9 C245.452461,317.9 246.419952,318.147498 247.544957,318.6425 C248.669963,319.137502 249.817452,319.789996 250.987457,320.6 C252.157463,321.410004 253.259952,322.377494 254.294957,323.5025 C255.329963,324.627506 256.162454,325.774994 256.792457,326.945 C258.052464,329.375012 259.064954,332.029986 259.829957,334.91 C260.594961,337.790014 261.157456,340.534987 261.517457,343.145 C261.877459,345.755013 262.124957,348.07249 262.259957,350.0975 C262.394958,352.12251 262.507457,353.539996 262.597457,354.35 C262.597457,355.520006 262.462459,356.397497 262.192457,356.9825 C261.922456,357.567503 261.427461,358.039998 260.707457,358.4 C259.717452,358.850002 258.862461,359.007501 258.142457,358.8725 C257.422454,358.737499 256.83746,358.445002 256.387457,357.995 C255.937455,357.544998 255.577459,357.027503 255.307457,356.4425 C255.037456,355.857497 254.857458,355.340002 254.767457,354.89 C254.497456,352.81999 254.204959,350.705011 253.889957,348.545 C253.574956,346.384989 253.237459,344.29251 252.877457,342.2675 C252.517456,340.24249 252.08996,338.352509 251.594957,336.5975 C251.099955,334.842491 250.58246,333.290007 250.042457,331.94 C249.862456,331.579998 249.569959,331.107503 249.164957,330.5225 C248.759955,329.937497 248.30996,329.375003 247.814957,328.835 C247.319955,328.294997 246.84746,327.845002 246.397457,327.485 C245.947455,327.124998 245.632458,326.9 245.452457,326.81 C244.552453,326.81 243.607462,327.642492 242.617457,329.3075 C241.627452,330.972508 240.682462,332.974988 239.782457,335.315 C238.882453,337.655012 238.049961,340.107487 237.284957,342.6725 C236.519954,345.237513 235.957459,347.419991 235.597457,349.22 C235.597457,351.560012 235.147462,353.292494 234.247457,354.4175 C233.347453,355.542506 232.402462,356.105 231.412457,356.105 C230.422452,356.105 229.364963,355.722504 228.239957,354.9575 C227.114952,354.192496 226.372459,353.315005 226.012457,352.325 C225.472455,350.884993 224.887461,349.265009 224.257457,347.465 C223.627454,345.664991 222.974961,343.820009 222.299957,341.93 C221.624954,340.039991 220.949961,338.195009 220.274957,336.395 C219.599954,334.594991 218.947461,332.975007 218.317457,331.535 C217.057451,333.245009 215.819963,335.13499 214.604957,337.205 C213.389951,339.27501 212.219963,341.389989 211.094957,343.55 C209.969952,345.710011 208.889963,347.847489 207.854957,349.9625 C206.819952,352.077511 205.852462,353.944992 204.952457,355.565 C204.322454,356.555005 203.647461,357.432496 202.927457,358.1975 C202.207454,358.962504 201.352462,359.345 200.362457,359.345 C199.642454,359.345 198.877461,359.007503 198.067457,358.3325 C197.257453,357.657497 196.492461,356.825005 195.772457,355.835 C195.052454,354.844995 194.39996,353.720006 193.814957,352.46 C193.229954,351.199994 192.802459,349.940006 192.532457,348.68 C191.812454,344.809981 191.20496,340.557523 190.709957,335.9225 C190.214955,331.287477 189.74246,326.765022 189.292457,322.355 C189.202457,320.824992 189.404955,319.407507 189.899957,318.1025 C190.39496,316.797493 191.36245,315.920002 192.802457,315.47 C194.332465,315.199999 195.502453,315.424996 196.312457,316.145 C197.122461,316.865004 197.617456,317.989992 197.797457,319.52 Z M304.582457,316.01 C307.282471,317.000005 309.554948,318.48499 311.399957,320.465 C313.244967,322.44501 314.662452,324.672488 315.652457,327.1475 C316.642462,329.622512 317.204957,332.164987 317.339957,334.775 C317.474958,337.385013 317.182461,339.814989 316.462457,342.065 C315.472452,344.585013 314.212465,347.059988 312.682457,349.49 C311.15245,351.920012 309.397467,354.079991 307.417457,355.97 C305.437447,357.860009 303.18747,359.389994 300.667457,360.56 C298.147445,361.730006 295.357473,362.315 292.297457,362.315 C288.607439,362.315 285.50247,361.460009 282.982457,359.75 C280.462445,358.039991 278.482465,355.835014 277.042457,353.135 C275.60245,350.434987 274.679959,347.375017 274.274957,343.955 C273.869955,340.534983 273.937455,337.115017 274.477457,333.695 C274.837459,331.174987 275.444953,328.722512 276.299957,326.3375 C277.154962,323.952488 278.257451,321.837509 279.607457,319.9925 C280.957464,318.147491 282.509949,316.640006 284.264957,315.47 C286.019966,314.299994 288.022446,313.715 290.272457,313.715 C291.532464,313.715 293.107448,313.962498 294.997457,314.4575 C296.887467,314.952502 298.642449,315.649996 300.262457,316.55 C301.432463,315.469995 302.872449,315.289996 304.582457,316.01 Z M299.452457,325.865 C298.462452,325.234997 297.314964,324.402505 296.009957,323.3675 C294.704951,322.332495 293.557462,321.815 292.567457,321.815 C291.487452,321.815 290.429963,322.309995 289.394957,323.3 C288.359952,324.290005 287.459961,325.437493 286.694957,326.7425 C285.929954,328.047507 285.27746,329.374993 284.737457,330.725 C284.197455,332.075007 283.837458,333.154996 283.657457,333.965 C283.387456,335.315007 283.207458,336.934991 283.117457,338.825 C283.027457,340.715009 283.162456,342.582491 283.522457,344.4275 C283.882459,346.272509 284.579952,347.937493 285.614957,349.4225 C286.649963,350.907507 288.202447,351.964997 290.272457,352.595 C291.532464,352.955002 293.017449,352.932502 294.727457,352.5275 C296.437466,352.122498 298.124949,351.380005 299.789957,350.3 C301.454966,349.219995 303.02995,347.780009 304.514957,345.98 C305.999965,344.179991 307.147453,342.110012 307.957457,339.77 C308.857462,337.159987 308.879962,334.437514 308.024957,331.6025 C307.169953,328.767486 305.43747,326.720006 302.827457,325.46 C302.197454,325.910002 301.567461,326.135 300.937457,326.135 C300.307454,326.135 299.812459,326.045001 299.452457,325.865 Z M336.712457,318.575 C336.982459,319.925007 337.274956,321.432492 337.589957,323.0975 C337.904959,324.762508 338.242456,326.472491 338.602457,328.2275 C338.962459,329.982509 339.277456,331.759991 339.547457,333.56 C339.817459,335.360009 340.042456,337.069992 340.222457,338.69 C341.302463,336.349988 342.472451,333.875013 343.732457,331.265 C344.992464,328.654987 346.36495,326.247511 347.849957,324.0425 C349.334965,321.837489 350.909949,320.015007 352.574957,318.575 C354.239966,317.134993 356.062447,316.415 358.042457,316.415 C361.012472,316.415 363.509947,317.494989 365.534957,319.655 C367.559967,321.815011 369.26995,324.492484 370.664957,327.6875 C372.059964,330.882516 373.162453,334.234982 373.972457,337.745 C374.782461,341.255018 375.457455,344.359986 375.997457,347.06 C376.53746,349.490012 375.457471,351.289994 372.757457,352.46 C371.497451,353.090003 370.552461,353.180002 369.922457,352.73 C369.292454,352.279998 368.932458,351.830002 368.842457,351.38 C368.392455,350.299995 367.829961,348.410013 367.154957,345.71 C366.479954,343.009986 365.714962,340.265014 364.859957,337.475 C364.004953,334.684986 363.037463,332.25501 361.957457,330.185 C360.877452,328.11499 359.662464,327.169999 358.312457,327.35 C356.692449,327.44 355.252464,328.654988 353.992457,330.995 C352.912452,332.885009 351.809963,334.977489 350.684957,337.2725 C349.559952,339.567511 348.457463,341.907488 347.377457,344.2925 C346.297452,346.677512 345.239963,349.062488 344.204957,351.4475 C343.169952,353.832512 342.202462,356.01499 341.302457,357.995 C340.672454,358.625003 339.884962,359.052499 338.939957,359.2775 C337.994953,359.502501 337.027462,359.435002 336.037457,359.075 C335.137453,358.804999 334.41746,358.355003 333.877457,357.725 C333.337455,357.094997 333.067457,356.465003 333.067457,355.835 C332.257453,348.814965 331.424962,342.425029 330.569957,336.665 C329.714953,330.904971 328.612464,325.01003 327.262457,318.98 C326.632454,316.90999 326.519955,315.267506 326.924957,314.0525 C327.329959,312.837494 328.657446,312.364999 330.907457,312.635 C334.057473,313.175003 335.992454,315.154983 336.712457,318.575 Z M415.957457,326.945 C417.667466,326.855 419.377449,327.259996 421.087457,328.16 C422.797466,329.060005 423.652457,330.454991 423.652457,332.345 C423.472456,333.875008 422.639965,334.842498 421.154957,335.2475 C419.66995,335.652502 418.477462,335.855 417.577457,335.855 C415.777448,335.855 413.842468,335.9 411.772457,335.99 C409.702447,336.08 407.587468,336.214999 405.427457,336.395 C405.247456,339.365015 405.089958,342.154987 404.954957,344.765 C404.819957,347.375013 404.707458,349.69249 404.617457,351.7175 C404.527457,353.74251 404.482457,355.384994 404.482457,356.645 C404.482457,357.905006 404.527457,358.58 404.617457,358.67 C406.597467,358.309998 408.734946,357.702504 411.029957,356.8475 C413.324969,355.992496 415.619946,355.047505 417.914957,354.0125 C420.209969,352.977495 422.459946,351.897506 424.664957,350.7725 C426.869968,349.647494 428.962447,348.590005 430.942457,347.6 C431.842462,347.149998 432.674954,347.014999 433.439957,347.195 C434.204961,347.375001 434.677456,347.779997 434.857457,348.41 C435.037458,349.400005 434.90246,350.614993 434.452457,352.055 C434.002455,353.495007 433.192463,354.799994 432.022457,355.97 C430.672451,357.050005 428.894968,358.287493 426.689957,359.6825 C424.484946,361.077507 422.12247,362.404994 419.602457,363.665 C417.082445,364.925006 414.53997,366.027495 411.974957,366.9725 C409.409945,367.917505 407.137467,368.479999 405.157457,368.66 C402.187443,368.930001 399.937465,368.120009 398.407457,366.23 C396.87745,364.339991 396.022458,361.955014 395.842457,359.075 C395.662456,356.194986 395.639957,352.865019 395.774957,349.085 C395.909958,345.304981 396.067456,341.300021 396.247457,337.07 C394.537449,337.250001 392.894965,337.407499 391.319957,337.5425 C389.744949,337.677501 388.237465,337.834999 386.797457,338.015 C385.627452,338.015 384.344964,337.745003 382.949957,337.205 C381.55495,336.664997 380.857457,335.630008 380.857457,334.1 C380.857457,333.559997 381.082455,332.840005 381.532457,331.94 C381.98246,331.039996 382.97245,330.365002 384.502457,329.915 C388.192476,329.284997 392.287435,328.745002 396.787457,328.295 C397.057459,324.064979 397.372456,319.97002 397.732457,316.01 C398.092459,312.04998 398.407456,308.450016 398.677457,305.21 C398.767458,304.129995 399.082455,303.185004 399.622457,302.375 C400.16246,301.564996 400.747454,301.16 401.377457,301.16 C402.907465,301.07 404.36995,301.452496 405.764957,302.3075 C407.159964,303.162504 407.857457,304.129995 407.857457,305.21 C407.497456,308.270015 407.159959,311.734981 406.844957,315.605 C406.529956,319.475019 406.237459,323.43498 405.967457,327.485 C407.767466,327.304999 409.499949,327.1925 411.164957,327.1475 C412.829966,327.1025 414.42745,327.035 415.957457,326.945 Z M449.842457,303.32 C449.842457,305.480011 449.819958,307.909987 449.774957,310.61 C449.729957,313.310014 449.729957,316.099986 449.774957,318.98 C449.819958,321.860014 449.864957,324.829985 449.909957,327.89 C449.954958,330.950015 450.022457,333.874986 450.112457,336.665 C451.012462,334.864991 452.092451,333.087509 453.352457,331.3325 C454.612464,329.577491 456.029949,328.025007 457.604957,326.675 C459.179965,325.324993 460.844949,324.245004 462.599957,323.435 C464.354966,322.624996 466.267447,322.22 468.337457,322.22 C470.587469,322.22 472.589949,322.939993 474.344957,324.38 C476.099966,325.820007 477.629951,327.732488 478.934957,330.1175 C480.239964,332.502512 481.342453,335.157485 482.242457,338.0825 C483.142462,341.007515 483.884954,343.977485 484.469957,346.9925 C485.05496,350.007515 485.482456,352.887486 485.752457,355.6325 C486.022459,358.377514 486.247456,360.73999 486.427457,362.72 C486.427457,364.160007 486.067461,365.329996 485.347457,366.23 C484.627454,367.130005 483.772462,367.58 482.782457,367.58 C482.062454,367.58 481.184963,367.107505 480.149957,366.1625 C479.114952,365.217495 478.37246,364.070007 477.922457,362.72 C477.652456,361.639995 477.382459,360.06501 477.112457,357.995 C476.842456,355.92499 476.527459,353.697512 476.167457,351.3125 C475.807456,348.927488 475.35746,346.520012 474.817457,344.09 C474.277455,341.659988 473.624961,339.47751 472.859957,337.5425 C472.094954,335.60749 471.172463,334.100005 470.092457,333.02 C469.012452,331.939995 467.752465,331.534999 466.312457,331.805 C464.062446,332.255002 462.104966,333.829987 460.439957,336.53 C458.774949,339.230014 457.334963,342.289983 456.119957,345.71 C454.904951,349.130017 453.914961,352.594982 453.149957,356.105 C452.384954,359.615018 451.822459,362.449989 451.462457,364.61 C451.102456,366.230008 450.62996,367.332497 450.044957,367.9175 C449.459954,368.502503 448.807461,368.795 448.087457,368.795 C447.367454,368.795 446.71496,368.435004 446.129957,367.715 C445.544954,366.994996 445.00496,366.117505 444.509957,365.0825 C444.014955,364.047495 443.587459,362.967506 443.227457,361.8425 C442.867456,360.717494 442.642458,359.750004 442.552457,358.94 C442.102455,354.079976 441.742459,349.422522 441.472457,344.9675 C441.202456,340.512478 440.999958,336.035023 440.864957,331.535 C440.729957,327.034978 440.662457,322.422524 440.662457,317.6975 C440.662457,312.972476 440.752456,307.910027 440.932457,302.51 C440.932457,298.009978 442.552441,295.984998 445.792457,296.435 C446.872463,296.615001 447.817453,297.402493 448.627457,298.7975 C449.437461,300.192507 449.842457,301.699992 449.842457,303.32 Z M272.857457,402.94 C272.677456,403.480003 272.047463,404.109996 270.967457,404.83 C269.887452,405.550004 268.987461,405.91 268.267457,405.91 C264.397438,405.549998 260.549976,405.235001 256.724957,404.965 C252.899938,404.694999 249.007477,404.515 245.047457,404.425 C245.58746,407.575016 246.104955,410.724984 246.599957,413.875 C247.09496,417.025016 247.567455,420.174984 248.017457,423.325 C255.667496,423.054999 263.22742,422.650003 270.697457,422.11 C271.957464,422.11 273.217451,422.514996 274.477457,423.325 C275.737464,424.135004 276.367457,424.899996 276.367457,425.62 C276.367457,426.610005 275.962461,427.487496 275.152457,428.2525 C274.342453,429.017504 273.352463,429.489999 272.182457,429.67 C268.402438,430.300003 264.599976,430.772498 260.774957,431.0875 C256.949938,431.402502 253.057477,431.649999 249.097457,431.83 C249.54746,434.980016 249.929956,438.107484 250.244957,441.2125 C250.559959,444.317516 250.852456,447.399985 251.122457,450.46 C251.302458,451.720006 251.189959,453.047493 250.784957,454.4425 C250.379955,455.837507 249.727462,456.535 248.827457,456.535 C248.017453,456.535 247.252461,456.310002 246.532457,455.86 C245.812454,455.409998 245.15996,454.892503 244.574957,454.3075 C243.989954,453.722497 243.517459,453.070004 243.157457,452.35 C242.797456,451.629996 242.572458,451.000003 242.482457,450.46 C241.582453,442.719961 240.614963,435.025038 239.579957,427.375 C238.544952,419.724962 237.397464,412.030039 236.137457,404.29 L231.682457,404.29 C230.422451,404.29 229.252463,404.155001 228.172457,403.885 C227.092452,403.614999 226.28246,402.940005 225.742457,401.86 C225.562456,401.589999 225.449958,401.140003 225.404957,400.51 C225.359957,399.879997 225.404957,399.250003 225.539957,398.62 C225.674958,397.989997 225.922456,397.405003 226.282457,396.865 C226.642459,396.324997 227.137454,395.965001 227.767457,395.785 C231.277475,395.244997 235.034937,395.02 239.039957,395.11 C243.044977,395.2 246.959938,395.447498 250.784957,395.8525 C254.609976,396.257502 258.20994,396.819996 261.584957,397.54 C264.959974,398.260004 267.862445,399.024996 270.292457,399.835 C271.822465,400.735005 272.677456,401.769994 272.857457,402.94 Z M293.107457,458.965 C292.837456,455.634983 292.634958,451.855021 292.499957,447.625 C292.364957,443.394979 292.297457,439.052522 292.297457,434.5975 C292.297457,430.142478 292.319957,425.755022 292.364957,421.435 C292.409958,417.114978 292.522456,413.200018 292.702457,409.69 C292.702457,408.789995 293.129953,408.092502 293.984957,407.5975 C294.839962,407.102498 295.537455,406.9 296.077457,406.99 C297.697465,407.170001 298.799954,407.732495 299.384957,408.6775 C299.96996,409.622505 300.352456,410.949991 300.532457,412.66 C300.442457,415.540014 300.374958,418.419986 300.329957,421.3 C300.284957,424.180014 300.307457,427.059986 300.397457,429.94 C304.447478,429.219996 307.844944,427.735011 310.589957,425.485 C313.334971,423.234989 315.292452,420.670014 316.462457,417.79 C316.91246,416.709995 317.249956,415.405008 317.474957,413.875 C317.699958,412.344992 317.722458,410.792508 317.542457,409.2175 C317.362456,407.642492 316.934961,406.157507 316.259957,404.7625 C315.584954,403.367493 314.572464,402.265004 313.222457,401.455 C311.242447,400.284994 309.082469,399.655 306.742457,399.565 C304.402446,399.475 301.99497,399.812496 299.519957,400.5775 C297.044945,401.342504 294.614969,402.534992 292.229957,404.155 C289.844945,405.775008 287.617468,407.709989 285.547457,409.96 C285.817459,411.310007 285.637461,412.502495 285.007457,413.5375 C284.377454,414.572505 283.477463,415.314998 282.307457,415.765 C281.587454,415.945001 280.732462,415.562505 279.742457,414.6175 C278.752452,413.672495 278.257457,412.705005 278.257457,411.715 C278.257457,408.114982 279.269947,404.987513 281.294957,402.3325 C283.319967,399.677487 285.862442,397.450009 288.922457,395.65 C291.982473,393.849991 295.26744,392.500004 298.777457,391.6 C302.287475,390.699995 305.527443,390.25 308.497457,390.25 C312.907479,390.25 316.597443,391.532487 319.567457,394.0975 C322.537472,396.662513 324.562452,399.879981 325.642457,403.75 C327.532467,410.500034 327.059972,416.574973 324.224957,421.975 C321.389943,427.375027 316.777489,432.05498 310.387457,436.015 C315.067481,438.895014 319.454937,441.639987 323.549957,444.25 C327.644978,446.860013 331.762437,449.694985 335.902457,452.755 C336.44246,453.295003 337.049954,454.082495 337.724957,455.1175 C338.399961,456.152505 338.287462,457.70499 337.387457,459.775 C336.847455,461.035006 335.924964,461.732499 334.619957,461.8675 C333.314951,462.002501 332.032464,461.620005 330.772457,460.72 C328.792447,459.099992 326.56497,457.412509 324.089957,455.6575 C321.614945,453.902491 319.027471,452.147509 316.327457,450.3925 C313.627444,448.637491 310.927471,446.927508 308.227457,445.2625 C305.527444,443.597492 302.96247,442.045007 300.532457,440.605 C300.622458,444.205018 300.689957,447.782482 300.734957,451.3375 C300.779958,454.892518 300.892456,458.379983 301.072457,461.8 C301.072457,463.060006 300.712461,463.937498 299.992457,464.4325 C299.272454,464.927502 298.372463,465.175 297.292457,465.175 C296.752455,465.085 296.25746,464.792502 295.807457,464.2975 C295.357455,463.802498 294.929959,463.217503 294.524957,462.5425 C294.119955,461.867497 293.782459,461.192503 293.512457,460.5175 C293.242456,459.842497 293.107457,459.325002 293.107457,458.965 Z M383.557457,427.645 C383.917459,428.545005 383.557463,429.422496 382.477457,430.2775 C381.397452,431.132504 379.687469,431.694999 377.347457,431.965 C373.297437,432.505003 369.157479,433.067497 364.927457,433.6525 C360.697436,434.237503 356.377479,434.844997 351.967457,435.475 C351.787456,440.065023 351.787456,444.654977 351.967457,449.245 C354.037468,449.245 356.534943,449.042502 359.459957,448.6375 C362.384972,448.232498 365.377442,447.715003 368.437457,447.085 C371.497473,446.454997 374.444943,445.802503 377.279957,445.1275 C380.114972,444.452497 382.522447,443.890002 384.502457,443.44 C385.492462,443.169999 386.527452,442.967501 387.607457,442.8325 C388.687463,442.697499 389.654953,442.697499 390.509957,442.8325 C391.364962,442.967501 392.062455,443.304997 392.602457,443.845 C393.14246,444.385003 393.412457,445.149995 393.412457,446.14 C393.412457,446.410001 393.097461,446.814997 392.467457,447.355 C391.837454,447.895003 391.049962,448.457497 390.104957,449.0425 C389.159953,449.627503 388.169963,450.167498 387.134957,450.6625 C386.099952,451.157502 385.177461,451.539999 384.367457,451.81 C378.787429,453.610009 373.297484,455.162493 367.897457,456.4675 C362.49743,457.772507 357.232483,458.47 352.102457,458.56 C349.132443,458.65 346.882465,457.862508 345.352457,456.1975 C343.82245,454.532492 343.012458,452.125016 342.922457,448.975 C342.742456,444.564978 342.742456,440.110023 342.922457,435.61 C341.39245,434.709996 340.627457,433.450008 340.627457,431.83 C340.807458,430.119991 341.61745,428.950003 343.057457,428.32 C343.237458,425.709987 343.372457,423.077513 343.462457,420.4225 C343.552458,417.767487 343.687456,415.135013 343.867457,412.525 C342.877452,412.344999 341.999961,411.850004 341.234957,411.04 C340.469954,410.229996 340.087457,409.330005 340.087457,408.34 C340.087457,407.529996 340.267456,406.787503 340.627457,406.1125 C340.987459,405.437497 341.662452,404.920002 342.652457,404.56 C344.272465,404.199998 346.252446,403.795002 348.592457,403.345 C350.932469,402.894998 353.339945,402.490002 355.814957,402.13 C358.28997,401.769998 360.674946,401.455001 362.969957,401.185 C365.264969,400.914999 367.222449,400.735 368.842457,400.645 C370.732467,400.464999 372.554949,400.644997 374.309957,401.185 C376.064966,401.725003 377.70745,402.759992 379.237457,404.29 C379.597459,405.550006 379.349962,406.494997 378.494957,407.125 C377.639953,407.755003 376.537464,408.159999 375.187457,408.34 C373.837451,408.520001 372.217467,408.722499 370.327457,408.9475 C368.437448,409.172501 366.479967,409.419999 364.454957,409.69 C362.429947,409.960001 360.404967,410.207499 358.379957,410.4325 C356.354947,410.657501 354.442466,410.904999 352.642457,411.175 C352.642457,411.355001 352.664957,411.557499 352.709957,411.7825 C352.754958,412.007501 352.777457,412.209999 352.777457,412.39 C352.597456,414.730012 352.462458,417.069988 352.372457,419.41 L352.102457,426.43 C355.882476,425.799997 359.752438,425.237502 363.712457,424.7425 C367.672477,424.247498 370.822446,423.910001 373.162457,423.73 C375.052467,423.549999 376.897448,423.774997 378.697457,424.405 C380.497466,425.035003 382.11745,426.114992 383.557457,427.645 Z M438.907457,427.645 C439.267459,428.545005 438.907463,429.422496 437.827457,430.2775 C436.747452,431.132504 435.037469,431.694999 432.697457,431.965 C428.647437,432.505003 424.507479,433.067497 420.277457,433.6525 C416.047436,434.237503 411.727479,434.844997 407.317457,435.475 C407.137456,440.065023 407.137456,444.654977 407.317457,449.245 C409.387468,449.245 411.884943,449.042502 414.809957,448.6375 C417.734972,448.232498 420.727442,447.715003 423.787457,447.085 C426.847473,446.454997 429.794943,445.802503 432.629957,445.1275 C435.464972,444.452497 437.872447,443.890002 439.852457,443.44 C440.842462,443.169999 441.877452,442.967501 442.957457,442.8325 C444.037463,442.697499 445.004953,442.697499 445.859957,442.8325 C446.714962,442.967501 447.412455,443.304997 447.952457,443.845 C448.49246,444.385003 448.762457,445.149995 448.762457,446.14 C448.762457,446.410001 448.447461,446.814997 447.817457,447.355 C447.187454,447.895003 446.399962,448.457497 445.454957,449.0425 C444.509953,449.627503 443.519963,450.167498 442.484957,450.6625 C441.449952,451.157502 440.527461,451.539999 439.717457,451.81 C434.137429,453.610009 428.647484,455.162493 423.247457,456.4675 C417.84743,457.772507 412.582483,458.47 407.452457,458.56 C404.482443,458.65 402.232465,457.862508 400.702457,456.1975 C399.17245,454.532492 398.362458,452.125016 398.272457,448.975 C398.092456,444.564978 398.092456,440.110023 398.272457,435.61 C396.74245,434.709996 395.977457,433.450008 395.977457,431.83 C396.157458,430.119991 396.96745,428.950003 398.407457,428.32 C398.587458,425.709987 398.722457,423.077513 398.812457,420.4225 C398.902458,417.767487 399.037456,415.135013 399.217457,412.525 C398.227452,412.344999 397.349961,411.850004 396.584957,411.04 C395.819954,410.229996 395.437457,409.330005 395.437457,408.34 C395.437457,407.529996 395.617456,406.787503 395.977457,406.1125 C396.337459,405.437497 397.012452,404.920002 398.002457,404.56 C399.622465,404.199998 401.602446,403.795002 403.942457,403.345 C406.282469,402.894998 408.689945,402.490002 411.164957,402.13 C413.63997,401.769998 416.024946,401.455001 418.319957,401.185 C420.614969,400.914999 422.572449,400.735 424.192457,400.645 C426.082467,400.464999 427.904949,400.644997 429.659957,401.185 C431.414966,401.725003 433.05745,402.759992 434.587457,404.29 C434.947459,405.550006 434.699962,406.494997 433.844957,407.125 C432.989953,407.755003 431.887464,408.159999 430.537457,408.34 C429.187451,408.520001 427.567467,408.722499 425.677457,408.9475 C423.787448,409.172501 421.829967,409.419999 419.804957,409.69 C417.779947,409.960001 415.754967,410.207499 413.729957,410.4325 C411.704947,410.657501 409.792466,410.904999 407.992457,411.175 C407.992457,411.355001 408.014957,411.557499 408.059957,411.7825 C408.104958,412.007501 408.127457,412.209999 408.127457,412.39 C407.947456,414.730012 407.812458,417.069988 407.722457,419.41 L407.452457,426.43 C411.232476,425.799997 415.102438,425.237502 419.062457,424.7425 C423.022477,424.247498 426.172446,423.910001 428.512457,423.73 C430.402467,423.549999 432.247448,423.774997 434.047457,424.405 C435.847466,425.035003 437.46745,426.114992 438.907457,427.645 Z" id="Get-one-month-FREE" fill="#4D394B"></path>
            </g>
            <g id="Group" transform="translate(208.000000, 583.000000)">
                <path d="M108.266055,317.542599 C199.214981,314.368704 261.043871,292.212516 242.907064,281.097625 C224.770257,269.982735 202.481117,276.470525 130.447514,276.470525 C58.4139102,276.470525 21.2895016,283.84333 5.10273939,292.574281 C-11.0840228,301.305231 18.1039032,319.27331 108.266055,317.542599 Z" id="Shadow" fill-opacity="0.25" fill="#261D25" transform="translate(123.463673, 296.123787) rotate(2.000000) translate(-123.463673, -296.123787) "></path>
                <g id="Fill" transform="translate(128.904607, 164.337882) scale(-1, 1) translate(-128.904607, -164.337882) translate(20.443593, 37.140370)">
                    <path d="M149.555755,253.728514 C91.6203218,258.719494 0.0284641474,225.529058 0.0284641474,225.529058 L3.55873124,212.301185 L3.55873124,93.4125213 C3.55873124,42.1852645 47.8663792,0 100.748909,0 L118.41985,0 C171.30683,0 215.610027,42.1830129 215.610027,93.4125213 L215.610027,212.301185 C215.610027,212.301185 207.491188,248.737534 149.555755,253.728514 Z" id="Rectangle" fill="#FFC6AB"></path>
                    <path d="M103.913199,107.987166 C120.299876,107.987166 133.583902,95.2194729 133.583902,79.4697252 C133.583902,63.7199775 120.299876,50.9522843 103.913199,50.9522843 C87.5265226,50.9522843 74.2424966,63.7199775 74.2424966,79.4697252 C74.2424966,95.2194729 87.5265226,107.987166 103.913199,107.987166 Z" id="Oval" fill="#FFFFFF"></path>
                    <path d="M207.014951,54.6036349 C204.444115,53.8248823 201.707648,53.4049503 198.869136,53.4049503 C183.919717,53.4049503 171.800819,65.0528027 171.800819,79.4211569 C171.800819,93.7895111 183.919717,105.437364 198.869136,105.437364 L198.869136,105.437364 C205.708457,105.437364 211.95534,102.999422 216.720365,98.9783866" id="Oval" fill="#FFFFFF"></path>
                    <path d="M6.66166439,81.4325072 C6.66166439,81.4325072 23.1319625,29.5360044 47.2257154,14.08775 C71.3194682,-1.36050434 115.313705,0.0325205777 115.313705,0.0325205777 C115.313705,0.0325205777 117.33402,24.7403809 89.3168733,37.8094319 C77.4218345,43.358065 62.8925911,55.3577383 62.8925911,81.4325048 C62.8925911,107.507271 71.287837,98.5542068 71.287837,134.223298 C71.287837,142.956338 71.287837,151.481254 71.287837,168.858244 C71.287837,186.235234 80.1233076,186.850103 80.1233077,204.029603 C80.1233077,221.209103 80.1233077,246.27664 80.1233077,246.27664 C80.1233077,246.27664 52.591907,238.413262 39.7656388,232.319681 C26.9393705,226.2261 6.66166439,211.376036 6.66166439,211.376036 L6.66166439,81.4325072 Z" id="Rectangle-3" fill-opacity="0.7" fill="#CC9A83"></path>
                </g>
                <g id="User" transform="translate(133.500000, 149.000000) scale(-1, 1) translate(-133.500000, -149.000000) translate(10.000000, 0.000000)">
                    <path d="M157.125221,291.060888 C86.9636322,291.060888 23.4911323,249.346865 23.4911323,249.346865 L23.4911323,135.245995 C23.4911323,81.0637546 67.4471323,37.14037 121.659744,37.14037 L135.69087,37.14037 C189.907897,37.14037 233.859482,81.0614103 233.859482,135.245995 L233.859482,249.346865 C233.859482,249.346865 227.286811,291.060888 157.125221,291.060888 Z" id="Rectangle" stroke="#4D394B" stroke-width="7" stroke-linecap="round" stroke-linejoin="round"></path>
                    <path d="M23.5615904,250.802454 C23.5615904,250.802454 114.492553,270.203558 151.591832,270.953418 C188.691112,271.703279 231.467047,250.802454 231.467047,250.802454 C231.467047,250.802454 232.569157,263.016981 231.467047,267.605391 C230.364936,272.193801 231.467047,279.411572 231.467047,279.411572 C231.467047,279.411572 195.044879,302.081776 140.369514,296.347963 C85.6941479,290.614149 23.5615904,279.411572 23.5615904,279.411572 L23.5615904,250.802454 Z" id="Rectangle-2" fill="#A978EC"></path>
                    <path d="M24.1762815,250.686219 L99.6857802,264.759048 C99.6857802,264.759048 98.894615,275.154198 102.606767,281.604157 C106.31892,288.054115 125.870396,295.391331 125.870396,295.391331 L24.1762815,279.01541 L24.1762815,250.686219 Z" id="Rectangle-4" fill-opacity="0.400985054" fill="#292929"></path>
                    <path d="M142.812008,296.703961 C81.2716432,294.589467 23.4911323,278.472752 23.4911323,278.472752 L23.4911323,250.117478 C23.4911323,250.117478 106.431852,269.421713 154.092785,269.421713 C201.753719,269.421713 233.792623,250.117478 233.792623,250.117478 L232.039553,278.927641 C232.039553,278.927641 204.352372,298.818455 142.812008,296.703961 Z" id="Rectangle" stroke="#4D394B" stroke-width="7" stroke-linecap="round" stroke-linejoin="round"></path>
                    <path d="M124.292633,147.860718 C140.267827,147.860718 153.218281,134.918873 153.218281,118.954298 C153.218281,102.989723 140.267827,90.0478781 124.292633,90.0478781 C108.317439,90.0478781 95.366985,102.989723 95.366985,118.954298 C95.366985,134.918873 108.317439,147.860718 124.292633,147.860718 Z" id="Oval" stroke="#4D394B" stroke-width="7"></path>
                    <path d="M222.627683,89.7330709 C221.150425,89.4793248 219.63159,89.3471164 218.081855,89.3471164 C203.365313,89.3471164 191.435198,101.269301 191.435198,115.976061 C191.435198,130.682821 203.365313,142.605005 218.081855,142.605005 L218.081855,142.605005 C223.901703,142.605005 229.285779,140.740483 233.668575,137.576571" id="Oval" stroke="#4D394B" stroke-width="7"></path>
                    <ellipse id="Oval-2" fill="#4D394B" cx="116.625944" cy="118.581848" rx="4.90859482" ry="4.90533188"></ellipse>
                    <ellipse id="Oval-2" fill="#4D394B" cx="208.805281" cy="118.581848" rx="4.90859482" ry="4.90533188"></ellipse>
                    <ellipse id="Oval-2" fill="#4D394B" cx="184.773533" cy="222.491839" rx="7.71350614" ry="7.70837867"></ellipse>
                    <g id="Group-2" transform="translate(123.065484, 109.844396) scale(-1, 1) translate(-123.065484, -109.844396) ">
                        <path d="M42.5225992,152.615717 C42.5225992,152.615717 43.8125731,155.843471 46.303082,156.436119 C48.7935908,157.028767 50.146762,157.34595 50.146762,157.34595 C50.146762,157.34595 50.4507128,164.162968 57.3698306,165.02938 C66.5452898,165.939512 70.8240109,157.934168 70.8240109,157.934168 C70.8240109,157.934168 73.0648183,159.731089 76.3074529,159.731089 C79.5500876,159.731089 83.0065193,157.934168 83.0065193,157.934168" id="Line" stroke="#4D394B" stroke-width="7" stroke-linecap="round" stroke-linejoin="round"></path>
                        <path d="M174.609753,81.1451522 C164.526087,69.0577411 167.123162,104.662542 161.780708,115.051951 C146.914853,118.453118 23.1559529,128.88236 0.34796754,107.932063 C0.34796754,69.9066824 42.3645265,-38.8575511 183.968587,14.504207 C273.616873,48.2870667 245.991139,202.879282 223.521827,217.985517 C201.052515,233.091751 228.181233,125.465194 197.160155,140.931328 C166.139077,156.397461 185.264343,93.916938 174.609753,81.1451522 Z" id="Rectangle-6" fill="#4D394B"></path>
                    </g>
                </g>
            </g>
        </g>
    </g>
</svg>