<?xml version="1.0" encoding="UTF-8"?>
<svg width="960px" height="960px" viewBox="0 0 960 960" version="1.1" xmlns="http://www.w3.org/2000/svg" xmlns:xlink="http://www.w3.org/1999/xlink">
    <!-- Generator: Sketch 44.1 (41455) - http://www.bohemiancoding.com/sketch -->
    <title>local-bots</title>
    <desc>Created with Sketch.</desc>
    <defs>
        <path d="M60,0 L565,0 L565,7.10542736e-15 C598.137085,-5.7845044e-14 625,26.862915 625,60 L625,436 L0,436 L0,60 L-7.10542736e-15,60 C-1.11635499e-14,26.862915 26.862915,6.08718376e-15 60,0 Z" id="path-1"></path>
    </defs>
    <g id="Illustrations-app" stroke="none" stroke-width="1" fill="none" fill-rule="evenodd">
        <g id="local-bots">
            <path d="M163.430916,729.332685 L793.336469,729.332685 L793.336469,729.332685 C795.522788,729.332685 797.583546,730.354196 798.907369,732.094162 L862.056483,815.094162 L862.056483,815.094162 C864.397354,818.170885 863.800829,822.562713 860.724106,824.903585 C859.505581,825.830679 858.016696,826.332685 856.485583,826.332685 L100.269815,826.332685 L100.269815,826.332685 C96.4038215,826.332685 93.2698148,823.198678 93.2698148,819.332685 C93.2698148,817.801353 93.7719647,816.312267 94.6993027,815.093653 L157.860404,732.093653 L157.860404,732.093653 C159.18425,730.353987 161.244823,729.332685 163.430916,729.332685 Z" id="Shadow" fill-opacity="0.59" fill="#D4D8D9"></path>
            <path d="M229,214 L730,214 L730,214 C763.137085,214 790,240.862915 790,274 L790,633 L169,633 L169,274 L169,274 C169,240.862915 195.862915,214 229,214 Z" id="Screen-fill" fill="#ECF0F1"></path>
            <g id="Screen-content" transform="translate(160.000000, 206.000000)">
                <mask id="mask-2" fill="white">
                    <use xlink:href="#path-1"></use>
                </mask>
                <use id="Screen" fill-opacity="0" fill="#D8D8D8" xlink:href="#path-1"></use>
                <g id="Bot" mask="url(#mask-2)">
                    <g transform="translate(186.000000, 78.000000)">
                        <path d="M140.56788,287.404944 C234.645858,284.711936 265.869229,271.471619 247.045036,259.909578 C228.220844,248.347537 204.984591,252.160624 130.220913,252.160624 C55.4572358,252.160624 14.0603606,252.976514 2.28240779,267.405677 C-9.49554498,281.834839 46.4899027,290.097953 140.56788,287.404944 Z" id="Shadow" fill-opacity="0.59" fill="#D4D8D9" transform="translate(126.500000, 269.734491) rotate(2.000000) translate(-126.500000, -269.734491) "></path>
                        <g id="Fill" stroke-width="1" fill="none" transform="translate(18.175287, 0.000000)">
                            <path d="M222.087989,234.019027 C215.276533,246.328651 166.756075,257.942623 112.658237,257.942623 C58.5603993,257.942623 14.1349009,242.71502 4.48445862,234.019027 C-5.16598367,225.323033 9.34248731,218.114144 9.34248731,218.114144 L9.34248731,95.9702233 C9.34248731,43.3403274 52.6498121,0 104.338425,0 L121.610414,0 C173.303378,0 216.606352,43.3380142 216.606352,95.9702233 L216.606352,218.114144 C216.606352,218.114144 228.899446,221.709403 222.087989,234.019027 Z" id="Rectangle" fill="#FF9F72"></path>
                            <path d="M113.050287,121.075882 C131.733288,121.075882 146.878853,105.929575 146.878853,87.2456576 C146.878853,68.5617404 131.733288,53.4154328 113.050287,53.4154328 C94.3672863,53.4154328 79.2217215,68.5617404 79.2217215,87.2456576 C79.2217215,105.929575 94.3672863,121.075882 113.050287,121.075882 Z" id="Oval" fill="#FFFFFF"></path>
                            <path d="M205.118505,53.7543257 C202.218467,52.840281 199.131589,52.3473945 195.929598,52.3473945 C179.065869,52.3473945 165.395115,66.0188185 165.395115,82.8833747 C165.395115,99.7479308 179.065869,113.419355 195.929598,113.419355 L195.929598,113.419355 C203.644711,113.419355 210.691523,110.557872 216.066721,105.838265" id="Oval" fill="#FFFFFF"></path>
                            <path d="M14.3418953,87.2678856 C14.3418953,87.2678856 30.6046568,35.4914738 54.3948126,20.0789674 C78.1849683,4.66646105 121.624849,6.05626244 121.624849,6.05626244 C121.624849,6.05626244 123.619707,30.7069476 95.9555943,43.7457562 C84.2104408,49.2815495 69.8642754,61.2534549 69.8642754,87.2678832 C69.8642754,113.282312 78.1537356,104.349965 78.1537356,139.936516 C78.1537356,148.649348 78.1537356,157.154536 78.1537356,174.491315 C78.1537356,191.828094 86.8778736,192.44154 86.8778736,209.581286 C86.8778736,226.721032 86.8778736,230.79736 86.8778736,230.79736 L17.0847701,218.114144 L14.3418953,87.2678856 Z" id="Rectangle-3" fill-opacity="0.696218297" fill="#858585"></path>
                            <path d="M1.17223743,221.606805 L12.5291195,214.576807 C12.5291195,214.576807 77.6846866,229.230897 101.670292,232.972951 C105.109679,233.509539 113.274651,230.691015 125.028354,232.972951 C133.952055,243.198464 125.796555,257.02136 125.796555,257.02136 L59.1005719,254.10983 L4.71653279,237.274271 L1.17223743,221.606805 Z" id="Rectangle-4" fill-opacity="0.696218297" fill="#858585"></path>
                        </g>
                        <g id="Stroke" stroke-width="1" fill="none" transform="translate(17.448276, 0.000000)">
                            <path d="M218.103448,218.114144 L209.391448,218.114144 L209.391448,95.9702233 C209.391448,48.2956464 169.693511,8.712 122.137931,8.712 L104.689655,8.712 C57.1377263,8.712 17.4361379,48.2986993 17.4361379,95.9702233 L17.4361379,218.114144 L8.72413793,218.114144 L8.72413793,95.9702233 C8.72413793,43.3403274 52.4734804,0 104.689655,0 L122.137931,0 C174.358501,0 218.103448,43.3380142 218.103448,95.9702233 L218.103448,218.114144 Z" id="Rectangle" fill="#4D394B" fill-rule="nonzero"></path>
                            <path d="M47.5664121,95.8534571 L31.840106,96.7037465 C33.4127929,96.574224 33.6696898,96.1609192 33.6696898,96.3611452 L33.6696898,120.576604 C33.6696898,120.918824 33.591776,120.788586 32.0062493,120.565673 L47.6890326,122.264781 C45.3861439,122.096405 44.8475515,122.967201 44.8475515,122.572578 L44.8475515,95.7747867 C44.8475515,95.1459342 44.7324415,94.6898495 44.6732838,94.5914347 C45.0568378,95.2295156 46.0238591,95.896295 47.3832563,95.8608127 L47.5664121,95.8534571 Z M52.3448276,95.7747867 L52.3448276,122.572578 C52.3448276,127.346709 50.0451388,131.070789 47.2130255,130.86372 L31.3042159,129.144138 C28.4699999,128.73865 26.1724138,124.887481 26.1724138,120.576604 L26.1724138,96.3611452 C26.1724138,92.0470674 28.4721026,88.3427081 31.3042159,88.1094625 L47.2130255,87.2467111 C50.0472415,87.1727338 52.3448276,91.0041983 52.3448276,95.7747867 Z" id="Rectangle-2" fill="#4D394B" fill-rule="nonzero"></path>
                            <path d="M39.2586207,212.906243 L39.2586207,196.418816 M39.2586207,178.975542 L39.2586207,170.293576 M39.2586207,152.746464 L39.2586207,125.65952 M39.2586207,87.2456576 C42.695585,50.5447735 66.1168122,18.3854882 98.4740264,4.93099847" id="Rectangle" stroke="#4D394B" stroke-width="8.712" stroke-linecap="round" stroke-linejoin="round"></path>
                            <path d="M51.8854326,224.784825 C48.8487957,224.159009 45.8664744,223.493102 42.9395918,222.789674 C35.3545706,220.966737 28.7170949,219.022963 23.0866807,217.092959 C19.8067173,215.968647 17.6512282,215.127316 16.6799095,214.704179 C10.4666522,211.997489 3.39553264,215.236099 0.886121975,221.937815 C-1.62328869,228.639531 1.37927227,236.266551 7.59252957,238.97324 C13.1957095,241.414161 23.3726458,244.902631 37.6621353,248.336877 C61.1900936,253.991439 87.8893758,257.37469 117.28893,257.37469 C146.769618,257.37469 172.062892,253.969586 193.183686,248.257132 C206.17225,244.744168 215.045491,241.127971 219.831585,238.51542 C225.810424,235.251794 228.204372,227.378261 225.178617,220.929391 C222.152862,214.480522 214.853197,211.898373 208.874358,215.161999 C208.258446,215.498202 206.65294,216.263297 204.052719,217.32299 C199.469172,219.190967 193.880833,221.084562 187.281639,222.869419 C168.0805,228.062672 144.768903,231.200993 117.28893,231.200993 C108.67868,231.200993 100.324355,230.892568 92.2402011,230.308318 M78.0759393,228.976566 C74.0988716,228.514379 70.1950544,227.984794 66.3664074,227.392206" id="Line" stroke="#4D394B" stroke-width="8.712" stroke-linecap="round" fill-rule="nonzero"></path>
                            <path d="M113.413793,117.787921 C130.280826,117.787921 143.954345,104.113731 143.954345,87.2456576 C143.954345,70.3775837 130.280826,56.7033945 113.413793,56.7033945 C96.54676,56.7033945 82.8732414,70.3775837 82.8732414,87.2456576 C82.8732414,104.113731 96.54676,117.787921 113.413793,117.787921 Z" id="Oval" stroke="#4D394B" stroke-width="8.712"></path>
                            <path d="M201.7712,57.2765554 C199.987114,56.8969978 198.154388,56.7033945 196.293103,56.7033945 C181.835174,56.7033945 170.114621,68.4245231 170.114621,82.8833747 C170.114621,97.3422263 181.835174,109.063355 196.293103,109.063355 C201.890953,109.063355 207.207219,107.304115 211.616397,104.113105 L201.7712,57.2765554 Z" id="Oval" stroke="#4D394B" stroke-width="8.712"></path>
                            <ellipse id="Oval-2" fill="#4D394B" cx="196.293103" cy="82.8833747" rx="4.36206897" ry="4.36228288"></ellipse>
                            <ellipse id="Oval-2" fill="#4D394B" cx="117.775862" cy="82.8833747" rx="4.36206897" ry="4.36228288"></ellipse>
                            <path d="M165.758621,148.341041 C148.310345,148.341041 115.175581,148.368762 113.413353,148.317618 C100.079099,147.729633 87.8761777,158.941867 87.2409391,174.491315 C86.6534237,187.826663 97.8651073,200.030183 113.413353,200.665012 C113.272251,200.682464 139.586178,200.654678 165.758621,200.64159 C191.931034,200.628503 209.356813,191.940447 209.356813,191.940447 L213.731262,187.823649 L213.731262,142.291789 L209.356813,139.593052 C209.356813,139.593052 191.931034,148.317618 165.758621,148.341041 Z" id="Line" fill="#4D394B" fill-rule="nonzero"></path>
                        </g>
                    </g>
                </g>
            </g>
            <polygon id="Screen-glair" fill-opacity="0.699999988" fill="#FFFFFF" points="169 234 460 234 310 633 169 633"></polygon>
            <path d="M177,622 L782,622 L782,266 C782,243.90861 764.09139,226 742,226 L217,226 C194.90861,226 177,243.90861 177,266 L177,622 Z" id="Screen" stroke="#4D394B" stroke-width="40"></path>
            <g id="Computer-fill" transform="translate(86.000000, 631.000000)">
                <path d="M786.257127,124.154533 L785.736203,137.76492 L785.736203,137.76492 C785.325133,148.505128 776.498908,157 765.750836,157 L21.2451338,157 L21.2451338,157 C10.4986829,157 1.67318261,148.507603 1.25992715,137.769101 L0.735990519,124.154533 L0.735990519,124.154533 C0.0642457073,106.699148 13.6700743,92.0042058 31.1254593,91.332461 C31.5307057,91.3168657 31.9362145,91.3090658 32.3417609,91.3090658 L754.644738,91.3090658 L754.644738,91.3090658 C772.116561,91.3090658 786.280273,105.472777 786.280273,122.944601 C786.280273,123.348022 786.272556,123.751407 786.257127,124.154533 Z" id="Rectangle-7" fill="#AFA9AF"></path>
                <path d="M564.514253,91.3090658 L522,147 L30.1127208,147 L30.1127208,147 C19.4196881,147 10.6181922,138.588973 10.1332949,127.906941 L9.73599052,119.154533 L9.73599052,119.154533 C9.06886754,104.458163 20.4418194,92.003591 35.1381894,91.336468 C35.5405748,91.3182023 35.9433227,91.3090658 36.3461224,91.3090658 L564.514253,91.3090658 Z" id="Rectangle-7" fill-opacity="0.5" fill="#7F797E"></path>
                <path d="M91.9127967,-4.54747351e-13 L696.086064,-4.54747351e-13 L696.086064,-5.40012479e-13 C702.332688,-5.74448664e-13 708.22057,2.91860431 712.002921,7.88993503 L778.514253,95.3090658 L9.47198104,95.3090658 L75.9970478,7.88847916 L75.9970478,7.88847916 C79.7794639,2.91800633 85.6668162,-4.55157865e-13 91.9127967,-4.61852778e-13 Z" id="Rectangle-7" fill="#CAC4C9"></path>
                <path d="M291.573668,55 L497.036484,55 L501.142355,67.431969 L501.142355,67.431969 C502.008355,70.0540875 500.584739,72.881766 497.96262,73.7477657 C497.45672,73.9148479 496.927367,74 496.394589,74 L291.564853,74 L291.564853,74 C288.803429,74 286.564853,71.7614237 286.564853,69 C286.564853,68.3885663 286.677001,67.7823179 286.895729,67.2113459 L291.573668,55 Z" id="Rectangle-7" fill="#B0A9B0"></path>
                <path d="M123.503903,21 L665.692982,21 L665.692982,21 C672.677606,21 679.156246,24.643793 682.783894,30.6124732 L692.988925,47.4031183 L692.988925,47.4031183 C694.423143,49.7628809 693.672841,52.8385099 691.313078,54.2727281 C690.5304,54.7484247 689.632096,55 688.716197,55 L101.44961,55 L101.44961,55 C98.6881859,55 96.4496096,52.7614237 96.4496096,50 C96.4496096,49.1586695 96.6619085,48.3309418 97.0668457,47.5934712 L105.972847,31.3738849 L105.972847,31.3738849 C109.485819,24.9760693 116.205066,21 123.503903,21 Z" id="Rectangle-7" fill="#B0A9B0"></path>
                <polygon id="Rectangle-7" fill-opacity="0.5" fill="#7F797E" points="82 -4.54747351e-13 706 8 548.514253 95.3090658 19.471981 95.3090658"></polygon>
            </g>
            <g id="Computer-stroke" transform="translate(86.000000, 619.000000)" stroke="#4D394B" stroke-width="22">
                <path d="M82.3956554,11 C79.4631991,11 76.7146175,12.4286654 75.0296654,14.8287147 L18.1641793,95.8280351 C13.2613957,102.811571 10.7841905,111.210292 11.1123162,119.736686 L12.2517908,149.346096 C12.4377557,154.178422 16.4092309,158 21.2451338,158 L765.750836,158 C770.587469,158 774.559269,154.177308 774.744251,149.344214 L775.877674,119.730816 C776.203863,111.208336 773.727369,102.813881 768.827498,95.8331691 L711.969662,14.8293722 C710.284762,12.4289402 707.535951,11 704.603211,11 L82.3956554,11 Z" id="stroke"></path>
                <path d="M627.000761,108 L20,108" id="Line" stroke-linecap="round"></path>
                <path d="M674,108 L658.60691,108" id="Line" stroke-linecap="round"></path>
                <path d="M773.067552,108 L704.60691,108" id="Line" stroke-linecap="round"></path>
            </g>
        </g>
    </g>
</svg>