<?xml version="1.0" encoding="UTF-8"?>
<svg width="960px" height="960px" viewBox="0 0 960 960" version="1.1" xmlns="http://www.w3.org/2000/svg" xmlns:xlink="http://www.w3.org/1999/xlink">
    <!-- Generator: Sketch 44.1 (41455) - http://www.bohemiancoding.com/sketch -->
    <title>no-local-bots</title>
    <desc>Created with Sketch.</desc>
    <defs>
        <path d="M60,0 L565,0 L565,7.10542736e-15 C598.137085,-5.7845044e-14 625,26.862915 625,60 L625,436 L0,436 L0,60 L-7.10542736e-15,60 C-1.11635499e-14,26.862915 26.862915,6.08718376e-15 60,0 Z" id="path-1"></path>
    </defs>
    <g id="Illustrations-app" stroke="none" stroke-width="1" fill="none" fill-rule="evenodd">
        <g id="no-local-bots">
            <circle id="Oval-3" fill="#4D394B" cx="480" cy="480" r="448"></circle>
            <circle id="Oval-4" fill="#4D394B" cx="544.5" cy="700.5" r="19.5"></circle>
            <path d="M164.430916,699.332685 L794.336469,699.332685 L794.336469,699.332685 C796.522788,699.332685 798.583546,700.354196 799.907369,702.094162 L863.056483,785.094162 L863.056483,785.094162 C865.397354,788.170885 864.800829,792.562713 861.724106,794.903585 C860.505581,795.830679 859.016696,796.332685 857.485583,796.332685 L101.269815,796.332685 L101.269815,796.332685 C97.4038215,796.332685 94.2698148,793.198678 94.2698148,789.332685 C94.2698148,787.801353 94.7719647,786.312267 95.6993027,785.093653 L158.860404,702.093653 L158.860404,702.093653 C160.18425,700.353987 162.244823,699.332685 164.430916,699.332685 Z" id="Shadow" fill-opacity="0.25" fill="#261D25"></path>
            <path d="M230,184 L731,184 L731,184 C764.137085,184 791,210.862915 791,244 L791,603 L170,603 L170,244 L170,244 C170,210.862915 196.862915,184 230,184 Z" id="Screen-fill" fill="#ECF0F1"></path>
            <g id="Screen-content" transform="translate(161.000000, 176.000000)">
                <mask id="mask-2" fill="white">
                    <use xlink:href="#path-1"></use>
                </mask>
                <use id="Screen" fill-opacity="0" fill="#D8D8D8" xlink:href="#path-1"></use>
                <g id="Bot" mask="url(#mask-2)">
                    <g transform="translate(186.000000, 78.000000)">
                        <path d="M140.56788,287.404944 C234.645858,284.711936 265.869229,271.471619 247.045036,259.909578 C228.220844,248.347537 204.984591,252.160624 130.220913,252.160624 C55.4572358,252.160624 14.0603606,252.976514 2.28240779,267.405677 C-9.49554498,281.834839 46.4899027,290.097953 140.56788,287.404944 Z" id="Shadow" fill-opacity="0.59" fill="#D4D8D9" transform="translate(126.500000, 269.734491) rotate(2.000000) translate(-126.500000, -269.734491) "></path>
                        <g id="Fill" stroke-width="1" fill="none" transform="translate(19.175287, 0.000000)">
                            <path d="M221.087989,234.019027 C214.276533,246.328651 165.756075,257.942623 111.658237,257.942623 C57.5603993,257.942623 13.1349009,242.71502 3.48445862,234.019027 C-6.16598367,225.323033 8.34248731,218.114144 8.34248731,218.114144 L8.34248731,95.9702233 C8.34248731,43.3403274 51.6498121,0 103.338425,0 L120.610414,0 C172.303378,0 215.606352,43.3380142 215.606352,95.9702233 L215.606352,218.114144 C215.606352,218.114144 227.899446,221.709403 221.087989,234.019027 Z" id="Rectangle" fill="#FF9F72"></path>
                            <path d="M112.050287,121.075882 C130.733288,121.075882 145.878853,105.929575 145.878853,87.2456576 C145.878853,68.5617404 130.733288,53.4154328 112.050287,53.4154328 C93.3672863,53.4154328 78.2217215,68.5617404 78.2217215,87.2456576 C78.2217215,105.929575 93.3672863,121.075882 112.050287,121.075882 Z" id="Oval" fill="#FFFFFF"></path>
                            <path d="M204.118505,53.7543257 C201.218467,52.840281 198.131589,52.3473945 194.929598,52.3473945 C178.065869,52.3473945 164.395115,66.0188185 164.395115,82.8833747 C164.395115,99.7479308 178.065869,113.419355 194.929598,113.419355 L194.929598,113.419355 C202.644711,113.419355 209.691523,110.557872 215.066721,105.838265" id="Oval" fill="#FFFFFF"></path>
                            <path d="M13.3418953,87.2678856 C13.3418953,87.2678856 29.6046568,35.4914738 53.3948126,20.0789674 C77.1849683,4.66646105 120.624849,6.05626244 120.624849,6.05626244 C120.624849,6.05626244 122.619707,30.7069476 94.9555943,43.7457562 C83.2104408,49.2815495 68.8642754,61.2534549 68.8642754,87.2678832 C68.8642754,113.282312 77.1537356,104.349965 77.1537356,139.936516 C77.1537356,148.649348 77.1537356,157.154536 77.1537356,174.491315 C77.1537356,191.828094 85.8778736,192.44154 85.8778736,209.581286 C85.8778736,226.721032 85.8778736,230.79736 85.8778736,230.79736 L16.0847701,218.114144 L13.3418953,87.2678856 Z" id="Rectangle-3" fill-opacity="0.696218297" fill="#858585"></path>
                            <path d="M0.172237431,221.606805 L11.5291195,214.576807 C11.5291195,214.576807 76.6846866,229.230897 100.670292,232.972951 C104.109679,233.509539 112.274651,230.691015 124.028354,232.972951 C132.952055,243.198464 124.796555,257.02136 124.796555,257.02136 L58.1005719,254.10983 L3.71653279,237.274271 L0.172237431,221.606805 Z" id="Rectangle-4" fill-opacity="0.696218297" fill="#858585"></path>
                        </g>
                        <g id="Stroke" stroke-width="1" fill="none" transform="translate(17.448276, 0.000000)">
                            <path d="M218.103448,218.114144 L209.391448,218.114144 L209.391448,95.9702233 C209.391448,48.2956464 169.693511,8.712 122.137931,8.712 L104.689655,8.712 C57.1377263,8.712 17.4361379,48.2986993 17.4361379,95.9702233 L17.4361379,218.114144 L8.72413793,218.114144 L8.72413793,95.9702233 C8.72413793,43.3403274 52.4734804,0 104.689655,0 L122.137931,0 C174.358501,0 218.103448,43.3380142 218.103448,95.9702233 L218.103448,218.114144 Z" id="Rectangle" fill="#4D394B" fill-rule="nonzero"></path>
                            <path d="M47.5664121,95.8534571 L31.840106,96.7037465 C33.4127929,96.574224 33.6696898,96.1609192 33.6696898,96.3611452 L33.6696898,120.576604 C33.6696898,120.918824 33.591776,120.788586 32.0062493,120.565673 L47.6890326,122.264781 C45.3861439,122.096405 44.8475515,122.967201 44.8475515,122.572578 L44.8475515,95.7747867 C44.8475515,95.1459342 44.7324415,94.6898495 44.6732838,94.5914347 C45.0568378,95.2295156 46.0238591,95.896295 47.3832563,95.8608127 L47.5664121,95.8534571 Z M52.3448276,95.7747867 L52.3448276,122.572578 C52.3448276,127.346709 50.0451388,131.070789 47.2130255,130.86372 L31.3042159,129.144138 C28.4699999,128.73865 26.1724138,124.887481 26.1724138,120.576604 L26.1724138,96.3611452 C26.1724138,92.0470674 28.4721026,88.3427081 31.3042159,88.1094625 L47.2130255,87.2467111 C50.0472415,87.1727338 52.3448276,91.0041983 52.3448276,95.7747867 Z" id="Rectangle-2" fill="#4D394B" fill-rule="nonzero"></path>
                            <path d="M39.2586207,212.906243 L39.2586207,196.418816 M39.2586207,178.975542 L39.2586207,170.293576 M39.2586207,152.746464 L39.2586207,125.65952 M39.2586207,87.2456576 C42.695585,50.5447735 66.1168122,18.3854882 98.4740264,4.93099847" id="Rectangle" stroke="#4D394B" stroke-width="8.712" stroke-linecap="round" stroke-linejoin="round"></path>
                            <path d="M51.8854326,224.784825 C48.8487957,224.159009 45.8664744,223.493102 42.9395918,222.789674 C35.3545706,220.966737 28.7170949,219.022963 23.0866807,217.092959 C19.8067173,215.968647 17.6512282,215.127316 16.6799095,214.704179 C10.4666522,211.997489 3.39553264,215.236099 0.886121975,221.937815 C-1.62328869,228.639531 1.37927227,236.266551 7.59252957,238.97324 C13.1957095,241.414161 23.3726458,244.902631 37.6621353,248.336877 C61.1900936,253.991439 87.8893758,257.37469 117.28893,257.37469 C146.769618,257.37469 172.062892,253.969586 193.183686,248.257132 C206.17225,244.744168 215.045491,241.127971 219.831585,238.51542 C225.810424,235.251794 228.204372,227.378261 225.178617,220.929391 C222.152862,214.480522 214.853197,211.898373 208.874358,215.161999 C208.258446,215.498202 206.65294,216.263297 204.052719,217.32299 C199.469172,219.190967 193.880833,221.084562 187.281639,222.869419 C168.0805,228.062672 144.768903,231.200993 117.28893,231.200993 C108.67868,231.200993 100.324355,230.892568 92.2402011,230.308318 M78.0759393,228.976566 C74.0988716,228.514379 70.1950544,227.984794 66.3664074,227.392206" id="Line" stroke="#4D394B" stroke-width="8.712" stroke-linecap="round" fill-rule="nonzero"></path>
                            <path d="M113.413793,117.787921 C130.280826,117.787921 143.954345,104.113731 143.954345,87.2456576 C143.954345,70.3775837 130.280826,56.7033945 113.413793,56.7033945 C96.54676,56.7033945 82.8732414,70.3775837 82.8732414,87.2456576 C82.8732414,104.113731 96.54676,117.787921 113.413793,117.787921 Z" id="Oval" stroke="#4D394B" stroke-width="8.712"></path>
                            <path d="M201.7712,57.2765554 C199.987114,56.8969978 198.154388,56.7033945 196.293103,56.7033945 C181.835174,56.7033945 170.114621,68.4245231 170.114621,82.8833747 C170.114621,97.3422263 181.835174,109.063355 196.293103,109.063355 C201.890953,109.063355 207.207219,107.304115 211.616397,104.113105 L201.7712,57.2765554 Z" id="Oval" stroke="#4D394B" stroke-width="8.712"></path>
                            <ellipse id="Oval-2" fill="#4D394B" cx="190.293103" cy="85.8833747" rx="4.36206897" ry="4.36228288"></ellipse>
                            <ellipse id="Oval-2" fill="#4D394B" cx="114.775862" cy="87.8833747" rx="4.36206897" ry="4.36228288"></ellipse>
                            <ellipse id="Oval-2" fill="#4D394B" cx="151.238952" cy="175.239454" rx="10.238952" ry="10.2394541"></ellipse>
                        </g>
                    </g>
                </g>
            </g>
            <polygon id="Screen-glair" fill-opacity="0.699999988" fill="#FFFFFF" points="170 204 461 204 311 603 170 603"></polygon>
            <path d="M178,592 L783,592 L783,236 C783,213.90861 765.09139,196 743,196 L218,196 C195.90861,196 178,213.90861 178,236 L178,592 Z" id="Screen" stroke="#4D394B" stroke-width="40"></path>
            <g id="Computer-fill" transform="translate(87.000000, 601.000000)">
                <path d="M786.257127,124.154533 L785.736203,137.76492 L785.736203,137.76492 C785.325133,148.505128 776.498908,157 765.750836,157 L21.2451338,157 L21.2451338,157 C10.4986829,157 1.67318261,148.507603 1.25992715,137.769101 L0.735990519,124.154533 L0.735990519,124.154533 C0.0642457073,106.699148 13.6700743,92.0042058 31.1254593,91.332461 C31.5307057,91.3168657 31.9362145,91.3090658 32.3417609,91.3090658 L754.644738,91.3090658 L754.644738,91.3090658 C772.116561,91.3090658 786.280273,105.472777 786.280273,122.944601 C786.280273,123.348022 786.272556,123.751407 786.257127,124.154533 Z" id="Rectangle-7" fill="#AFA9AF"></path>
                <path d="M564.514253,91.3090658 L522,147 L30.1127208,147 L30.1127208,147 C19.4196881,147 10.6181922,138.588973 10.1332949,127.906941 L9.73599052,119.154533 L9.73599052,119.154533 C9.06886754,104.458163 20.4418194,92.003591 35.1381894,91.336468 C35.5405748,91.3182023 35.9433227,91.3090658 36.3461224,91.3090658 L564.514253,91.3090658 Z" id="Rectangle-7" fill-opacity="0.5" fill="#7F797E"></path>
                <path d="M91.9127967,-4.54747351e-13 L696.086064,-4.54747351e-13 L696.086064,-5.40012479e-13 C702.332688,-5.74448664e-13 708.22057,2.91860431 712.002921,7.88993503 L778.514253,95.3090658 L9.47198104,95.3090658 L75.9970478,7.88847916 L75.9970478,7.88847916 C79.7794639,2.91800633 85.6668162,-4.55157865e-13 91.9127967,-4.61852778e-13 Z" id="Rectangle-7" fill="#CAC4C9"></path>
                <path d="M291.573668,55 L497.036484,55 L501.142355,67.431969 L501.142355,67.431969 C502.008355,70.0540875 500.584739,72.881766 497.96262,73.7477657 C497.45672,73.9148479 496.927367,74 496.394589,74 L291.564853,74 L291.564853,74 C288.803429,74 286.564853,71.7614237 286.564853,69 C286.564853,68.3885663 286.677001,67.7823179 286.895729,67.2113459 L291.573668,55 Z" id="Rectangle-7" fill="#B0A9B0"></path>
                <path d="M123.503903,21 L665.692982,21 L665.692982,21 C672.677606,21 679.156246,24.643793 682.783894,30.6124732 L692.988925,47.4031183 L692.988925,47.4031183 C694.423143,49.7628809 693.672841,52.8385099 691.313078,54.2727281 C690.5304,54.7484247 689.632096,55 688.716197,55 L101.44961,55 L101.44961,55 C98.6881859,55 96.4496096,52.7614237 96.4496096,50 C96.4496096,49.1586695 96.6619085,48.3309418 97.0668457,47.5934712 L105.972847,31.3738849 L105.972847,31.3738849 C109.485819,24.9760693 116.205066,21 123.503903,21 Z" id="Rectangle-7" fill="#B0A9B0"></path>
                <polygon id="Rectangle-7" fill-opacity="0.5" fill="#7F797E" points="82 -4.54747351e-13 706 8 548.514253 95.3090658 19.471981 95.3090658"></polygon>
            </g>
            <g id="Computer-stroke" transform="translate(87.000000, 589.000000)" stroke="#4D394B" stroke-width="22">
                <path d="M82.3956554,11 C79.4631991,11 76.7146175,12.4286654 75.0296654,14.8287147 L18.1641793,95.8280351 C13.2613957,102.811571 10.7841905,111.210292 11.1123162,119.736686 L12.2517908,149.346096 C12.4377557,154.178422 16.4092309,158 21.2451338,158 L765.750836,158 C770.587469,158 774.559269,154.177308 774.744251,149.344214 L775.877674,119.730816 C776.203863,111.208336 773.727369,102.813881 768.827498,95.8331691 L711.969662,14.8293722 C710.284762,12.4289402 707.535951,11 704.603211,11 L82.3956554,11 Z" id="stroke"></path>
                <path d="M627.000761,108 L20,108" id="Line" stroke-linecap="round"></path>
                <path d="M674,108 L658.60691,108" id="Line" stroke-linecap="round"></path>
                <path d="M773.067552,108 L704.60691,108" id="Line" stroke-linecap="round"></path>
            </g>
            <g id="Bot:-Speechbubbel" transform="translate(94.000000, 4.000000)">
                <path d="M156.766773,325.867515 C162.78875,327.498531 325.683039,277.765351 303.107577,157.547286 C298.545617,88.2550552 240.827151,34.0635268 170.980323,34.0635268 C97.8498493,34.0635268 38.565887,93.2783529 38.565887,166.323543 C38.565887,239.368732 94.3202063,298.639605 177.87179,298.639605 C181.516916,304.911231 174.831377,313.847269 156.766773,325.867515 Z" id="Bubble" stroke="#4D394B" stroke-width="12.8" fill="#FAFEFF" stroke-linecap="round" stroke-linejoin="round" transform="translate(171.909451, 179.984904) scale(-1, 1) rotate(18.000000) translate(-171.909451, -179.984904) "></path>
                <path d="M92.215,158.312 C92.0083323,159.01467 91.7396683,159.644997 91.409,160.203 C91.0783317,160.761003 90.7270019,161.081333 90.355,161.164 C89.5696627,161.370668 88.9703354,161.246669 88.557,160.792 C88.1436646,160.337331 87.9783329,159.75867 88.061,159.056 C88.3916683,156.575988 88.9289963,153.96168 89.673,151.213 C90.4170037,148.46432 91.284995,145.71568 92.277,142.967 C93.269005,140.21832 94.3539941,137.552346 95.532,134.969 C96.7100059,132.385654 97.9189938,130.040011 99.159,127.932 C99.3656677,127.601332 99.603332,127.405 99.872,127.343 C100.140668,127.281 100.378332,127.291333 100.585,127.374 C100.791668,127.208666 101.039665,127.064001 101.329,126.94 C101.618335,126.815999 101.907665,126.754 102.197,126.754 C102.321001,126.754 102.455333,126.774666 102.6,126.816 C102.744667,126.857334 102.899666,126.981332 103.065,127.188 C103.230334,127.394668 103.426666,127.694331 103.654,128.087 C103.881334,128.479669 104.160332,129.047996 104.491,129.792 C105.06967,131.900011 105.74133,134.069989 106.506,136.302 C107.27067,138.534011 108.066329,140.765989 108.893,142.998 C109.017001,142.956666 109.130666,142.925667 109.234,142.905 C109.337334,142.884333 109.450999,142.853334 109.575,142.812 C110.029669,142.770666 110.54633,142.791333 111.125,142.874 C111.70367,142.956667 112.096332,143.245998 112.303,143.742 C112.551001,144.362003 112.509668,144.899331 112.179,145.354 C111.848332,145.808669 111.249004,146.263331 110.381,146.718 C110.918336,148.040673 111.455664,149.332327 111.993,150.593 C112.530336,151.853673 113.08833,153.083327 113.667,154.282 C113.708334,154.488668 113.770333,154.808998 113.853,155.243 C113.935667,155.677002 113.987333,156.110998 114.008,156.545 C114.028667,156.979002 113.997667,157.381998 113.915,157.754 C113.832333,158.126002 113.667001,158.373999 113.419,158.498 C113.129665,158.622001 112.830002,158.601334 112.52,158.436 C112.209998,158.270666 111.910335,158.053668 111.621,157.785 C111.331665,157.516332 111.073334,157.227002 110.846,156.917 C110.618666,156.606998 110.443001,156.328001 110.319,156.08 C109.61633,154.715993 108.94467,153.341674 108.304,151.957 C107.66333,150.572326 107.05367,149.17734 106.475,147.772 C104.738991,148.102668 102.84801,148.391999 100.802,148.64 C98.7559898,148.888001 96.7410099,149.053333 94.757,149.136 C94.3023311,150.706675 93.8580022,152.246326 93.424,153.755 C92.9899978,155.263674 92.5870019,156.782659 92.215,158.312 Z M101.019,132.272 C99.1176572,136.529355 97.4643404,140.786645 96.059,145.044 C98.8283472,144.961333 101.783651,144.610003 104.925,143.99 C103.436993,140.228648 102.135006,136.322687 101.019,132.272 Z M123.215,129.234 C123.421668,133.739356 123.772998,138.399643 124.269,143.215 C124.765002,148.030357 125.30233,152.628645 125.881,157.01 C126.005001,158.828676 125.509006,159.758666 124.393,159.8 C124.144999,159.8 123.897001,159.707001 123.649,159.521 C123.400999,159.334999 123.173668,159.097335 122.967,158.808 C122.760332,158.518665 122.564001,158.208668 122.378,157.878 C122.191999,157.547332 122.078334,157.258001 122.037,157.01 C121.706332,154.901989 121.396335,152.670012 121.107,150.314 C120.817665,147.957988 120.559334,145.591679 120.332,143.215 C120.104666,140.838321 119.908334,138.513345 119.743,136.24 C119.577666,133.966655 119.474334,131.879343 119.433,129.978 C119.515667,128.985995 119.660332,128.149003 119.867,127.467 C120.073668,126.784997 120.507663,126.464666 121.169,126.506 C121.87167,126.547334 122.377998,126.826331 122.688,127.343 C122.998002,127.859669 123.173666,128.489996 123.215,129.234 Z M136.173,129.234 C136.379668,133.739356 136.730998,138.399643 137.227,143.215 C137.723002,148.030357 138.26033,152.628645 138.839,157.01 C138.963001,158.828676 138.467006,159.758666 137.351,159.8 C137.102999,159.8 136.855001,159.707001 136.607,159.521 C136.358999,159.334999 136.131668,159.097335 135.925,158.808 C135.718332,158.518665 135.522001,158.208668 135.336,157.878 C135.149999,157.547332 135.036334,157.258001 134.995,157.01 C134.664332,154.901989 134.354335,152.670012 134.065,150.314 C133.775665,147.957988 133.517334,145.591679 133.29,143.215 C133.062666,140.838321 132.866334,138.513345 132.701,136.24 C132.535666,133.966655 132.432334,131.879343 132.391,129.978 C132.473667,128.985995 132.618332,128.149003 132.825,127.467 C133.031668,126.784997 133.465663,126.464666 134.127,126.506 C134.82967,126.547334 135.335998,126.826331 135.646,127.343 C135.956002,127.859669 136.131666,128.489996 136.173,129.234 Z M176.783,135.31 C176.948334,136.467339 177.082666,137.696993 177.186,138.999 C177.289334,140.301007 177.372,141.613327 177.434,142.936 C177.496,144.258673 177.527,145.539994 177.527,146.78 C177.527,148.020006 177.506334,149.135995 177.465,150.128 C178.787673,151.037338 179.583332,151.84333 179.852,152.546 C180.120668,153.24867 180.151668,153.868664 179.945,154.406 C179.696999,155.150004 179.25267,155.532333 178.612,155.553 C177.97133,155.573667 177.237671,155.356669 176.411,154.902 C175.83233,155.315335 175.171004,155.759664 174.427,156.235 C173.682996,156.710336 172.897671,157.164998 172.071,157.599 C171.244329,158.033002 170.417671,158.415332 169.591,158.746 C168.764329,159.076668 167.99967,159.303999 167.297,159.428 C165.974327,159.634668 164.786005,159.38667 163.732,158.684 C162.677995,157.98133 161.965002,156.92734 161.593,155.522 C161.344999,154.571329 161.282999,153.589672 161.407,152.577 C161.531001,151.564328 161.840998,150.593005 162.337,149.663 C162.833002,148.732995 163.504662,147.896004 164.352,147.152 C165.199338,146.407996 166.201661,145.829335 167.359,145.416 C167.648335,145.291999 168.051331,145.188667 168.568,145.106 C169.084669,145.023333 169.621997,144.992333 170.18,145.013 C170.738003,145.033667 171.30633,145.147332 171.885,145.354 C172.46367,145.560668 173.000998,145.911998 173.497,146.408 C173.497,145.70533 173.486667,144.930338 173.466,144.083 C173.445333,143.235662 173.414334,142.378004 173.373,141.51 C173.331666,140.641996 173.28,139.82567 173.218,139.061 C173.156,138.29633 173.083667,137.645336 173.001,137.108 C172.918333,136.487997 172.680669,136.105667 172.288,135.961 C171.895331,135.816333 171.40967,135.847332 170.831,136.054 C169.838995,136.384668 168.681673,137.025329 167.359,137.976 C166.036327,138.926671 164.775673,139.939328 163.577,141.014 C163.204998,141.386002 162.781336,141.551334 162.306,141.51 C161.830664,141.468666 161.427668,141.282668 161.097,140.952 C160.766332,140.621332 160.580334,140.239002 160.539,139.805 C160.497666,139.370998 160.662998,138.906002 161.035,138.41 C161.73767,137.665996 162.522996,136.901337 163.391,136.116 C164.259004,135.330663 165.168329,134.61767 166.119,133.977 C167.069671,133.33633 168.040995,132.809335 169.033,132.396 C170.025005,131.982665 171.016995,131.755334 172.009,131.714 C173.455674,131.672666 174.571663,131.992997 175.357,132.675 C176.142337,133.357003 176.617666,134.235328 176.783,135.31 Z M169.591,148.64 C169.053664,148.764001 168.485336,149.022331 167.886,149.415 C167.286664,149.807669 166.749336,150.282997 166.274,150.841 C165.798664,151.399003 165.447334,152.018997 165.22,152.701 C164.992666,153.383003 164.982332,154.054663 165.189,154.716 C165.271667,154.964001 165.447332,155.149999 165.716,155.274 C165.984668,155.398001 166.284332,155.418667 166.615,155.336 C167.607005,155.129332 168.733327,154.726336 169.994,154.127 C171.254673,153.527664 172.256996,152.87667 173.001,152.174 C173.001,151.925999 172.877001,151.605669 172.629,151.213 C172.380999,150.820331 172.091668,150.427669 171.761,150.035 C171.430332,149.642331 171.068669,149.301335 170.676,149.012 C170.283331,148.722665 169.921668,148.598666 169.591,148.64 Z M188.749,129.234 C188.955668,133.739356 189.306998,138.399643 189.803,143.215 C190.299002,148.030357 190.83633,152.628645 191.415,157.01 C191.539001,158.828676 191.043006,159.758666 189.927,159.8 C189.678999,159.8 189.431001,159.707001 189.183,159.521 C188.934999,159.334999 188.707668,159.097335 188.501,158.808 C188.294332,158.518665 188.098001,158.208668 187.912,157.878 C187.725999,157.547332 187.612334,157.258001 187.571,157.01 C187.240332,154.901989 186.930335,152.670012 186.641,150.314 C186.351665,147.957988 186.093334,145.591679 185.866,143.215 C185.638666,140.838321 185.442334,138.513345 185.277,136.24 C185.111666,133.966655 185.008334,131.879343 184.967,129.978 C185.049667,128.985995 185.194332,128.149003 185.401,127.467 C185.607668,126.784997 186.041663,126.464666 186.703,126.506 C187.40567,126.547334 187.911998,126.826331 188.222,127.343 C188.532002,127.859669 188.707666,128.489996 188.749,129.234 Z M210.759,136.612 C211.999006,137.066669 213.042662,137.748662 213.89,138.658 C214.737338,139.567338 215.388331,140.590328 215.843,141.727 C216.297669,142.863672 216.556,144.031327 216.618,145.23 C216.68,146.428673 216.545668,147.544661 216.215,148.578 C215.760331,149.735339 215.18167,150.871994 214.479,151.988 C213.77633,153.104006 212.970338,154.095996 212.061,154.964 C211.151662,155.832004 210.118339,156.534664 208.961,157.072 C207.803661,157.609336 206.52234,157.878 205.117,157.878 C203.422325,157.878 201.996339,157.485337 200.839,156.7 C199.681661,155.914663 198.772337,154.902006 198.111,153.662 C197.449663,152.421994 197.026001,151.016675 196.84,149.446 C196.653999,147.875325 196.684999,146.304675 196.933,144.734 C197.098334,143.576661 197.377331,142.450339 197.77,141.355 C198.162669,140.259661 198.668997,139.288338 199.289,138.441 C199.909003,137.593662 200.621996,136.901336 201.428,136.364 C202.234004,135.826664 203.153661,135.558 204.187,135.558 C204.76567,135.558 205.488996,135.671666 206.357,135.899 C207.225004,136.126334 208.030996,136.446665 208.775,136.86 C209.312336,136.363998 209.973663,136.281332 210.759,136.612 Z M208.403,141.138 C207.948331,140.848665 207.421336,140.466336 206.822,139.991 C206.222664,139.515664 205.695669,139.278 205.241,139.278 C204.744998,139.278 204.259336,139.505331 203.784,139.96 C203.308664,140.414669 202.895335,140.941664 202.544,141.541 C202.192665,142.140336 201.893001,142.749997 201.645,143.37 C201.396999,143.990003 201.231667,144.485998 201.149,144.858 C201.024999,145.478003 200.942334,146.221996 200.901,147.09 C200.859666,147.958004 200.921666,148.815662 201.087,149.663 C201.252334,150.510338 201.572664,151.274997 202.048,151.957 C202.523336,152.639003 203.236329,153.124665 204.187,153.414 C204.76567,153.579334 205.447663,153.569001 206.233,153.383 C207.018337,153.196999 207.79333,152.856002 208.558,152.36 C209.32267,151.863998 210.045997,151.202671 210.728,150.376 C211.410003,149.549329 211.936998,148.598672 212.309,147.524 C212.722335,146.325327 212.732669,145.075007 212.34,143.773 C211.947331,142.470993 211.151673,141.53067 209.953,140.952 C209.663665,141.158668 209.374335,141.262 209.085,141.262 C208.795665,141.262 208.568334,141.220667 208.403,141.138 Z M225.515,137.79 C225.639001,138.410003 225.773333,139.10233 225.918,139.867 C226.062667,140.63167 226.217666,141.416996 226.383,142.223 C226.548334,143.029004 226.692999,143.845329 226.817,144.672 C226.941001,145.498671 227.044333,146.283996 227.127,147.028 C227.623002,145.953328 228.16033,144.816673 228.739,143.618 C229.31767,142.419327 229.947997,141.313672 230.63,140.301 C231.312003,139.288328 232.03533,138.451337 232.8,137.79 C233.56467,137.128663 234.401662,136.798 235.311,136.798 C236.675007,136.798 237.821995,137.293995 238.752,138.286 C239.682005,139.278005 240.46733,140.507659 241.108,141.975 C241.74867,143.442341 242.254998,144.981992 242.627,146.594 C242.999002,148.206008 243.308999,149.631994 243.557,150.872 C243.805001,151.988006 243.309006,152.814664 242.069,153.352 C241.49033,153.641335 241.056335,153.682668 240.767,153.476 C240.477665,153.269332 240.312334,153.062668 240.271,152.856 C240.064332,152.359998 239.806002,151.492006 239.496,150.252 C239.185998,149.011994 238.834669,147.75134 238.442,146.47 C238.049331,145.18866 237.605002,144.072671 237.109,143.122 C236.612998,142.171329 236.055003,141.737333 235.435,141.82 C234.690996,141.861334 234.02967,142.419328 233.451,143.494 C232.954998,144.362004 232.448669,145.322995 231.932,146.377 C231.415331,147.431005 230.909002,148.505661 230.413,149.601 C229.916998,150.696339 229.431336,151.791661 228.956,152.887 C228.480664,153.982339 228.036335,154.984662 227.623,155.894 C227.333665,156.183335 226.972002,156.379666 226.538,156.483 C226.103998,156.586334 225.659669,156.555334 225.205,156.39 C224.791665,156.265999 224.461001,156.059335 224.213,155.77 C223.964999,155.480665 223.841,155.191335 223.841,154.902 C223.468998,151.677984 223.086669,148.743347 222.694,146.098 C222.301331,143.452653 221.795003,140.745347 221.175,137.976 C220.885665,137.025329 220.833999,136.271003 221.02,135.713 C221.206001,135.154997 221.815662,134.937999 222.849,135.062 C224.295674,135.310001 225.184332,136.219325 225.515,137.79 Z M262.839,143.68 C261.226992,144.630671 259.491009,145.364331 257.631,145.881 C255.770991,146.397669 253.766344,146.656 251.617,146.656 C251.699667,148.102674 252.112996,149.249662 252.857,150.097 C253.601004,150.944338 254.530994,151.450666 255.647,151.616 C256.308337,151.698667 256.979997,151.678001 257.662,151.554 C258.344003,151.429999 258.984664,151.233668 259.584,150.965 C260.183336,150.696332 260.730998,150.396668 261.227,150.066 C261.723002,149.735332 262.156998,149.404668 262.529,149.074 C262.901002,148.743332 263.293665,148.526334 263.707,148.423 C264.120335,148.319666 264.430332,148.309333 264.637,148.392 C265.21567,148.598668 265.422334,149.218661 265.257,150.252 C264.595663,151.574673 263.645006,152.700995 262.405,153.631 C261.164994,154.561005 259.780341,155.149999 258.251,155.398 C256.928327,155.646001 255.56434,155.584002 254.159,155.212 C252.75366,154.839998 251.493006,154.116672 250.377,153.042 C249.426329,152.091329 248.703002,150.97534 248.207,149.694 C247.710998,148.41266 247.401001,147.090007 247.277,145.726 C247.152999,144.44466 247.266665,143.225339 247.618,142.068 C247.969335,140.910661 248.516996,139.887671 249.261,138.999 C250.005004,138.110329 250.934994,137.37667 252.051,136.798 C253.167006,136.21933 254.468993,135.888667 255.957,135.806 C257.734342,135.681999 259.346326,136.012663 260.793,136.798 C262.239674,137.583337 263.25233,138.67866 263.831,140.084 C264.161668,140.869337 264.254667,141.55133 264.11,142.13 C263.965333,142.70867 263.54167,143.225331 262.839,143.68 Z M255.709,139.464 C255.295665,139.546667 254.851336,139.691332 254.376,139.898 C253.900664,140.104668 253.466669,140.362998 253.074,140.673 C252.681331,140.983002 252.330002,141.334331 252.02,141.727 C251.709998,142.119669 251.534334,142.563998 251.493,143.06 C252.19567,143.06 252.970662,142.998001 253.818,142.874 C254.665338,142.749999 255.491996,142.595001 256.298,142.409 C257.104004,142.222999 257.847997,142.006001 258.53,141.758 C259.212003,141.509999 259.780331,141.241335 260.235,140.952 C259.904332,140.166663 259.294671,139.681001 258.406,139.495 C257.517329,139.308999 256.618338,139.298666 255.709,139.464 Z M123.122,192.31 C123.287334,193.467339 123.421666,194.696993 123.525,195.999 C123.628334,197.301007 123.711,198.613327 123.773,199.936 C123.835,201.258673 123.866,202.539994 123.866,203.78 C123.866,205.020006 123.845334,206.135995 123.804,207.128 C125.126673,208.037338 125.922332,208.84333 126.191,209.546 C126.459668,210.24867 126.490668,210.868664 126.284,211.406 C126.035999,212.150004 125.59167,212.532333 124.951,212.553 C124.31033,212.573667 123.576671,212.356669 122.75,211.902 C122.17133,212.315335 121.510004,212.759664 120.766,213.235 C120.021996,213.710336 119.236671,214.164998 118.41,214.599 C117.583329,215.033002 116.756671,215.415332 115.93,215.746 C115.103329,216.076668 114.33867,216.303999 113.636,216.428 C112.313327,216.634668 111.125005,216.38667 110.071,215.684 C109.016995,214.98133 108.304002,213.92734 107.932,212.522 C107.683999,211.571329 107.621999,210.589672 107.746,209.577 C107.870001,208.564328 108.179998,207.593005 108.676,206.663 C109.172002,205.732995 109.843662,204.896004 110.691,204.152 C111.538338,203.407996 112.540661,202.829335 113.698,202.416 C113.987335,202.291999 114.390331,202.188667 114.907,202.106 C115.423669,202.023333 115.960997,201.992333 116.519,202.013 C117.077003,202.033667 117.64533,202.147332 118.224,202.354 C118.80267,202.560668 119.339998,202.911998 119.836,203.408 C119.836,202.70533 119.825667,201.930338 119.805,201.083 C119.784333,200.235662 119.753334,199.378004 119.712,198.51 C119.670666,197.641996 119.619,196.82567 119.557,196.061 C119.495,195.29633 119.422667,194.645336 119.34,194.108 C119.257333,193.487997 119.019669,193.105667 118.627,192.961 C118.234331,192.816333 117.74867,192.847332 117.17,193.054 C116.177995,193.384668 115.020673,194.025329 113.698,194.976 C112.375327,195.926671 111.114673,196.939328 109.916,198.014 C109.543998,198.386002 109.120336,198.551334 108.645,198.51 C108.169664,198.468666 107.766668,198.282668 107.436,197.952 C107.105332,197.621332 106.919334,197.239002 106.878,196.805 C106.836666,196.370998 107.001998,195.906002 107.374,195.41 C108.07667,194.665996 108.861996,193.901337 109.73,193.116 C110.598004,192.330663 111.507329,191.61767 112.458,190.977 C113.408671,190.33633 114.379995,189.809335 115.372,189.396 C116.364005,188.982665 117.355995,188.755334 118.348,188.714 C119.794674,188.672666 120.910663,188.992997 121.696,189.675 C122.481337,190.357003 122.956666,191.235328 123.122,192.31 Z M115.93,205.64 C115.392664,205.764001 114.824336,206.022331 114.225,206.415 C113.625664,206.807669 113.088336,207.282997 112.613,207.841 C112.137664,208.399003 111.786334,209.018997 111.559,209.701 C111.331666,210.383003 111.321332,211.054663 111.528,211.716 C111.610667,211.964001 111.786332,212.149999 112.055,212.274 C112.323668,212.398001 112.623332,212.418667 112.954,212.336 C113.946005,212.129332 115.072327,211.726336 116.333,211.127 C117.593673,210.527664 118.595996,209.87667 119.34,209.174 C119.34,208.925999 119.216001,208.605669 118.968,208.213 C118.719999,207.820331 118.430668,207.427669 118.1,207.035 C117.769332,206.642331 117.407669,206.301335 117.015,206.012 C116.622331,205.722665 116.260668,205.598666 115.93,205.64 Z M141.164,198.138 C141.494668,198.592669 141.814998,199.160997 142.125,199.843 C142.435002,200.525003 142.672666,201.21733 142.838,201.92 C143.086001,203.036006 143.364998,204.244993 143.675,205.547 C143.985002,206.849007 144.294998,208.20266 144.605,209.608 C144.915002,211.01334 145.204332,212.439326 145.473,213.886 C145.741668,215.332674 145.979332,216.717327 146.186,218.04 C146.434001,219.858676 146.299669,221.604992 145.783,223.279 C145.266331,224.953008 144.408673,226.451327 143.21,227.774 C142.011327,229.096673 140.523342,230.150663 138.746,230.936 C136.968658,231.721337 134.964011,232.155333 132.732,232.238 C132.235998,232.196666 131.719336,231.959002 131.182,231.525 C130.644664,231.090998 130.376,230.646669 130.376,230.192 C130.334666,229.737331 130.551664,229.375668 131.027,229.107 C131.502336,228.838332 131.987998,228.662667 132.484,228.58 C133.352004,228.497333 134.250995,228.321668 135.181,228.053 C136.111005,227.784332 136.989329,227.402002 137.816,226.906 C138.642671,226.409998 139.396997,225.81067 140.079,225.108 C140.761003,224.40533 141.287998,223.578671 141.66,222.628 C141.949335,221.883996 142.094,220.964339 142.094,219.869 C142.094,218.773661 142.021667,217.688672 141.877,216.614 C141.732333,215.539328 141.546334,214.516338 141.319,213.545 C141.091666,212.573662 140.895334,211.840002 140.73,211.344 C140.440665,211.633335 140.079002,211.943332 139.645,212.274 C139.210998,212.604668 138.725336,212.914665 138.188,213.204 C137.650664,213.493335 137.06167,213.720666 136.421,213.886 C135.78033,214.051334 135.129337,214.113334 134.468,214.072 C133.76533,214.030666 133.114336,213.782669 132.515,213.328 C131.915664,212.873331 131.388669,212.284337 130.934,211.561 C130.479331,210.837663 130.117668,210.000671 129.849,209.05 C129.580332,208.099329 129.446,207.107338 129.446,206.074 C129.528667,203.593988 130.158994,201.39301 131.337,199.471 C132.515006,197.54899 134.405987,196.050672 137.01,194.976 C137.216668,194.934666 137.495665,194.893334 137.847,194.852 C138.198335,194.810666 138.559998,194.800333 138.932,194.821 C139.304002,194.841667 139.665665,194.893333 140.017,194.976 C140.368335,195.058667 140.667999,195.182666 140.916,195.348 C141.370669,195.678668 141.598,196.153997 141.598,196.774 C141.598,197.394003 141.453335,197.848665 141.164,198.138 Z M133.352,206.632 C133.352,207.086669 133.393333,207.592997 133.476,208.151 C133.558667,208.709003 133.827331,209.111999 134.282,209.36 C134.778002,209.649335 135.387663,209.690668 136.111,209.484 C136.834337,209.277332 137.505997,208.926002 138.126,208.43 C138.70467,207.975331 139.086999,207.469003 139.273,206.911 C139.459001,206.352997 139.448668,205.598671 139.242,204.648 C139.035332,203.697329 138.808001,202.705338 138.56,201.672 C138.311999,200.638662 138.146667,199.708671 138.064,198.882 C137.567998,199.130001 137.041003,199.481331 136.483,199.936 C135.924997,200.390669 135.418669,200.958997 134.964,201.641 C134.509331,202.323003 134.127002,203.077329 133.817,203.904 C133.506998,204.730671 133.352,205.639995 133.352,206.632 Z M166.398,192.31 C166.563334,193.467339 166.697666,194.696993 166.801,195.999 C166.904334,197.301007 166.987,198.613327 167.049,199.936 C167.111,201.258673 167.142,202.539994 167.142,203.78 C167.142,205.020006 167.121334,206.135995 167.08,207.128 C168.402673,208.037338 169.198332,208.84333 169.467,209.546 C169.735668,210.24867 169.766668,210.868664 169.56,211.406 C169.311999,212.150004 168.86767,212.532333 168.227,212.553 C167.58633,212.573667 166.852671,212.356669 166.026,211.902 C165.44733,212.315335 164.786004,212.759664 164.042,213.235 C163.297996,213.710336 162.512671,214.164998 161.686,214.599 C160.859329,215.033002 160.032671,215.415332 159.206,215.746 C158.379329,216.076668 157.61467,216.303999 156.912,216.428 C155.589327,216.634668 154.401005,216.38667 153.347,215.684 C152.292995,214.98133 151.580002,213.92734 151.208,212.522 C150.959999,211.571329 150.897999,210.589672 151.022,209.577 C151.146001,208.564328 151.455998,207.593005 151.952,206.663 C152.448002,205.732995 153.119662,204.896004 153.967,204.152 C154.814338,203.407996 155.816661,202.829335 156.974,202.416 C157.263335,202.291999 157.666331,202.188667 158.183,202.106 C158.699669,202.023333 159.236997,201.992333 159.795,202.013 C160.353003,202.033667 160.92133,202.147332 161.5,202.354 C162.07867,202.560668 162.615998,202.911998 163.112,203.408 C163.112,202.70533 163.101667,201.930338 163.081,201.083 C163.060333,200.235662 163.029334,199.378004 162.988,198.51 C162.946666,197.641996 162.895,196.82567 162.833,196.061 C162.771,195.29633 162.698667,194.645336 162.616,194.108 C162.533333,193.487997 162.295669,193.105667 161.903,192.961 C161.510331,192.816333 161.02467,192.847332 160.446,193.054 C159.453995,193.384668 158.296673,194.025329 156.974,194.976 C155.651327,195.926671 154.390673,196.939328 153.192,198.014 C152.819998,198.386002 152.396336,198.551334 151.921,198.51 C151.445664,198.468666 151.042668,198.282668 150.712,197.952 C150.381332,197.621332 150.195334,197.239002 150.154,196.805 C150.112666,196.370998 150.277998,195.906002 150.65,195.41 C151.35267,194.665996 152.137996,193.901337 153.006,193.116 C153.874004,192.330663 154.783329,191.61767 155.734,190.977 C156.684671,190.33633 157.655995,189.809335 158.648,189.396 C159.640005,188.982665 160.631995,188.755334 161.624,188.714 C163.070674,188.672666 164.186663,188.992997 164.972,189.675 C165.757337,190.357003 166.232666,191.235328 166.398,192.31 Z M159.206,205.64 C158.668664,205.764001 158.100336,206.022331 157.501,206.415 C156.901664,206.807669 156.364336,207.282997 155.889,207.841 C155.413664,208.399003 155.062334,209.018997 154.835,209.701 C154.607666,210.383003 154.597332,211.054663 154.804,211.716 C154.886667,211.964001 155.062332,212.149999 155.331,212.274 C155.599668,212.398001 155.899332,212.418667 156.23,212.336 C157.222005,212.129332 158.348327,211.726336 159.609,211.127 C160.869673,210.527664 161.871996,209.87667 162.616,209.174 C162.616,208.925999 162.492001,208.605669 162.244,208.213 C161.995999,207.820331 161.706668,207.427669 161.376,207.035 C161.045332,206.642331 160.683669,206.301335 160.291,206.012 C159.898331,205.722665 159.536668,205.598666 159.206,205.64 Z M183.572,189.954 C183.489333,190.367335 183.200002,190.594666 182.704,190.636 C182.207998,190.677334 181.794668,190.698 181.464,190.698 C180.430661,190.739334 179.366339,190.842666 178.271,191.008 C177.175661,191.173334 176.028673,191.421332 174.83,191.752 C174.333998,191.917334 173.79667,191.855335 173.218,191.566 C172.63933,191.276665 172.288001,190.698004 172.164,189.83 C172.164,189.499332 172.287999,189.230668 172.536,189.024 C172.784001,188.817332 173.073332,188.631334 173.404,188.466 C173.941336,188.217999 174.581996,188.001001 175.326,187.815 C176.070004,187.628999 176.82433,187.494667 177.589,187.412 C178.35367,187.329333 179.08733,187.298333 179.79,187.319 C180.49267,187.339667 181.071331,187.411999 181.526,187.536 C182.187337,187.742668 182.714331,188.052665 183.107,188.466 C183.499669,188.879335 183.654667,189.37533 183.572,189.954 Z M182.146,210.6 C182.435335,211.261337 182.590333,211.97433 182.611,212.739 C182.631667,213.50367 182.414669,214.030665 181.96,214.32 C181.38133,214.692002 180.761337,214.671335 180.1,214.258 C179.438663,213.844665 178.942668,213.28667 178.612,212.584 C178.157331,211.715996 177.806001,210.651673 177.558,209.391 C177.309999,208.130327 177.124001,206.880006 177,205.64 C176.875999,204.399994 176.803667,203.242672 176.783,202.168 C176.762333,201.093328 176.752,200.287336 176.752,199.75 C176.793334,199.17133 176.958665,198.634002 177.248,198.138 C177.537335,197.641998 177.909331,197.352667 178.364,197.27 C179.108004,197.311334 179.707331,197.65233 180.162,198.293 C180.616669,198.93367 180.823334,199.729329 180.782,200.68 C180.782,201.424004 180.802666,202.250662 180.844,203.16 C180.885334,204.069338 180.967999,204.978662 181.092,205.888 C181.216001,206.797338 181.360666,207.675662 181.526,208.523 C181.691334,209.370338 181.897999,210.062664 182.146,210.6 Z M192.128,194.79 C192.252001,195.410003 192.386333,196.10233 192.531,196.867 C192.675667,197.63167 192.830666,198.416996 192.996,199.223 C193.161334,200.029004 193.305999,200.845329 193.43,201.672 C193.554001,202.498671 193.657333,203.283996 193.74,204.028 C194.236002,202.953328 194.77333,201.816673 195.352,200.618 C195.93067,199.419327 196.560997,198.313672 197.243,197.301 C197.925003,196.288328 198.64833,195.451337 199.413,194.79 C200.17767,194.128663 201.014662,193.798 201.924,193.798 C203.288007,193.798 204.434995,194.293995 205.365,195.286 C206.295005,196.278005 207.08033,197.507659 207.721,198.975 C208.36167,200.442341 208.867998,201.981992 209.24,203.594 C209.612002,205.206008 209.921999,206.631994 210.17,207.872 C210.418001,208.988006 209.922006,209.814664 208.682,210.352 C208.10333,210.641335 207.669335,210.682668 207.38,210.476 C207.090665,210.269332 206.925334,210.062668 206.884,209.856 C206.677332,209.359998 206.419002,208.492006 206.109,207.252 C205.798998,206.011994 205.447669,204.75134 205.055,203.47 C204.662331,202.18866 204.218002,201.072671 203.722,200.122 C203.225998,199.171329 202.668003,198.737333 202.048,198.82 C201.303996,198.861334 200.64267,199.419328 200.064,200.494 C199.567998,201.362004 199.061669,202.322995 198.545,203.377 C198.028331,204.431005 197.522002,205.505661 197.026,206.601 C196.529998,207.696339 196.044336,208.791661 195.569,209.887 C195.093664,210.982339 194.649335,211.984662 194.236,212.894 C193.946665,213.183335 193.585002,213.379666 193.151,213.483 C192.716998,213.586334 192.272669,213.555334 191.818,213.39 C191.404665,213.265999 191.074001,213.059335 190.826,212.77 C190.577999,212.480665 190.454,212.191335 190.454,211.902 C190.081998,208.677984 189.699669,205.743347 189.307,203.098 C188.914331,200.452653 188.408003,197.745347 187.788,194.976 C187.498665,194.025329 187.446999,193.271003 187.633,192.713 C187.819001,192.154997 188.428662,191.937999 189.462,192.062 C190.908674,192.310001 191.797332,193.219325 192.128,194.79 Z M219.284,214.258 C219.490668,215.746007 218.870674,216.593332 217.424,216.8 C216.679996,216.882667 216.070336,216.676002 215.595,216.18 C215.119664,215.683998 214.820001,215.08467 214.696,214.382 C214.571999,213.637996 214.623666,212.91467 214.851,212.212 C215.078334,211.50933 215.522663,211.116667 216.184,211.034 C217.010671,210.909999 217.71333,211.209663 218.292,211.933 C218.87067,212.656337 219.201333,213.431329 219.284,214.258 Z M231.622,214.258 C231.828668,215.746007 231.208674,216.593332 229.762,216.8 C229.017996,216.882667 228.408336,216.676002 227.933,216.18 C227.457664,215.683998 227.158001,215.08467 227.034,214.382 C226.909999,213.637996 226.961666,212.91467 227.189,212.212 C227.416334,211.50933 227.860663,211.116667 228.522,211.034 C229.348671,210.909999 230.05133,211.209663 230.63,211.933 C231.20867,212.656337 231.539333,213.431329 231.622,214.258 Z M243.96,214.258 C244.166668,215.746007 243.546674,216.593332 242.1,216.8 C241.355996,216.882667 240.746336,216.676002 240.271,216.18 C239.795664,215.683998 239.496001,215.08467 239.372,214.382 C239.247999,213.637996 239.299666,212.91467 239.527,212.212 C239.754334,211.50933 240.198663,211.116667 240.86,211.034 C241.686671,210.909999 242.38933,211.209663 242.968,211.933 C243.54667,212.656337 243.877333,213.431329 243.96,214.258 Z" id="All-alone-again..." fill="#4D394B"></path>
            </g>
        </g>
    </g>
</svg>