<?xml version="1.0" encoding="UTF-8"?>
<svg width="960px" height="960px" viewBox="0 0 960 960" version="1.1" xmlns="http://www.w3.org/2000/svg" xmlns:xlink="http://www.w3.org/1999/xlink">
    <!-- Generator: Sketch 44.1 (41455) - http://www.bohemiancoding.com/sketch -->
    <title>no-team-bots</title>
    <desc>Created with Sketch.</desc>
    <defs></defs>
    <g id="Illustrations-app" stroke="none" stroke-width="1" fill="none" fill-rule="evenodd">
        <g id="no-team-bots">
            <circle id="Oval-3" fill="#4D394B" cx="480" cy="480" r="448"></circle>
            <g id="Bot:-Color" transform="translate(240.000000, 302.000000)">
                <path d="M250.872394,514.919757 C418.910063,510.103591 474.679782,486.424663 441.056894,465.747157 C407.434005,445.06965 365.9305,451.888959 232.391127,451.888959 C98.851755,451.888959 24.9105991,453.348094 3.87337262,479.153149 C-17.1638539,504.958203 82.8347254,519.735923 250.872394,514.919757 Z" id="Shadow" fill-opacity="0.249999985" fill="#000000" transform="translate(225.745006, 483.317991) rotate(2.000000) translate(-225.745006, -483.317991) "></path>
                <g id="Fill" transform="translate(33.309908, 4.000000)">
                    <path d="M393.527115,410.853399 C381.458982,432.438379 295.493325,452.803531 199.645999,452.803531 C103.798673,452.803531 25.0882219,426.101862 7.99014315,410.853399 C-9.10793558,395.604936 16.597309,382.964116 16.597309,382.964116 L16.597309,168.784211 C16.597309,76.4974558 93.326647,0.5 184.905452,0.5 L215.506933,0.5 C307.093446,0.5 383.815076,76.4933996 383.815076,168.784211 L383.815076,382.964116 C383.815076,382.964116 405.595249,389.268419 393.527115,410.853399 Z" id="Rectangle" fill="#FF9F72"></path>
                    <path d="M200.21734,214.441687 C234.691388,214.441687 262.638126,186.498923 262.638126,152.029777 C262.638126,117.56063 234.691388,89.617866 200.21734,89.617866 C165.743291,89.617866 137.796553,117.56063 137.796553,152.029777 C137.796553,186.498923 165.743291,214.441687 200.21734,214.441687 Z" id="Oval" fill="#FFFFFF"></path>
                    <path d="M370.211488,96.4574117 C361.494461,92.3056729 354.194231,89.617866 348.466707,89.617866 C318.301915,89.617866 293.848519,114.067785 293.848519,144.228288 C293.848519,174.388791 318.301915,198.83871 348.466707,198.83871 C362.267024,198.83871 374.871923,193.721245 384.486745,185.28072 C389.893204,148.733339 380.275363,120.253385 370.211488,96.4574117 Z" id="Oval" fill="#FFFFFF"></path>
                    <path d="M155.417194,408.319772 C154.697518,403.930931 153.40175,392.954657 153.40175,370.814314 C153.40175,340.161662 137.796553,339.064578 137.796553,308.059553 C137.796553,277.054529 137.796553,261.843885 137.796553,246.261892 C137.796553,182.61905 122.968881,198.593622 122.968881,152.069525 C122.968881,105.545428 148.630411,84.1349212 169.639413,74.2347312 C219.123261,50.9161794 215.554983,6.83099495 215.554983,6.83099495 C215.554983,6.83099495 137.85242,4.34547984 95.2980657,31.9091431 C52.7437112,59.4728063 28.5601767,66.9794972 23.6538924,152.069529 C19.2565787,228.332449 26.682694,355.864893 28.2707646,381.504224 C23.2753509,380.392309 20.4113116,379.748283 20.4113116,379.748283 L0.0968255819,392.320703 L6.43664121,420.340334 L103.715436,450.448978 L223.017072,455.655947 C223.017072,455.655947 237.605124,430.935137 221.642962,412.647872 C200.618667,408.566866 186.013672,413.607503 179.86151,412.647872 C173.236087,411.614421 164.854522,410.115596 155.417194,408.319772 Z" id="Combined-Shape" fill-opacity="0.696218297" fill="#858585"></path>
                </g>
                <g id="Stroke" transform="translate(30.659691, 0.000000)">
                    <path d="M390.129915,390.074442 L376.056129,390.074442 L376.056129,171.632754 C376.056129,85.5524295 304.374416,14.0907563 218.472753,14.0907563 L187.262359,14.0907563 C101.367232,14.0907563 29.678983,85.5578842 29.678983,171.632754 L29.678983,390.074442 L15.6051966,390.074442 L15.6051966,171.632754 C15.6051966,77.509664 93.8613059,0 187.262359,0 L218.472753,0 C311.881667,0 390.129915,77.505527 390.129915,171.632754 L390.129915,390.074442 Z" id="Rectangle" fill="#4D394B" fill-rule="nonzero"></path>
                    <path d="M85.0838465,171.42393 L56.9536059,172.944584 C59.7667308,172.712947 60.2262521,171.973794 60.2262521,172.331877 L60.2262521,215.638704 C60.2262521,216.25073 60.0868847,216.017812 57.2507928,215.619156 L85.3031825,218.657833 C81.1839181,218.356711 80.2205175,219.914038 80.2205175,219.208297 L80.2205175,171.283236 C80.2205175,170.158599 80.0146159,169.342939 79.9087983,169.166934 C80.5948758,170.308076 82.3246235,171.500541 84.7562289,171.437085 L85.0838465,171.42393 Z M93.6311797,171.283236 L93.6311797,219.208297 C93.6311797,227.746332 89.5176391,234.406463 84.4517305,234.03614 L55.9950391,230.960848 C50.9253693,230.235674 46.8155899,223.348259 46.8155899,215.638704 L46.8155899,172.331877 C46.8155899,164.616598 50.9291305,157.991737 55.9950391,157.574602 L84.4517305,156.031661 C89.5214003,155.89936 93.6311797,162.751536 93.6311797,171.283236 Z" id="Rectangle-2" fill="#4D394B" fill-rule="nonzero"></path>
                    <path d="M70.2233848,380.760653 L70.2233848,351.274605 M70.2233848,320.079126 L70.2233848,304.552335 M70.2233848,273.17115 L70.2233848,224.728971 M70.2233848,156.029777 C76.3712132,90.394066 118.265651,32.8805318 176.144228,8.81857747" id="Rectangle" stroke="#4D394B" stroke-width="14.08" stroke-linecap="round" stroke-linejoin="round"></path>
                    <path d="M92.8094424,402.00426 C87.3776947,400.885054 82.0431035,399.694149 76.8076775,398.43614 C63.2400622,395.176008 51.3673576,391.699771 41.296022,388.248159 C35.4290269,386.237443 31.5734217,384.73281 29.8359871,383.976074 C18.7220979,379.135442 6.0737181,384.927357 1.58504001,396.912679 C-2.90363809,408.898001 2.46715665,422.538132 13.5810458,427.378764 C23.6036664,431.744097 41.8075387,437.982863 67.3676908,444.124654 C109.453043,454.237249 157.211062,460.287841 209.799161,460.287841 C262.532385,460.287841 307.775424,454.198168 345.554991,443.982038 C368.788128,437.699468 384.660031,431.232276 393.221099,426.56 C403.915676,420.723344 408.197821,406.64235 402.785538,395.109219 C397.373256,383.576088 384.316067,378.958182 373.621491,384.794838 C372.519787,385.396103 369.647957,386.764394 364.996843,388.659545 C356.798077,392.000228 346.802005,395.386725 334.997775,398.578756 C300.65197,407.866348 258.953632,413.478908 209.799161,413.478908 C194.397679,413.478908 179.453981,412.927323 164.993549,411.882453 M139.657396,409.500753 C132.543464,408.674179 125.560558,407.727072 118.712112,406.66729" id="Line" stroke="#4D394B" stroke-width="14.08" stroke-linecap="round" fill-rule="nonzero"></path>
                    <path d="M202.867556,204.361687 C229.565883,204.361687 251.208343,182.722306 251.208343,156.029777 C251.208343,129.337248 229.565883,107.697866 202.867556,107.697866 C176.169229,107.697866 154.52677,129.337248 154.52677,156.029777 C154.52677,182.722306 176.169229,204.361687 202.867556,204.361687 Z M202.867556,218.441687 C168.393508,218.441687 140.44677,190.498923 140.44677,156.029777 C140.44677,121.56063 168.393508,93.617866 202.867556,93.617866 C237.341604,93.617866 265.288343,121.56063 265.288343,156.029777 C265.288343,190.498923 237.341604,218.441687 202.867556,218.441687 Z" id="Oval" fill="#4D394B" fill-rule="nonzero"></path>
                    <path d="M351.116924,202.83871 C320.952132,202.83871 296.498736,178.388791 296.498736,148.228288 C296.498736,118.067785 320.952132,93.617866 351.116924,93.617866 C356.844448,93.617866 362.366063,94.4993421 367.553472,96.1340159 L363.321677,109.563026 C359.414978,108.331934 355.317127,107.697866 351.116924,107.697866 C328.727853,107.697866 310.578736,125.844402 310.578736,148.228288 C310.578736,170.612173 328.727853,188.75871 351.116924,188.75871 C361.106252,188.75871 370.498481,185.151422 377.848053,178.699483 L387.136961,189.28072 C377.52214,197.721245 364.917241,202.83871 351.116924,202.83871 Z" id="Oval" fill="#4D394B" fill-rule="nonzero"></path>
                    <ellipse id="Oval-2" fill="#4D394B" cx="357.925786" cy="147.347616" rx="7.80259831" ry="7.80148883"></ellipse>
                    <ellipse id="Oval-2" fill="#4D394B" cx="211.324729" cy="156.154338" rx="7.80259831" ry="7.80148883"></ellipse>
                </g>
            </g>
            <g id="Bot:-Speechbubbel" transform="translate(37.000000, 3.000000)">
                <path d="M185.166728,388.582827 C192.411286,390.544971 388.376342,330.714971 361.217614,186.090257 C355.729486,102.730331 286.293028,37.5368485 202.265911,37.5368485 C114.288502,37.5368485 42.9687209,108.773457 42.9687209,196.648268 C42.9687209,284.523078 110.042272,355.827112 210.556481,355.827112 C214.94164,363.372002 206.898805,374.122233 185.166728,388.582827 Z" id="Bubble" stroke="#4D394B" stroke-width="12.8" fill="#FAFEFF" stroke-linecap="round" stroke-linejoin="round" transform="translate(203.383670, 213.083156) scale(-1, 1) rotate(16.000000) translate(-203.383670, -213.083156) "></path>
                <path d="M158.769,102.574 C159.34767,105.922017 159.781665,109.25965 160.071,112.587 C160.360335,115.91435 160.587666,119.231317 160.753,122.538 C160.794334,122.910002 160.753001,123.230332 160.629,123.499 C160.504999,123.767668 160.350001,124.005332 160.164,124.212 C159.977999,124.418668 159.792001,124.583999 159.606,124.708 C159.419999,124.832001 159.265001,124.894 159.141,124.894 C158.686331,124.894 158.242002,124.677002 157.808,124.243 C157.373998,123.808998 157.115667,123.24067 157.033,122.538 L156.661,117.826 C156.536999,116.255325 156.392334,114.684675 156.227,113.114 C151.886978,114.312673 147.299024,115.366662 142.463,116.276 L142.959,119.004 C143.124334,119.913338 143.310332,120.822662 143.517,121.732 C143.558334,121.897334 143.589333,122.165998 143.61,122.538 C143.630667,122.910002 143.61,123.302665 143.548,123.716 C143.486,124.129335 143.362001,124.511665 143.176,124.863 C142.989999,125.214335 142.711002,125.472666 142.339,125.638 C142.008332,125.679334 141.657002,125.576001 141.285,125.328 C140.912998,125.079999 140.665001,124.832001 140.541,124.584 C140.044998,123.30266 139.580002,121.773342 139.146,119.996 C138.711998,118.218658 138.340002,116.348343 138.03,114.385 C137.719998,112.421657 137.503001,110.427343 137.379,108.402 C137.254999,106.376657 137.234333,104.434009 137.317,102.574 C137.399667,101.953997 137.637331,101.509668 138.03,101.241 C138.422669,100.972332 138.784332,100.838 139.115,100.838 C139.487002,100.838 139.807332,100.961999 140.076,101.21 C140.344668,101.458001 140.561666,101.767998 140.727,102.14 C140.892334,102.512002 141.016333,102.883998 141.099,103.256 C141.181667,103.628002 141.223,103.937999 141.223,104.186 C141.264334,105.508673 141.326333,106.81066 141.409,108.092 C141.491667,109.37334 141.636332,110.65466 141.843,111.936 C143.951011,111.646665 146.244988,111.243669 148.725,110.727 C151.205012,110.210331 153.540322,109.621337 155.731,108.96 C155.648333,108.009329 155.545001,107.048338 155.421,106.077 C155.296999,105.105662 155.173001,104.144671 155.049,103.194 C155.049,102.49133 155.265998,101.871336 155.7,101.334 C156.134002,100.796664 156.578331,100.528 157.033,100.528 C157.363668,100.528 157.704665,100.693332 158.056,101.024 C158.407335,101.354668 158.644999,101.87133 158.769,102.574 Z M180.345,112.68 C178.732992,113.630671 176.997009,114.364331 175.137,114.881 C173.276991,115.397669 171.272344,115.656 169.123,115.656 C169.205667,117.102674 169.618996,118.249662 170.363,119.097 C171.107004,119.944338 172.036994,120.450666 173.153,120.616 C173.814337,120.698667 174.485997,120.678001 175.168,120.554 C175.850003,120.429999 176.490664,120.233668 177.09,119.965 C177.689336,119.696332 178.236998,119.396668 178.733,119.066 C179.229002,118.735332 179.662998,118.404668 180.035,118.074 C180.407002,117.743332 180.799665,117.526334 181.213,117.423 C181.626335,117.319666 181.936332,117.309333 182.143,117.392 C182.72167,117.598668 182.928334,118.218661 182.763,119.252 C182.101663,120.574673 181.151006,121.700995 179.911,122.631 C178.670994,123.561005 177.286341,124.149999 175.757,124.398 C174.434327,124.646001 173.07034,124.584002 171.665,124.212 C170.25966,123.839998 168.999006,123.116672 167.883,122.042 C166.932329,121.091329 166.209002,119.97534 165.713,118.694 C165.216998,117.41266 164.907001,116.090007 164.783,114.726 C164.658999,113.44466 164.772665,112.225339 165.124,111.068 C165.475335,109.910661 166.022996,108.887671 166.767,107.999 C167.511004,107.110329 168.440994,106.37667 169.557,105.798 C170.673006,105.21933 171.974993,104.888667 173.463,104.806 C175.240342,104.681999 176.852326,105.012663 178.299,105.798 C179.745674,106.583337 180.75833,107.67866 181.337,109.084 C181.667668,109.869337 181.760667,110.55133 181.616,111.13 C181.471333,111.70867 181.04767,112.225331 180.345,112.68 Z M173.215,108.464 C172.801665,108.546667 172.357336,108.691332 171.882,108.898 C171.406664,109.104668 170.972669,109.362998 170.58,109.673 C170.187331,109.983002 169.836002,110.334331 169.526,110.727 C169.215998,111.119669 169.040334,111.563998 168.999,112.06 C169.70167,112.06 170.476662,111.998001 171.324,111.874 C172.171338,111.749999 172.997996,111.595001 173.804,111.409 C174.610004,111.222999 175.353997,111.006001 176.036,110.758 C176.718003,110.509999 177.286331,110.241335 177.741,109.952 C177.410332,109.166663 176.800671,108.681001 175.912,108.495 C175.023329,108.308999 174.124338,108.298666 173.215,108.464 Z M192.311,98.234 C192.517668,102.739356 192.868998,107.399643 193.365,112.215 C193.861002,117.030357 194.39833,121.628645 194.977,126.01 C195.101001,127.828676 194.605006,128.758666 193.489,128.8 C193.240999,128.8 192.993001,128.707001 192.745,128.521 C192.496999,128.334999 192.269668,128.097335 192.063,127.808 C191.856332,127.518665 191.660001,127.208668 191.474,126.878 C191.287999,126.547332 191.174334,126.258001 191.133,126.01 C190.802332,123.901989 190.492335,121.670012 190.203,119.314 C189.913665,116.957988 189.655334,114.591679 189.428,112.215 C189.200666,109.838321 189.004334,107.513345 188.839,105.24 C188.673666,102.966655 188.570334,100.879343 188.529,98.978 C188.611667,97.985995 188.756332,97.1490034 188.963,96.467 C189.169668,95.7849966 189.603663,95.4646665 190.265,95.506 C190.96767,95.5473335 191.473998,95.8263307 191.784,96.343 C192.094002,96.8596692 192.269666,97.4899963 192.311,98.234 Z M205.269,98.234 C205.475668,102.739356 205.826998,107.399643 206.323,112.215 C206.819002,117.030357 207.35633,121.628645 207.935,126.01 C208.059001,127.828676 207.563006,128.758666 206.447,128.8 C206.198999,128.8 205.951001,128.707001 205.703,128.521 C205.454999,128.334999 205.227668,128.097335 205.021,127.808 C204.814332,127.518665 204.618001,127.208668 204.432,126.878 C204.245999,126.547332 204.132334,126.258001 204.091,126.01 C203.760332,123.901989 203.450335,121.670012 203.161,119.314 C202.871665,116.957988 202.613334,114.591679 202.386,112.215 C202.158666,109.838321 201.962334,107.513345 201.797,105.24 C201.631666,102.966655 201.528334,100.879343 201.487,98.978 C201.569667,97.985995 201.714332,97.1490034 201.921,96.467 C202.127668,95.7849966 202.561663,95.4646665 203.223,95.506 C203.92567,95.5473335 204.431998,95.8263307 204.742,96.343 C205.052002,96.8596692 205.227666,97.4899963 205.269,98.234 Z M227.279,105.612 C228.519006,106.066669 229.562662,106.748662 230.41,107.658 C231.257338,108.567338 231.908331,109.590328 232.363,110.727 C232.817669,111.863672 233.076,113.031327 233.138,114.23 C233.2,115.428673 233.065668,116.544661 232.735,117.578 C232.280331,118.735339 231.70167,119.871994 230.999,120.988 C230.29633,122.104006 229.490338,123.095996 228.581,123.964 C227.671662,124.832004 226.638339,125.534664 225.481,126.072 C224.323661,126.609336 223.04234,126.878 221.637,126.878 C219.942325,126.878 218.516339,126.485337 217.359,125.7 C216.201661,124.914663 215.292337,123.902006 214.631,122.662 C213.969663,121.421994 213.546001,120.016675 213.36,118.446 C213.173999,116.875325 213.204999,115.304675 213.453,113.734 C213.618334,112.576661 213.897331,111.450339 214.29,110.355 C214.682669,109.259661 215.188997,108.288338 215.809,107.441 C216.429003,106.593662 217.141996,105.901336 217.948,105.364 C218.754004,104.826664 219.673662,104.558 220.707,104.558 C221.28567,104.558 222.008996,104.671666 222.877,104.899 C223.745004,105.126334 224.550996,105.446665 225.295,105.86 C225.832336,105.363998 226.493663,105.281332 227.279,105.612 Z M224.923,110.138 C224.468331,109.848665 223.941336,109.466336 223.342,108.991 C222.742664,108.515664 222.215669,108.278 221.761,108.278 C221.264998,108.278 220.779336,108.505331 220.304,108.96 C219.828664,109.414669 219.415335,109.941664 219.064,110.541 C218.712665,111.140336 218.413001,111.749997 218.165,112.37 C217.916999,112.990003 217.751667,113.485998 217.669,113.858 C217.544999,114.478003 217.462334,115.221996 217.421,116.09 C217.379666,116.958004 217.441666,117.815662 217.607,118.663 C217.772334,119.510338 218.092664,120.274997 218.568,120.957 C219.043336,121.639003 219.756329,122.124665 220.707,122.414 C221.28567,122.579334 221.967663,122.569001 222.753,122.383 C223.538337,122.196999 224.31333,121.856002 225.078,121.36 C225.84267,120.863998 226.565997,120.202671 227.248,119.376 C227.930003,118.549329 228.456998,117.598672 228.829,116.524 C229.242335,115.325327 229.252669,114.075007 228.86,112.773 C228.467331,111.470993 227.671673,110.53067 226.473,109.952 C226.183665,110.158668 225.894335,110.262 225.605,110.262 C225.315665,110.262 225.088334,110.220667 224.923,110.138 Z M251.645,110.572 C251.107664,111.233337 250.529003,111.85333 249.909,112.432 C249.288997,113.01067 248.720669,113.609997 248.204,114.23 C247.687331,114.850003 247.284335,115.51133 246.995,116.214 C246.705665,116.91667 246.643666,117.722662 246.809,118.632 C247.098335,119.21067 247.222334,119.654998 247.181,119.965 C247.139666,120.275002 246.974335,120.533332 246.685,120.74 C245.940996,121.153335 245.197004,120.967337 244.453,120.182 C243.956998,119.644664 243.616001,118.99367 243.43,118.229 C243.243999,117.46433 243.202666,116.69967 243.306,115.935 C243.409334,115.17033 243.636665,114.416004 243.988,113.672 C244.339335,112.927996 244.80433,112.26667 245.383,111.688 C245.96167,111.10933 246.560997,110.49967 247.181,109.859 C247.801003,109.21833 248.358998,108.54667 248.855,107.844 C249.351002,107.14133 249.722999,106.428337 249.971,105.705 C250.219001,104.981663 250.281001,104.227337 250.157,103.442 C250.115666,103.152665 249.950335,102.894334 249.661,102.667 C249.371665,102.439666 248.999669,102.253667 248.545,102.109 C248.090331,101.964333 247.584003,101.881667 247.026,101.861 C246.467997,101.840333 245.89967,101.912666 245.321,102.078 C244.370329,102.367335 243.54367,102.873663 242.841,103.597 C242.13833,104.320337 241.766334,105.095329 241.725,105.922 C242.014335,106.583337 241.993668,107.037999 241.663,107.286 C241.373665,107.492668 241.074002,107.596 240.764,107.596 C240.453998,107.596 240.175001,107.513334 239.927,107.348 C238.934995,106.355995 238.511333,105.281339 238.656,104.124 C238.800667,102.966661 239.244996,101.912671 239.989,100.962 C240.69167,100.011329 241.590661,99.2570028 242.686,98.699 C243.781339,98.1409972 244.96966,97.8206671 246.251,97.738 C247.863008,97.6139994 249.381993,97.8929966 250.808,98.575 C252.234007,99.2570034 253.215664,100.403992 253.753,102.016 C254.290336,103.834676 254.290336,105.44666 253.753,106.852 C253.215664,108.25734 252.513004,109.497328 251.645,110.572 Z M249.475,129.792 C249.599001,130.37067 249.516335,130.887331 249.227,131.342 C248.937665,131.796669 248.555336,132.147999 248.08,132.396 C247.604664,132.644001 247.108669,132.747334 246.592,132.706 C246.075331,132.664666 245.631002,132.416669 245.259,131.962 C245.010999,131.672665 244.866334,131.342002 244.825,130.97 C244.783666,130.597998 244.794,130.205335 244.856,129.792 C244.918,129.378665 245.000666,128.986002 245.104,128.614 C245.207334,128.241998 245.259,127.911335 245.259,127.622 C245.259,127.497999 245.300333,127.353334 245.383,127.188 C245.465667,127.022666 245.579333,126.888334 245.724,126.785 C245.868667,126.681666 246.023666,126.63 246.189,126.63 C246.354334,126.63 246.540332,126.753999 246.747,127.002 C247.32567,127.456669 247.924997,127.921664 248.545,128.397 C249.165003,128.872336 249.475,129.337331 249.475,129.792 Z M121.631,178.98 C121.672334,179.145334 121.693,179.382998 121.693,179.693 C121.693,180.003002 121.631001,180.312998 121.507,180.623 C121.382999,180.933002 121.207334,181.201666 120.98,181.429 C120.752666,181.656334 120.432335,181.77 120.019,181.77 C119.109662,181.19133 118.345003,180.426671 117.725,179.476 C117.394332,178.235994 117.094668,176.810008 116.826,175.198 C116.557332,173.585992 116.340334,171.901675 116.175,170.145 C116.009666,168.388325 115.896,166.600676 115.834,164.782 C115.772,162.963324 115.761666,161.206675 115.803,159.512 C115.803,159.222665 115.834,158.850669 115.896,158.396 C115.958,157.941331 116.071666,157.497002 116.237,157.063 C116.402334,156.628998 116.608999,156.257002 116.857,155.947 C117.105001,155.636998 117.456331,155.482 117.911,155.482 C118.448336,155.482 118.882332,155.647332 119.213,155.978 C119.543668,156.308668 119.709,156.845996 119.709,157.59 C119.667666,159.243342 119.678,161.010324 119.74,162.891 C119.802,164.771676 119.915666,166.662657 120.081,168.564 C120.246334,170.465343 120.463332,172.314991 120.732,174.113 C121.000668,175.911009 121.300332,177.533326 121.631,178.98 Z M139.115,165.712 C139.032333,165.257331 138.949667,164.823335 138.867,164.41 C138.784333,163.996665 138.577668,163.728001 138.247,163.604 C137.54433,163.397332 136.800337,163.376666 136.015,163.542 C135.229663,163.707334 134.506337,163.965665 133.845,164.317 C133.183663,164.668335 132.625669,165.060998 132.171,165.495 C131.716331,165.929002 131.468334,166.311332 131.427,166.642 C131.302999,167.262003 131.468331,167.86133 131.923,168.44 C132.377669,169.01867 133.038996,169.59733 133.907,170.176 C135.353674,171.044004 136.862325,171.932662 138.433,172.842 C140.003675,173.751338 141.326328,174.681329 142.401,175.632 C143.475672,176.582671 144.209331,177.626328 144.602,178.763 C144.994669,179.899672 144.90167,181.191326 144.323,182.638 C143.868331,183.754006 143.021006,184.66333 141.781,185.366 C140.540994,186.06867 139.177007,186.616331 137.689,187.009 C136.200993,187.401669 134.713007,187.670333 133.225,187.815 C131.736993,187.959667 130.476338,188.032 129.443,188.032 C129.194999,188.032 128.895335,187.939001 128.544,187.753 C128.192665,187.566999 127.862002,187.350001 127.552,187.102 C127.241998,186.853999 126.973334,186.595668 126.746,186.327 C126.518666,186.058332 126.405,185.820668 126.405,185.614 C126.405,184.869996 126.735663,184.353335 127.397,184.064 C128.058337,183.774665 128.74033,183.63 129.443,183.63 C130.435005,183.63 131.499328,183.578334 132.636,183.475 C133.772672,183.371666 134.857662,183.206334 135.891,182.979 C136.924339,182.751666 137.854329,182.452002 138.681,182.08 C139.507671,181.707998 140.086332,181.23267 140.417,180.654 C140.706335,180.157998 140.53067,179.569003 139.89,178.887 C139.24933,178.204997 138.402005,177.492004 137.348,176.748 C136.293995,176.003996 135.157339,175.28067 133.938,174.578 C132.718661,173.87533 131.675004,173.23467 130.807,172.656 C129.938996,172.07733 129.195003,171.385004 128.575,170.579 C127.954997,169.772996 127.562334,168.770673 127.397,167.572 C127.355666,166.497328 127.582998,165.464005 128.079,164.472 C128.575002,163.479995 129.225996,162.60167 130.032,161.837 C130.838004,161.07233 131.757661,160.462669 132.791,160.008 C133.824339,159.553331 134.857662,159.326 135.891,159.326 C137.668342,159.408667 139.135661,159.894329 140.293,160.783 C141.450339,161.671671 142.132332,162.983991 142.339,164.72 C142.339,165.29867 142.246001,165.773998 142.06,166.146 C141.873999,166.518002 141.553669,166.745333 141.099,166.828 C140.52033,166.910667 140.055335,166.838334 139.704,166.611 C139.352665,166.383666 139.156334,166.084002 139.115,165.712 Z M179.973,167.634 C180.758337,167.592666 181.543663,167.778665 182.329,168.192 C183.114337,168.605335 183.507,169.245996 183.507,170.114 C183.424333,170.81667 183.042003,171.260999 182.36,171.447 C181.677997,171.633001 181.130335,171.726 180.717,171.726 C179.890329,171.726 179.001671,171.746666 178.051,171.788 C177.100329,171.829334 176.129005,171.891333 175.137,171.974 C175.054333,173.338007 174.982,174.619327 174.92,175.818 C174.858,177.016673 174.806334,178.080995 174.765,179.011 C174.723666,179.941005 174.703,180.69533 174.703,181.274 C174.703,181.85267 174.723666,182.162666 174.765,182.204 C175.674338,182.038666 176.655995,181.759669 177.71,181.367 C178.764005,180.974331 179.817995,180.540336 180.872,180.065 C181.926005,179.589664 182.959328,179.093669 183.972,178.577 C184.984672,178.060331 185.945662,177.574669 186.855,177.12 C187.268335,176.913332 187.650665,176.851333 188.002,176.934 C188.353335,177.016667 188.570333,177.202665 188.653,177.492 C188.735667,177.946669 188.673668,178.504663 188.467,179.166 C188.260332,179.827337 187.888336,180.426664 187.351,180.964 C186.730997,181.460002 185.914672,182.02833 184.902,182.669 C183.889328,183.30967 182.804339,183.91933 181.647,184.498 C180.489661,185.07667 179.322006,185.582998 178.144,186.017 C176.965994,186.451002 175.922338,186.709333 175.013,186.792 C173.648993,186.916001 172.61567,186.544004 171.913,185.676 C171.21033,184.807996 170.817667,183.712673 170.735,182.39 C170.652333,181.067327 170.642,179.538009 170.704,177.802 C170.766,176.065991 170.838333,174.226676 170.921,172.284 C170.135663,172.366667 169.381337,172.439 168.658,172.501 C167.934663,172.563 167.242337,172.635333 166.581,172.718 C166.043664,172.718 165.45467,172.594001 164.814,172.346 C164.17333,172.097999 163.853,171.62267 163.853,170.92 C163.853,170.671999 163.956332,170.341335 164.163,169.928 C164.369668,169.514665 164.82433,169.204668 165.527,168.998 C167.221675,168.708665 169.102323,168.460668 171.169,168.254 C171.293001,166.311324 171.437666,164.430676 171.603,162.612 C171.768334,160.793324 171.912999,159.140007 172.037,157.652 C172.078334,157.155998 172.222999,156.722002 172.471,156.35 C172.719001,155.977998 172.987665,155.792 173.277,155.792 C173.97967,155.750666 174.65133,155.926331 175.292,156.319 C175.93267,156.711669 176.253,157.155998 176.253,157.652 C176.087666,159.05734 175.932667,160.648658 175.788,162.426 C175.643333,164.203342 175.509001,166.021991 175.385,167.882 C176.211671,167.799333 177.00733,167.747667 177.772,167.727 C178.53667,167.706333 179.27033,167.675334 179.973,167.634 Z M195.535,156.784 C195.535,157.776005 195.524667,158.891994 195.504,160.132 C195.483333,161.372006 195.483333,162.653327 195.504,163.976 C195.524667,165.298673 195.545333,166.66266 195.566,168.068 C195.586667,169.47334 195.617666,170.81666 195.659,172.098 C196.072335,171.271329 196.56833,170.455004 197.147,169.649 C197.72567,168.842996 198.376663,168.130003 199.1,167.51 C199.823337,166.889997 200.587996,166.394002 201.394,166.022 C202.200004,165.649998 203.078329,165.464 204.029,165.464 C205.062339,165.464 205.981996,165.794663 206.788,166.456 C207.594004,167.117337 208.296664,167.995661 208.896,169.091 C209.495336,170.186339 210.001665,171.40566 210.415,172.749 C210.828335,174.09234 211.169332,175.456326 211.438,176.841 C211.706668,178.225674 211.902999,179.548327 212.027,180.809 C212.151001,182.069673 212.254333,183.154662 212.337,184.064 C212.337,184.725337 212.171668,185.262665 211.841,185.676 C211.510332,186.089335 211.117669,186.296 210.663,186.296 C210.332332,186.296 209.929336,186.079002 209.454,185.645 C208.978664,185.210998 208.637668,184.684003 208.431,184.064 C208.306999,183.567998 208.183001,182.844671 208.059,181.894 C207.934999,180.943329 207.790334,179.920339 207.625,178.825 C207.459666,177.729661 207.253001,176.624006 207.005,175.508 C206.756999,174.391994 206.457335,173.389671 206.106,172.501 C205.754665,171.612329 205.331002,170.920002 204.835,170.424 C204.338998,169.927998 203.760337,169.741999 203.099,169.866 C202.065661,170.072668 201.16667,170.795994 200.402,172.036 C199.63733,173.276006 198.976003,174.681325 198.418,176.252 C197.859997,177.822675 197.405335,179.413992 197.054,181.026 C196.702665,182.638008 196.444334,183.939995 196.279,184.932 C196.113666,185.676004 195.896668,186.182332 195.628,186.451 C195.359332,186.719668 195.059668,186.854 194.729,186.854 C194.398332,186.854 194.098668,186.688668 193.83,186.358 C193.561332,186.027332 193.313334,185.624336 193.086,185.149 C192.858666,184.673664 192.662334,184.177669 192.497,183.661 C192.331666,183.144331 192.228334,182.700002 192.187,182.328 C191.980332,180.095989 191.815001,177.95701 191.691,175.911 C191.566999,173.86499 191.474,171.808677 191.412,169.742 C191.35,167.675323 191.319,165.557011 191.319,163.387 C191.319,161.216989 191.360333,158.892012 191.443,156.412 C191.443,154.345323 192.186993,153.415332 193.675,153.622 C194.171002,153.704667 194.604998,154.06633 194.977,154.707 C195.349002,155.34767 195.535,156.039996 195.535,156.784 Z M231.805,169.68 C230.192992,170.630671 228.457009,171.364331 226.597,171.881 C224.736991,172.397669 222.732344,172.656 220.583,172.656 C220.665667,174.102674 221.078996,175.249662 221.823,176.097 C222.567004,176.944338 223.496994,177.450666 224.613,177.616 C225.274337,177.698667 225.945997,177.678001 226.628,177.554 C227.310003,177.429999 227.950664,177.233668 228.55,176.965 C229.149336,176.696332 229.696998,176.396668 230.193,176.066 C230.689002,175.735332 231.122998,175.404668 231.495,175.074 C231.867002,174.743332 232.259665,174.526334 232.673,174.423 C233.086335,174.319666 233.396332,174.309333 233.603,174.392 C234.18167,174.598668 234.388334,175.218661 234.223,176.252 C233.561663,177.574673 232.611006,178.700995 231.371,179.631 C230.130994,180.561005 228.746341,181.149999 227.217,181.398 C225.894327,181.646001 224.53034,181.584002 223.125,181.212 C221.71966,180.839998 220.459006,180.116672 219.343,179.042 C218.392329,178.091329 217.669002,176.97534 217.173,175.694 C216.676998,174.41266 216.367001,173.090007 216.243,171.726 C216.118999,170.44466 216.232665,169.225339 216.584,168.068 C216.935335,166.910661 217.482996,165.887671 218.227,164.999 C218.971004,164.110329 219.900994,163.37667 221.017,162.798 C222.133006,162.21933 223.434993,161.888667 224.923,161.806 C226.700342,161.681999 228.312326,162.012663 229.759,162.798 C231.205674,163.583337 232.21833,164.67866 232.797,166.084 C233.127668,166.869337 233.220667,167.55133 233.076,168.13 C232.931333,168.70867 232.50767,169.225331 231.805,169.68 Z M224.675,165.464 C224.261665,165.546667 223.817336,165.691332 223.342,165.898 C222.866664,166.104668 222.432669,166.362998 222.04,166.673 C221.647331,166.983002 221.296002,167.334331 220.986,167.727 C220.675998,168.119669 220.500334,168.563998 220.459,169.06 C221.16167,169.06 221.936662,168.998001 222.784,168.874 C223.631338,168.749999 224.457996,168.595001 225.264,168.409 C226.070004,168.222999 226.813997,168.006001 227.496,167.758 C228.178003,167.509999 228.746331,167.241335 229.201,166.952 C228.870332,166.166663 228.260671,165.681001 227.372,165.495 C226.483329,165.308999 225.584338,165.298666 224.675,165.464 Z M257.101,162.86 C256.356996,163.273335 255.582004,163.707331 254.776,164.162 C253.969996,164.616669 253.164004,165.143664 252.358,165.743 C251.551996,166.342336 250.787337,167.044996 250.064,167.851 C249.340663,168.657004 248.68967,169.617994 248.111,170.734 C247.284329,172.304675 246.726335,173.906325 246.437,175.539 C246.147665,177.171675 245.961667,178.773325 245.879,180.344 C245.879,181.088004 245.703335,181.84233 245.352,182.607 C245.000665,183.37167 244.515003,183.754 243.895,183.754 C243.109663,183.754 242.479336,183.351004 242.004,182.545 C241.528664,181.738996 241.208334,180.964004 241.043,180.22 C240.34033,177.285319 239.761669,174.381681 239.307,171.509 C238.852331,168.636319 238.459668,165.774014 238.129,162.922 C238.129,162.34333 238.304665,161.971334 238.656,161.806 C239.007335,161.640666 239.410331,161.578666 239.865,161.62 C240.361002,161.661334 240.836331,161.785332 241.291,161.992 C241.745669,162.198668 242.014333,162.529331 242.097,162.984 C242.262334,164.513341 242.468999,166.114992 242.717,167.789 C242.965001,169.463008 243.212999,170.899327 243.461,172.098 C243.626334,170.69266 244.080996,169.328673 244.825,168.006 C245.569004,166.683327 246.488661,165.484672 247.584,164.41 C248.679339,163.335328 249.919326,162.426004 251.304,161.682 C252.688674,160.937996 254.104326,160.442001 255.551,160.194 C256.171003,160.111333 256.687665,160.111333 257.101,160.194 C257.514335,160.276667 257.803666,160.421332 257.969,160.628 C258.134334,160.834668 258.165334,161.165331 258.062,161.62 C257.958666,162.074669 257.638336,162.487998 257.101,162.86 Z M275.825,169.68 C274.212992,170.630671 272.477009,171.364331 270.617,171.881 C268.756991,172.397669 266.752344,172.656 264.603,172.656 C264.685667,174.102674 265.098996,175.249662 265.843,176.097 C266.587004,176.944338 267.516994,177.450666 268.633,177.616 C269.294337,177.698667 269.965997,177.678001 270.648,177.554 C271.330003,177.429999 271.970664,177.233668 272.57,176.965 C273.169336,176.696332 273.716998,176.396668 274.213,176.066 C274.709002,175.735332 275.142998,175.404668 275.515,175.074 C275.887002,174.743332 276.279665,174.526334 276.693,174.423 C277.106335,174.319666 277.416332,174.309333 277.623,174.392 C278.20167,174.598668 278.408334,175.218661 278.243,176.252 C277.581663,177.574673 276.631006,178.700995 275.391,179.631 C274.150994,180.561005 272.766341,181.149999 271.237,181.398 C269.914327,181.646001 268.55034,181.584002 267.145,181.212 C265.73966,180.839998 264.479006,180.116672 263.363,179.042 C262.412329,178.091329 261.689002,176.97534 261.193,175.694 C260.696998,174.41266 260.387001,173.090007 260.263,171.726 C260.138999,170.44466 260.252665,169.225339 260.604,168.068 C260.955335,166.910661 261.502996,165.887671 262.247,164.999 C262.991004,164.110329 263.920994,163.37667 265.037,162.798 C266.153006,162.21933 267.454993,161.888667 268.943,161.806 C270.720342,161.681999 272.332326,162.012663 273.779,162.798 C275.225674,163.583337 276.23833,164.67866 276.817,166.084 C277.147668,166.869337 277.240667,167.55133 277.096,168.13 C276.951333,168.70867 276.52767,169.225331 275.825,169.68 Z M268.695,165.464 C268.281665,165.546667 267.837336,165.691332 267.362,165.898 C266.886664,166.104668 266.452669,166.362998 266.06,166.673 C265.667331,166.983002 265.316002,167.334331 265.006,167.727 C264.695998,168.119669 264.520334,168.563998 264.479,169.06 C265.18167,169.06 265.956662,168.998001 266.804,168.874 C267.651338,168.749999 268.477996,168.595001 269.284,168.409 C270.090004,168.222999 270.833997,168.006001 271.516,167.758 C272.198003,167.509999 272.766331,167.241335 273.221,166.952 C272.890332,166.166663 272.280671,165.681001 271.392,165.495 C270.503329,165.308999 269.604338,165.298666 268.695,165.464 Z M130.559,218.31 C130.724334,219.467339 130.858666,220.696993 130.962,221.999 C131.065334,223.301007 131.148,224.613327 131.21,225.936 C131.272,227.258673 131.303,228.539994 131.303,229.78 C131.303,231.020006 131.282334,232.135995 131.241,233.128 C132.563673,234.037338 133.359332,234.84333 133.628,235.546 C133.896668,236.24867 133.927668,236.868664 133.721,237.406 C133.472999,238.150004 133.02867,238.532333 132.388,238.553 C131.74733,238.573667 131.013671,238.356669 130.187,237.902 C129.60833,238.315335 128.947004,238.759664 128.203,239.235 C127.458996,239.710336 126.673671,240.164998 125.847,240.599 C125.020329,241.033002 124.193671,241.415332 123.367,241.746 C122.540329,242.076668 121.77567,242.303999 121.073,242.428 C119.750327,242.634668 118.562005,242.38667 117.508,241.684 C116.453995,240.98133 115.741002,239.92734 115.369,238.522 C115.120999,237.571329 115.058999,236.589672 115.183,235.577 C115.307001,234.564328 115.616998,233.593005 116.113,232.663 C116.609002,231.732995 117.280662,230.896004 118.128,230.152 C118.975338,229.407996 119.977661,228.829335 121.135,228.416 C121.424335,228.291999 121.827331,228.188667 122.344,228.106 C122.860669,228.023333 123.397997,227.992333 123.956,228.013 C124.514003,228.033667 125.08233,228.147332 125.661,228.354 C126.23967,228.560668 126.776998,228.911998 127.273,229.408 C127.273,228.70533 127.262667,227.930338 127.242,227.083 C127.221333,226.235662 127.190334,225.378004 127.149,224.51 C127.107666,223.641996 127.056,222.82567 126.994,222.061 C126.932,221.29633 126.859667,220.645336 126.777,220.108 C126.694333,219.487997 126.456669,219.105667 126.064,218.961 C125.671331,218.816333 125.18567,218.847332 124.607,219.054 C123.614995,219.384668 122.457673,220.025329 121.135,220.976 C119.812327,221.926671 118.551673,222.939328 117.353,224.014 C116.980998,224.386002 116.557336,224.551334 116.082,224.51 C115.606664,224.468666 115.203668,224.282668 114.873,223.952 C114.542332,223.621332 114.356334,223.239002 114.315,222.805 C114.273666,222.370998 114.438998,221.906002 114.811,221.41 C115.51367,220.665996 116.298996,219.901337 117.167,219.116 C118.035004,218.330663 118.944329,217.61767 119.895,216.977 C120.845671,216.33633 121.816995,215.809335 122.809,215.396 C123.801005,214.982665 124.792995,214.755334 125.785,214.714 C127.231674,214.672666 128.347663,214.992997 129.133,215.675 C129.918337,216.357003 130.393666,217.235328 130.559,218.31 Z M123.367,231.64 C122.829664,231.764001 122.261336,232.022331 121.662,232.415 C121.062664,232.807669 120.525336,233.282997 120.05,233.841 C119.574664,234.399003 119.223334,235.018997 118.996,235.701 C118.768666,236.383003 118.758332,237.054663 118.965,237.716 C119.047667,237.964001 119.223332,238.149999 119.492,238.274 C119.760668,238.398001 120.060332,238.418667 120.391,238.336 C121.383005,238.129332 122.509327,237.726336 123.77,237.127 C125.030673,236.527664 126.032996,235.87667 126.777,235.174 C126.777,234.925999 126.653001,234.605669 126.405,234.213 C126.156999,233.820331 125.867668,233.427669 125.537,233.035 C125.206332,232.642331 124.844669,232.301335 124.452,232.012 C124.059331,231.722665 123.697668,231.598666 123.367,231.64 Z M141.285,220.79 C141.409001,221.410003 141.543333,222.10233 141.688,222.867 C141.832667,223.63167 141.987666,224.416996 142.153,225.223 C142.318334,226.029004 142.462999,226.845329 142.587,227.672 C142.711001,228.498671 142.814333,229.283996 142.897,230.028 C143.393002,228.953328 143.93033,227.816673 144.509,226.618 C145.08767,225.419327 145.717997,224.313672 146.4,223.301 C147.082003,222.288328 147.80533,221.451337 148.57,220.79 C149.33467,220.128663 150.171662,219.798 151.081,219.798 C152.445007,219.798 153.591995,220.293995 154.522,221.286 C155.452005,222.278005 156.23733,223.507659 156.878,224.975 C157.51867,226.442341 158.024998,227.981992 158.397,229.594 C158.769002,231.206008 159.078999,232.631994 159.327,233.872 C159.575001,234.988006 159.079006,235.814664 157.839,236.352 C157.26033,236.641335 156.826335,236.682668 156.537,236.476 C156.247665,236.269332 156.082334,236.062668 156.041,235.856 C155.834332,235.359998 155.576002,234.492006 155.266,233.252 C154.955998,232.011994 154.604669,230.75134 154.212,229.47 C153.819331,228.18866 153.375002,227.072671 152.879,226.122 C152.382998,225.171329 151.825003,224.737333 151.205,224.82 C150.460996,224.861334 149.79967,225.419328 149.221,226.494 C148.724998,227.362004 148.218669,228.322995 147.702,229.377 C147.185331,230.431005 146.679002,231.505661 146.183,232.601 C145.686998,233.696339 145.201336,234.791661 144.726,235.887 C144.250664,236.982339 143.806335,237.984662 143.393,238.894 C143.103665,239.183335 142.742002,239.379666 142.308,239.483 C141.873998,239.586334 141.429669,239.555334 140.975,239.39 C140.561665,239.265999 140.231001,239.059335 139.983,238.77 C139.734999,238.480665 139.611,238.191335 139.611,237.902 C139.238998,234.677984 138.856669,231.743347 138.464,229.098 C138.071331,226.452653 137.565003,223.745347 136.945,220.976 C136.655665,220.025329 136.603999,219.271003 136.79,218.713 C136.976001,218.154997 137.585662,217.937999 138.619,218.062 C140.065674,218.310001 140.954332,219.219325 141.285,220.79 Z M182.825,221.72 C182.949001,223.952011 183.083333,226.204655 183.228,228.478 C183.372667,230.751345 183.403667,232.993656 183.321,235.205 C183.238333,237.416344 183.021335,239.575989 182.67,241.684 C182.318665,243.792011 181.729671,245.80699 180.903,247.729 C180.076329,249.65101 178.970674,251.438658 177.586,253.092 C176.201326,254.745342 174.455011,256.233327 172.347,257.556 C172.016332,257.762668 171.654669,257.886666 171.262,257.928 C170.869331,257.969334 170.487002,257.959 170.115,257.897 C169.742998,257.835 169.412335,257.731667 169.123,257.587 C168.833665,257.442333 168.647667,257.246001 168.565,256.998 C168.440999,256.625998 168.502999,256.212669 168.751,255.758 C168.999001,255.303331 169.41233,254.828002 169.991,254.332 C171.809676,252.967993 173.338994,251.521341 174.579,249.992 C175.819006,248.462659 176.810996,246.809342 177.555,245.032 C178.299004,243.254658 178.784666,241.322344 179.012,239.235 C179.239334,237.147656 179.229001,234.864012 178.981,232.384 C178.484998,233.004003 177.906337,233.644663 177.245,234.306 C176.583663,234.967337 175.881004,235.556331 175.137,236.073 C174.392996,236.589669 173.628337,237.023665 172.843,237.375 C172.057663,237.726335 171.31367,237.902 170.611,237.902 C170.03233,237.902 169.45367,237.778001 168.875,237.53 C168.29633,237.281999 167.71767,236.80667 167.139,236.104 C166.477663,235.235996 165.888669,234.254339 165.372,233.159 C164.855331,232.063661 164.411002,230.999338 164.039,229.966 C163.666998,228.932661 163.367334,228.002671 163.14,227.176 C162.912666,226.349329 162.778334,225.770668 162.737,225.44 C162.654333,225.026665 162.654333,224.634002 162.737,224.262 C162.819667,223.889998 163.088331,223.662667 163.543,223.58 C164.163003,223.455999 164.741664,223.497332 165.279,223.704 C165.816336,223.910668 166.188332,224.241331 166.395,224.696 C166.560334,225.150669 166.787665,225.853329 167.077,226.804 C167.366335,227.754671 167.717665,228.694995 168.131,229.625 C168.544335,230.555005 168.988664,231.37133 169.464,232.074 C169.939336,232.77667 170.445664,233.128 170.983,233.128 C171.603003,233.128 172.336662,232.818003 173.184,232.198 C174.031338,231.577997 174.847663,230.772005 175.633,229.78 C176.418337,228.787995 177.089997,227.682339 177.648,226.463 C178.206003,225.243661 178.485,224.055339 178.485,222.898 C178.485,222.649999 178.526333,222.360668 178.609,222.03 C178.691667,221.699332 178.815666,221.379002 178.981,221.069 C179.146334,220.758998 179.342666,220.490334 179.57,220.263 C179.797334,220.035666 180.034999,219.901334 180.283,219.86 C180.944337,219.777333 181.533331,219.952998 182.05,220.387 C182.566669,220.821002 182.825,221.265331 182.825,221.72 Z M192.497,209.754 C192.538334,210.415337 192.569333,211.221329 192.59,212.172 C192.610667,213.122671 192.641666,214.155994 192.683,215.272 C192.724334,216.388006 192.786333,217.514328 192.869,218.651 C192.951667,219.787672 193.075666,220.872661 193.241,221.906 C193.861003,220.872661 194.573996,220.087336 195.38,219.55 C196.186004,219.012664 197.002329,218.682001 197.829,218.558 C199.11034,218.392666 200.226329,218.537331 201.177,218.992 C202.127671,219.446669 202.912997,220.076996 203.533,220.883 C204.153003,221.689004 204.607665,222.577662 204.897,223.549 C205.186335,224.520338 205.331,225.460662 205.331,226.37 C205.331,228.312676 204.824672,230.110658 203.812,231.764 C202.799328,233.417342 201.62134,234.88466 200.278,236.166 C198.93466,237.44734 197.612007,238.521996 196.31,239.39 C195.007993,240.258004 194.06767,240.877998 193.489,241.25 C192.662329,241.580668 191.856337,241.663334 191.071,241.498 C190.285663,241.332666 189.769001,241.084668 189.521,240.754 C189.314332,240.257998 189.252333,239.834335 189.335,239.483 C189.417667,239.131665 189.582999,238.811335 189.831,238.522 C190.079001,238.232665 190.378665,237.974334 190.73,237.747 C191.081335,237.519666 191.380999,237.302668 191.629,237.096 C190.636995,232.549311 189.872336,227.951023 189.335,223.301 C188.797664,218.650977 188.570333,213.928691 188.653,209.134 C188.653,208.307329 188.828665,207.832001 189.18,207.708 C189.531335,207.583999 189.830999,207.522 190.079,207.522 C190.65767,207.604667 191.174331,207.831998 191.629,208.204 C192.083669,208.576002 192.372999,209.092663 192.497,209.754 Z M201.549,226.184 C201.549,224.77866 201.19767,223.797003 200.495,223.239 C199.79233,222.680997 199.069004,222.443333 198.325,222.526 C197.704997,222.608667 197.147002,222.835998 196.651,223.208 C196.154998,223.580002 195.721002,224.034664 195.349,224.572 C194.976998,225.109336 194.698001,225.708663 194.512,226.37 C194.325999,227.031337 194.253666,227.671997 194.295,228.292 C194.377667,229.325338 194.491333,230.441327 194.636,231.64 C194.780667,232.838673 194.956332,233.913329 195.163,234.864 C195.824337,234.409331 196.526996,233.882336 197.271,233.283 C198.015004,232.683664 198.70733,232.012004 199.348,231.268 C199.98867,230.523996 200.515665,229.728338 200.929,228.881 C201.342335,228.033662 201.549,227.134671 201.549,226.184 Z M223.931,219.612 C225.171006,220.066669 226.214662,220.748662 227.062,221.658 C227.909338,222.567338 228.560331,223.590328 229.015,224.727 C229.469669,225.863672 229.728,227.031327 229.79,228.23 C229.852,229.428673 229.717668,230.544661 229.387,231.578 C228.932331,232.735339 228.35367,233.871994 227.651,234.988 C226.94833,236.104006 226.142338,237.095996 225.233,237.964 C224.323662,238.832004 223.290339,239.534664 222.133,240.072 C220.975661,240.609336 219.69434,240.878 218.289,240.878 C216.594325,240.878 215.168339,240.485337 214.011,239.7 C212.853661,238.914663 211.944337,237.902006 211.283,236.662 C210.621663,235.421994 210.198001,234.016675 210.012,232.446 C209.825999,230.875325 209.856999,229.304675 210.105,227.734 C210.270334,226.576661 210.549331,225.450339 210.942,224.355 C211.334669,223.259661 211.840997,222.288338 212.461,221.441 C213.081003,220.593662 213.793996,219.901336 214.6,219.364 C215.406004,218.826664 216.325662,218.558 217.359,218.558 C217.93767,218.558 218.660996,218.671666 219.529,218.899 C220.397004,219.126334 221.202996,219.446665 221.947,219.86 C222.484336,219.363998 223.145663,219.281332 223.931,219.612 Z M221.575,224.138 C221.120331,223.848665 220.593336,223.466336 219.994,222.991 C219.394664,222.515664 218.867669,222.278 218.413,222.278 C217.916998,222.278 217.431336,222.505331 216.956,222.96 C216.480664,223.414669 216.067335,223.941664 215.716,224.541 C215.364665,225.140336 215.065001,225.749997 214.817,226.37 C214.568999,226.990003 214.403667,227.485998 214.321,227.858 C214.196999,228.478003 214.114334,229.221996 214.073,230.09 C214.031666,230.958004 214.093666,231.815662 214.259,232.663 C214.424334,233.510338 214.744664,234.274997 215.22,234.957 C215.695336,235.639003 216.408329,236.124665 217.359,236.414 C217.93767,236.579334 218.619663,236.569001 219.405,236.383 C220.190337,236.196999 220.96533,235.856002 221.73,235.36 C222.49467,234.863998 223.217997,234.202671 223.9,233.376 C224.582003,232.549329 225.108998,231.598672 225.481,230.524 C225.894335,229.325327 225.904669,228.075007 225.512,226.773 C225.119331,225.470993 224.323673,224.53067 223.125,223.952 C222.835665,224.158668 222.546335,224.262 222.257,224.262 C221.967665,224.262 221.740334,224.220667 221.575,224.138 Z M245.197,209.816 C245.072999,209.071996 245.124666,208.390003 245.352,207.77 C245.579334,207.149997 246.04433,206.798667 246.747,206.716 C247.367003,206.633333 247.914664,206.798665 248.39,207.212 C248.865336,207.625335 249.164999,208.162663 249.289,208.824 C250.115671,213.577357 250.890663,218.299643 251.614,222.991 C252.337337,227.682357 252.98833,232.280644 253.567,236.786 C253.732334,237.984673 253.649668,238.800998 253.319,239.235 C252.988332,239.669002 252.595669,239.989332 252.141,240.196 C251.644998,240.402668 251.180002,240.402668 250.746,240.196 C250.311998,239.989332 250.033001,239.617336 249.909,239.08 L249.847,238.708 L249.599,238.77 C248.234993,239.266002 246.809007,239.545 245.321,239.607 C243.832993,239.669 242.407007,239.493335 241.043,239.08 C239.678993,238.666665 238.470005,237.995005 237.416,237.065 C236.361995,236.134995 235.607669,234.946674 235.153,233.5 C234.160995,230.317317 234.780989,227.424013 237.013,224.82 C237.963671,223.745328 239.14166,222.774004 240.547,221.906 C241.95234,221.037996 243.64699,220.356002 245.631,219.86 L246.747,219.612 L245.197,209.816 Z M238.935,231.95 C239.183001,232.942005 239.637663,233.706664 240.299,234.244 C240.960337,234.781336 241.745662,235.142999 242.655,235.329 C243.564338,235.515001 244.535661,235.546001 245.569,235.422 C246.602339,235.297999 247.614995,235.070668 248.607,234.74 L249.165,234.554 L247.429,223.642 L246.189,223.952 C245.320996,224.200001 244.401338,224.582331 243.43,225.099 C242.458662,225.615669 241.601004,226.22533 240.857,226.928 C240.112996,227.63067 239.544669,228.415996 239.152,229.284 C238.759331,230.152004 238.686999,231.040662 238.935,231.95 Z M276.073,221.72 C276.197001,223.952011 276.331333,226.204655 276.476,228.478 C276.620667,230.751345 276.651667,232.993656 276.569,235.205 C276.486333,237.416344 276.269335,239.575989 275.918,241.684 C275.566665,243.792011 274.977671,245.80699 274.151,247.729 C273.324329,249.65101 272.218674,251.438658 270.834,253.092 C269.449326,254.745342 267.703011,256.233327 265.595,257.556 C265.264332,257.762668 264.902669,257.886666 264.51,257.928 C264.117331,257.969334 263.735002,257.959 263.363,257.897 C262.990998,257.835 262.660335,257.731667 262.371,257.587 C262.081665,257.442333 261.895667,257.246001 261.813,256.998 C261.688999,256.625998 261.750999,256.212669 261.999,255.758 C262.247001,255.303331 262.66033,254.828002 263.239,254.332 C265.057676,252.967993 266.586994,251.521341 267.827,249.992 C269.067006,248.462659 270.058996,246.809342 270.803,245.032 C271.547004,243.254658 272.032666,241.322344 272.26,239.235 C272.487334,237.147656 272.477001,234.864012 272.229,232.384 C271.732998,233.004003 271.154337,233.644663 270.493,234.306 C269.831663,234.967337 269.129004,235.556331 268.385,236.073 C267.640996,236.589669 266.876337,237.023665 266.091,237.375 C265.305663,237.726335 264.56167,237.902 263.859,237.902 C263.28033,237.902 262.70167,237.778001 262.123,237.53 C261.54433,237.281999 260.96567,236.80667 260.387,236.104 C259.725663,235.235996 259.136669,234.254339 258.62,233.159 C258.103331,232.063661 257.659002,230.999338 257.287,229.966 C256.914998,228.932661 256.615334,228.002671 256.388,227.176 C256.160666,226.349329 256.026334,225.770668 255.985,225.44 C255.902333,225.026665 255.902333,224.634002 255.985,224.262 C256.067667,223.889998 256.336331,223.662667 256.791,223.58 C257.411003,223.455999 257.989664,223.497332 258.527,223.704 C259.064336,223.910668 259.436332,224.241331 259.643,224.696 C259.808334,225.150669 260.035665,225.853329 260.325,226.804 C260.614335,227.754671 260.965665,228.694995 261.379,229.625 C261.792335,230.555005 262.236664,231.37133 262.712,232.074 C263.187336,232.77667 263.693664,233.128 264.231,233.128 C264.851003,233.128 265.584662,232.818003 266.432,232.198 C267.279338,231.577997 268.095663,230.772005 268.881,229.78 C269.666337,228.787995 270.337997,227.682339 270.896,226.463 C271.454003,225.243661 271.733,224.055339 271.733,222.898 C271.733,222.649999 271.774333,222.360668 271.857,222.03 C271.939667,221.699332 272.063666,221.379002 272.229,221.069 C272.394334,220.758998 272.590666,220.490334 272.818,220.263 C273.045334,220.035666 273.282999,219.901334 273.531,219.86 C274.192337,219.777333 274.781331,219.952998 275.298,220.387 C275.814669,220.821002 276.073,221.265331 276.073,221.72 Z M146.338,270.784 C146.338,271.776005 146.327667,272.891994 146.307,274.132 C146.286333,275.372006 146.286333,276.653327 146.307,277.976 C146.327667,279.298673 146.348333,280.66266 146.369,282.068 C146.389667,283.47334 146.420666,284.81666 146.462,286.098 C146.875335,285.271329 147.37133,284.455004 147.95,283.649 C148.52867,282.842996 149.179663,282.130003 149.903,281.51 C150.626337,280.889997 151.390996,280.394002 152.197,280.022 C153.003004,279.649998 153.881329,279.464 154.832,279.464 C155.865339,279.464 156.784996,279.794663 157.591,280.456 C158.397004,281.117337 159.099664,281.995661 159.699,283.091 C160.298336,284.186339 160.804665,285.40566 161.218,286.749 C161.631335,288.09234 161.972332,289.456326 162.241,290.841 C162.509668,292.225674 162.705999,293.548327 162.83,294.809 C162.954001,296.069673 163.057333,297.154662 163.14,298.064 C163.14,298.725337 162.974668,299.262665 162.644,299.676 C162.313332,300.089335 161.920669,300.296 161.466,300.296 C161.135332,300.296 160.732336,300.079002 160.257,299.645 C159.781664,299.210998 159.440668,298.684003 159.234,298.064 C159.109999,297.567998 158.986001,296.844671 158.862,295.894 C158.737999,294.943329 158.593334,293.920339 158.428,292.825 C158.262666,291.729661 158.056001,290.624006 157.808,289.508 C157.559999,288.391994 157.260335,287.389671 156.909,286.501 C156.557665,285.612329 156.134002,284.920002 155.638,284.424 C155.141998,283.927998 154.563337,283.741999 153.902,283.866 C152.868662,284.072668 151.96967,284.795994 151.205,286.036 C150.44033,287.276006 149.779003,288.681325 149.221,290.252 C148.662997,291.822675 148.208335,293.413992 147.857,295.026 C147.505665,296.638008 147.247334,297.939995 147.082,298.932 C146.916666,299.676004 146.699668,300.182332 146.431,300.451 C146.162332,300.719668 145.862668,300.854 145.532,300.854 C145.201332,300.854 144.901668,300.688668 144.633,300.358 C144.364332,300.027332 144.116334,299.624336 143.889,299.149 C143.661666,298.673664 143.465334,298.177669 143.3,297.661 C143.134666,297.144331 143.031334,296.700002 142.99,296.328 C142.783332,294.095989 142.618001,291.95701 142.494,289.911 C142.369999,287.86499 142.277,285.808677 142.215,283.742 C142.153,281.675323 142.122,279.557011 142.122,277.387 C142.122,275.216989 142.163333,272.892012 142.246,270.412 C142.246,268.345323 142.989993,267.415332 144.478,267.622 C144.974002,267.704667 145.407998,268.06633 145.78,268.707 C146.152002,269.34767 146.338,270.039996 146.338,270.784 Z M182.608,283.68 C180.995992,284.630671 179.260009,285.364331 177.4,285.881 C175.539991,286.397669 173.535344,286.656 171.386,286.656 C171.468667,288.102674 171.881996,289.249662 172.626,290.097 C173.370004,290.944338 174.299994,291.450666 175.416,291.616 C176.077337,291.698667 176.748997,291.678001 177.431,291.554 C178.113003,291.429999 178.753664,291.233668 179.353,290.965 C179.952336,290.696332 180.499998,290.396668 180.996,290.066 C181.492002,289.735332 181.925998,289.404668 182.298,289.074 C182.670002,288.743332 183.062665,288.526334 183.476,288.423 C183.889335,288.319666 184.199332,288.309333 184.406,288.392 C184.98467,288.598668 185.191334,289.218661 185.026,290.252 C184.364663,291.574673 183.414006,292.700995 182.174,293.631 C180.933994,294.561005 179.549341,295.149999 178.02,295.398 C176.697327,295.646001 175.33334,295.584002 173.928,295.212 C172.52266,294.839998 171.262006,294.116672 170.146,293.042 C169.195329,292.091329 168.472002,290.97534 167.976,289.694 C167.479998,288.41266 167.170001,287.090007 167.046,285.726 C166.921999,284.44466 167.035665,283.225339 167.387,282.068 C167.738335,280.910661 168.285996,279.887671 169.03,278.999 C169.774004,278.110329 170.703994,277.37667 171.82,276.798 C172.936006,276.21933 174.237993,275.888667 175.726,275.806 C177.503342,275.681999 179.115326,276.012663 180.562,276.798 C182.008674,277.583337 183.02133,278.67866 183.6,280.084 C183.930668,280.869337 184.023667,281.55133 183.879,282.13 C183.734333,282.70867 183.31067,283.225331 182.608,283.68 Z M175.478,279.464 C175.064665,279.546667 174.620336,279.691332 174.145,279.898 C173.669664,280.104668 173.235669,280.362998 172.843,280.673 C172.450331,280.983002 172.099002,281.334331 171.789,281.727 C171.478998,282.119669 171.303334,282.563998 171.262,283.06 C171.96467,283.06 172.739662,282.998001 173.587,282.874 C174.434338,282.749999 175.260996,282.595001 176.067,282.409 C176.873004,282.222999 177.616997,282.006001 178.299,281.758 C178.981003,281.509999 179.549331,281.241335 180.004,280.952 C179.673332,280.166663 179.063671,279.681001 178.175,279.495 C177.286329,279.308999 176.387338,279.298666 175.478,279.464 Z M207.904,276.86 C207.159996,277.273335 206.385004,277.707331 205.579,278.162 C204.772996,278.616669 203.967004,279.143664 203.161,279.743 C202.354996,280.342336 201.590337,281.044996 200.867,281.851 C200.143663,282.657004 199.49267,283.617994 198.914,284.734 C198.087329,286.304675 197.529335,287.906325 197.24,289.539 C196.950665,291.171675 196.764667,292.773325 196.682,294.344 C196.682,295.088004 196.506335,295.84233 196.155,296.607 C195.803665,297.37167 195.318003,297.754 194.698,297.754 C193.912663,297.754 193.282336,297.351004 192.807,296.545 C192.331664,295.738996 192.011334,294.964004 191.846,294.22 C191.14333,291.285319 190.564669,288.381681 190.11,285.509 C189.655331,282.636319 189.262668,279.774014 188.932,276.922 C188.932,276.34333 189.107665,275.971334 189.459,275.806 C189.810335,275.640666 190.213331,275.578666 190.668,275.62 C191.164002,275.661334 191.639331,275.785332 192.094,275.992 C192.548669,276.198668 192.817333,276.529331 192.9,276.984 C193.065334,278.513341 193.271999,280.114992 193.52,281.789 C193.768001,283.463008 194.015999,284.899327 194.264,286.098 C194.429334,284.69266 194.883996,283.328673 195.628,282.006 C196.372004,280.683327 197.291661,279.484672 198.387,278.41 C199.482339,277.335328 200.722326,276.426004 202.107,275.682 C203.491674,274.937996 204.907326,274.442001 206.354,274.194 C206.974003,274.111333 207.490665,274.111333 207.904,274.194 C208.317335,274.276667 208.606666,274.421332 208.772,274.628 C208.937334,274.834668 208.968334,275.165331 208.865,275.62 C208.761666,276.074669 208.441336,276.487998 207.904,276.86 Z M226.628,283.68 C225.015992,284.630671 223.280009,285.364331 221.42,285.881 C219.559991,286.397669 217.555344,286.656 215.406,286.656 C215.488667,288.102674 215.901996,289.249662 216.646,290.097 C217.390004,290.944338 218.319994,291.450666 219.436,291.616 C220.097337,291.698667 220.768997,291.678001 221.451,291.554 C222.133003,291.429999 222.773664,291.233668 223.373,290.965 C223.972336,290.696332 224.519998,290.396668 225.016,290.066 C225.512002,289.735332 225.945998,289.404668 226.318,289.074 C226.690002,288.743332 227.082665,288.526334 227.496,288.423 C227.909335,288.319666 228.219332,288.309333 228.426,288.392 C229.00467,288.598668 229.211334,289.218661 229.046,290.252 C228.384663,291.574673 227.434006,292.700995 226.194,293.631 C224.953994,294.561005 223.569341,295.149999 222.04,295.398 C220.717327,295.646001 219.35334,295.584002 217.948,295.212 C216.54266,294.839998 215.282006,294.116672 214.166,293.042 C213.215329,292.091329 212.492002,290.97534 211.996,289.694 C211.499998,288.41266 211.190001,287.090007 211.066,285.726 C210.941999,284.44466 211.055665,283.225339 211.407,282.068 C211.758335,280.910661 212.305996,279.887671 213.05,278.999 C213.794004,278.110329 214.723994,277.37667 215.84,276.798 C216.956006,276.21933 218.257993,275.888667 219.746,275.806 C221.523342,275.681999 223.135326,276.012663 224.582,276.798 C226.028674,277.583337 227.04133,278.67866 227.62,280.084 C227.950668,280.869337 228.043667,281.55133 227.899,282.13 C227.754333,282.70867 227.33067,283.225331 226.628,283.68 Z M219.498,279.464 C219.084665,279.546667 218.640336,279.691332 218.165,279.898 C217.689664,280.104668 217.255669,280.362998 216.863,280.673 C216.470331,280.983002 216.119002,281.334331 215.809,281.727 C215.498998,282.119669 215.323334,282.563998 215.282,283.06 C215.98467,283.06 216.759662,282.998001 217.607,282.874 C218.454338,282.749999 219.280996,282.595001 220.087,282.409 C220.893004,282.222999 221.636997,282.006001 222.319,281.758 C223.001003,281.509999 223.569331,281.241335 224.024,280.952 C223.693332,280.166663 223.083671,279.681001 222.195,279.495 C221.306329,279.308999 220.407338,279.298666 219.498,279.464 Z M246.964,281.572 C246.426664,282.233337 245.848003,282.85333 245.228,283.432 C244.607997,284.01067 244.039669,284.609997 243.523,285.23 C243.006331,285.850003 242.603335,286.51133 242.314,287.214 C242.024665,287.91667 241.962666,288.722662 242.128,289.632 C242.417335,290.21067 242.541334,290.654998 242.5,290.965 C242.458666,291.275002 242.293335,291.533332 242.004,291.74 C241.259996,292.153335 240.516004,291.967337 239.772,291.182 C239.275998,290.644664 238.935001,289.99367 238.749,289.229 C238.562999,288.46433 238.521666,287.69967 238.625,286.935 C238.728334,286.17033 238.955665,285.416004 239.307,284.672 C239.658335,283.927996 240.12333,283.26667 240.702,282.688 C241.28067,282.10933 241.879997,281.49967 242.5,280.859 C243.120003,280.21833 243.677998,279.54667 244.174,278.844 C244.670002,278.14133 245.041999,277.428337 245.29,276.705 C245.538001,275.981663 245.600001,275.227337 245.476,274.442 C245.434666,274.152665 245.269335,273.894334 244.98,273.667 C244.690665,273.439666 244.318669,273.253667 243.864,273.109 C243.409331,272.964333 242.903003,272.881667 242.345,272.861 C241.786997,272.840333 241.21867,272.912666 240.64,273.078 C239.689329,273.367335 238.86267,273.873663 238.16,274.597 C237.45733,275.320337 237.085334,276.095329 237.044,276.922 C237.333335,277.583337 237.312668,278.037999 236.982,278.286 C236.692665,278.492668 236.393002,278.596 236.083,278.596 C235.772998,278.596 235.494001,278.513334 235.246,278.348 C234.253995,277.355995 233.830333,276.281339 233.975,275.124 C234.119667,273.966661 234.563996,272.912671 235.308,271.962 C236.01067,271.011329 236.909661,270.257003 238.005,269.699 C239.100339,269.140997 240.28866,268.820667 241.57,268.738 C243.182008,268.613999 244.700993,268.892997 246.127,269.575 C247.553007,270.257003 248.534664,271.403992 249.072,273.016 C249.609336,274.834676 249.609336,276.44666 249.072,277.852 C248.534664,279.25734 247.832004,280.497328 246.964,281.572 Z M244.794,300.792 C244.918001,301.37067 244.835335,301.887331 244.546,302.342 C244.256665,302.796669 243.874336,303.147999 243.399,303.396 C242.923664,303.644001 242.427669,303.747334 241.911,303.706 C241.394331,303.664666 240.950002,303.416669 240.578,302.962 C240.329999,302.672665 240.185334,302.342002 240.144,301.97 C240.102666,301.597998 240.113,301.205335 240.175,300.792 C240.237,300.378665 240.319666,299.986002 240.423,299.614 C240.526334,299.241998 240.578,298.911335 240.578,298.622 C240.578,298.497999 240.619333,298.353334 240.702,298.188 C240.784667,298.022666 240.898333,297.888334 241.043,297.785 C241.187667,297.681666 241.342666,297.63 241.508,297.63 C241.673334,297.63 241.859332,297.753999 242.066,298.002 C242.64467,298.456669 243.243997,298.921664 243.864,299.397 C244.484003,299.872336 244.794,300.337331 244.794,300.792 Z" id="Hello?-Is-there-anyb" fill="#4D394B"></path>
            </g>
            <g id="Bot:-Speechbubbel" transform="translate(563.000000, 92.000000)">
                <path d="M154.509786,313.569308 C160.200522,315.11061 314.134753,268.113021 292.801062,154.507593 C288.490035,89.026805 233.946393,37.8161006 167.941515,37.8161006 C98.8336083,37.8161006 42.8105811,93.7737945 42.8105811,162.801108 C42.8105811,231.828422 95.4981146,287.839079 174.453914,287.839079 C177.898539,293.765732 171.58074,302.210241 154.509786,313.569308 Z" id="Bubble" stroke="#4D394B" stroke-width="12.8" fill="#FAFEFF" stroke-linecap="round" stroke-linejoin="round" transform="translate(168.819536, 175.711022) rotate(22.000000) translate(-168.819536, -175.711022) "></path>
                <path d="M140.275824,118.406182 C140.441158,119.150186 140.606489,120.028511 140.771824,121.041182 C140.937158,122.053854 141.050823,123.107843 141.112824,124.203182 C141.174824,125.298521 141.185157,126.424843 141.143824,127.582182 C141.10249,128.739521 140.978491,129.85551 140.771824,130.930182 C140.523822,132.170188 140.027827,133.306844 139.283824,134.340182 C138.53982,135.373521 137.630496,136.303511 136.555824,137.130182 C135.522485,137.956853 134.375497,138.628513 133.114824,139.145182 C131.854151,139.661852 130.593497,140.033848 129.332824,140.261182 C128.072151,140.488517 126.832163,140.52985 125.612824,140.385182 C124.393484,140.240515 123.308495,139.899518 122.357824,139.362182 C121.283152,138.742179 120.41516,137.936187 119.753824,136.944182 C119.092487,135.952177 118.803156,134.732856 118.885824,133.286182 C118.968491,131.880842 119.092489,130.589188 119.257824,129.411182 C119.423158,128.233176 119.640156,127.106854 119.908824,126.032182 C120.177492,124.95751 120.477155,123.872521 120.807824,122.777182 C121.138492,121.681843 121.489822,120.534855 121.861824,119.336182 C122.068491,118.798846 122.440488,118.488849 122.977824,118.406182 C123.184491,118.364849 123.432489,118.364849 123.721824,118.406182 C123.845824,118.406182 124.021489,118.478515 124.248824,118.623182 C124.476158,118.76785 124.693156,118.964181 124.899824,119.212182 C125.106491,119.460184 125.282156,119.749514 125.426824,120.080182 C125.571491,120.410851 125.581824,120.782847 125.457824,121.196182 C125.085822,122.518856 124.713825,123.862175 124.341824,125.226182 C123.969822,126.590189 123.649492,127.892176 123.380824,129.132182 C123.112156,130.372188 122.946824,131.477844 122.884824,132.449182 C122.822823,133.42052 122.915822,134.174846 123.163824,134.712182 C123.70116,135.49752 124.434819,136.003848 125.364824,136.231182 C126.294828,136.458517 127.276485,136.489516 128.309824,136.324182 C129.343162,136.158848 130.345485,135.879851 131.316824,135.487182 C132.288162,135.094514 133.125153,134.670851 133.827824,134.216182 C134.943829,133.472179 135.760154,132.542188 136.276824,131.426182 C136.793493,130.310177 137.113823,129.090856 137.237824,127.768182 C137.361824,126.445509 137.351491,125.060856 137.206824,123.614182 C137.062156,122.167508 136.865825,120.741523 136.617824,119.336182 C136.535156,118.96418 136.555823,118.488852 136.679824,117.910182 C136.803824,117.331513 137.134488,116.876851 137.671824,116.546182 C138.250493,116.215514 138.777488,116.256847 139.252824,116.670182 C139.728159,117.083518 140.069156,117.662179 140.275824,118.406182 Z M150.381824,114.190182 C150.381824,115.182187 150.37149,116.298176 150.350824,117.538182 C150.330157,118.778188 150.330157,120.059509 150.350824,121.382182 C150.37149,122.704856 150.392157,124.068842 150.412824,125.474182 C150.43349,126.879523 150.46449,128.222843 150.505824,129.504182 C150.919159,128.677511 151.415154,127.861186 151.993824,127.055182 C152.572493,126.249178 153.223487,125.536185 153.946824,124.916182 C154.670161,124.296179 155.43482,123.800184 156.240824,123.428182 C157.046828,123.05618 157.925152,122.870182 158.875824,122.870182 C159.909162,122.870182 160.82882,123.200846 161.634824,123.862182 C162.440828,124.523519 163.143487,125.401843 163.742824,126.497182 C164.34216,127.592521 164.848488,128.811842 165.261824,130.155182 C165.675159,131.498522 166.016156,132.862509 166.284824,134.247182 C166.553492,135.631856 166.749823,136.954509 166.873824,138.215182 C166.997824,139.475855 167.101156,140.560844 167.183824,141.470182 C167.183824,142.131519 167.018492,142.668847 166.687824,143.082182 C166.357155,143.495518 165.964493,143.702182 165.509824,143.702182 C165.179155,143.702182 164.776159,143.485184 164.300824,143.051182 C163.825488,142.61718 163.484491,142.090185 163.277824,141.470182 C163.153823,140.97418 163.029824,140.250854 162.905824,139.300182 C162.781823,138.349511 162.637158,137.326521 162.471824,136.231182 C162.306489,135.135843 162.099825,134.030188 161.851824,132.914182 C161.603822,131.798177 161.304159,130.795853 160.952824,129.907182 C160.601488,129.018511 160.177826,128.326185 159.681824,127.830182 C159.185821,127.33418 158.60716,127.148182 157.945824,127.272182 C156.912485,127.47885 156.013494,128.202176 155.248824,129.442182 C154.484153,130.682188 153.822826,132.087508 153.264824,133.658182 C152.706821,135.228857 152.252159,136.820174 151.900824,138.432182 C151.549488,140.04419 151.291158,141.346177 151.125824,142.338182 C150.960489,143.082186 150.743492,143.588514 150.474824,143.857182 C150.206156,144.12585 149.906492,144.260182 149.575824,144.260182 C149.245155,144.260182 148.945492,144.094851 148.676824,143.764182 C148.408156,143.433514 148.160158,143.030518 147.932824,142.555182 C147.705489,142.079847 147.509158,141.583852 147.343824,141.067182 C147.178489,140.550513 147.075157,140.106184 147.033824,139.734182 C146.827156,137.502171 146.661824,135.363193 146.537824,133.317182 C146.413823,131.271172 146.320824,129.214859 146.258824,127.148182 C146.196823,125.081505 146.165824,122.963193 146.165824,120.793182 C146.165824,118.623171 146.207156,116.298195 146.289824,113.818182 C146.289824,111.751505 147.033816,110.821515 148.521824,111.028182 C149.017826,111.110849 149.451822,111.472512 149.823824,112.113182 C150.195825,112.753852 150.381824,113.446179 150.381824,114.190182 Z M175.987824,114.190182 C175.987824,115.182187 175.97749,116.298176 175.956824,117.538182 C175.936157,118.778188 175.936157,120.059509 175.956824,121.382182 C175.97749,122.704856 175.998157,124.068842 176.018824,125.474182 C176.03949,126.879523 176.07049,128.222843 176.111824,129.504182 C176.525159,128.677511 177.021154,127.861186 177.599824,127.055182 C178.178493,126.249178 178.829487,125.536185 179.552824,124.916182 C180.276161,124.296179 181.04082,123.800184 181.846824,123.428182 C182.652828,123.05618 183.531152,122.870182 184.481824,122.870182 C185.515162,122.870182 186.43482,123.200846 187.240824,123.862182 C188.046828,124.523519 188.749487,125.401843 189.348824,126.497182 C189.94816,127.592521 190.454488,128.811842 190.867824,130.155182 C191.281159,131.498522 191.622156,132.862509 191.890824,134.247182 C192.159492,135.631856 192.355823,136.954509 192.479824,138.215182 C192.603824,139.475855 192.707156,140.560844 192.789824,141.470182 C192.789824,142.131519 192.624492,142.668847 192.293824,143.082182 C191.963155,143.495518 191.570493,143.702182 191.115824,143.702182 C190.785155,143.702182 190.382159,143.485184 189.906824,143.051182 C189.431488,142.61718 189.090491,142.090185 188.883824,141.470182 C188.759823,140.97418 188.635824,140.250854 188.511824,139.300182 C188.387823,138.349511 188.243158,137.326521 188.077824,136.231182 C187.912489,135.135843 187.705825,134.030188 187.457824,132.914182 C187.209822,131.798177 186.910159,130.795853 186.558824,129.907182 C186.207488,129.018511 185.783826,128.326185 185.287824,127.830182 C184.791821,127.33418 184.21316,127.148182 183.551824,127.272182 C182.518485,127.47885 181.619494,128.202176 180.854824,129.442182 C180.090153,130.682188 179.428826,132.087508 178.870824,133.658182 C178.312821,135.228857 177.858159,136.820174 177.506824,138.432182 C177.155488,140.04419 176.897158,141.346177 176.731824,142.338182 C176.566489,143.082186 176.349492,143.588514 176.080824,143.857182 C175.812156,144.12585 175.512492,144.260182 175.181824,144.260182 C174.851155,144.260182 174.551492,144.094851 174.282824,143.764182 C174.014156,143.433514 173.766158,143.030518 173.538824,142.555182 C173.311489,142.079847 173.115158,141.583852 172.949824,141.067182 C172.784489,140.550513 172.681157,140.106184 172.639824,139.734182 C172.433156,137.502171 172.267824,135.363193 172.143824,133.317182 C172.019823,131.271172 171.926824,129.214859 171.864824,127.148182 C171.802823,125.081505 171.771824,122.963193 171.771824,120.793182 C171.771824,118.623171 171.813156,116.298195 171.895824,113.818182 C171.895824,111.751505 172.639816,110.821515 174.127824,111.028182 C174.623826,111.110849 175.057822,111.472512 175.429824,112.113182 C175.801825,112.753852 175.987824,113.446179 175.987824,114.190182 Z M201.593824,114.190182 C201.593824,115.182187 201.58349,116.298176 201.562824,117.538182 C201.542157,118.778188 201.542157,120.059509 201.562824,121.382182 C201.58349,122.704856 201.604157,124.068842 201.624824,125.474182 C201.64549,126.879523 201.67649,128.222843 201.717824,129.504182 C202.131159,128.677511 202.627154,127.861186 203.205824,127.055182 C203.784493,126.249178 204.435487,125.536185 205.158824,124.916182 C205.882161,124.296179 206.64682,123.800184 207.452824,123.428182 C208.258828,123.05618 209.137152,122.870182 210.087824,122.870182 C211.121162,122.870182 212.04082,123.200846 212.846824,123.862182 C213.652828,124.523519 214.355487,125.401843 214.954824,126.497182 C215.55416,127.592521 216.060488,128.811842 216.473824,130.155182 C216.887159,131.498522 217.228156,132.862509 217.496824,134.247182 C217.765492,135.631856 217.961823,136.954509 218.085824,138.215182 C218.209824,139.475855 218.313156,140.560844 218.395824,141.470182 C218.395824,142.131519 218.230492,142.668847 217.899824,143.082182 C217.569155,143.495518 217.176493,143.702182 216.721824,143.702182 C216.391155,143.702182 215.988159,143.485184 215.512824,143.051182 C215.037488,142.61718 214.696491,142.090185 214.489824,141.470182 C214.365823,140.97418 214.241824,140.250854 214.117824,139.300182 C213.993823,138.349511 213.849158,137.326521 213.683824,136.231182 C213.518489,135.135843 213.311825,134.030188 213.063824,132.914182 C212.815822,131.798177 212.516159,130.795853 212.164824,129.907182 C211.813488,129.018511 211.389826,128.326185 210.893824,127.830182 C210.397821,127.33418 209.81916,127.148182 209.157824,127.272182 C208.124485,127.47885 207.225494,128.202176 206.460824,129.442182 C205.696153,130.682188 205.034826,132.087508 204.476824,133.658182 C203.918821,135.228857 203.464159,136.820174 203.112824,138.432182 C202.761488,140.04419 202.503158,141.346177 202.337824,142.338182 C202.172489,143.082186 201.955492,143.588514 201.686824,143.857182 C201.418156,144.12585 201.118492,144.260182 200.787824,144.260182 C200.457155,144.260182 200.157492,144.094851 199.888824,143.764182 C199.620156,143.433514 199.372158,143.030518 199.144824,142.555182 C198.917489,142.079847 198.721158,141.583852 198.555824,141.067182 C198.390489,140.550513 198.287157,140.106184 198.245824,139.734182 C198.039156,137.502171 197.873824,135.363193 197.749824,133.317182 C197.625823,131.271172 197.532824,129.214859 197.470824,127.148182 C197.408823,125.081505 197.377824,122.963193 197.377824,120.793182 C197.377824,118.623171 197.419156,116.298195 197.501824,113.818182 C197.501824,111.751505 198.245816,110.821515 199.733824,111.028182 C200.229826,111.110849 200.663822,111.472512 201.035824,112.113182 C201.407825,112.753852 201.593824,113.446179 201.593824,114.190182 Z M224.285824,154.242182 C223.955155,153.952848 223.872489,153.580851 224.037824,153.126182 C224.203158,152.671513 224.368489,152.278851 224.533824,151.948182 C224.947159,150.997511 225.319155,149.995188 225.649824,148.941182 C225.980492,147.887177 226.249156,146.760855 226.455824,145.562182 C226.538491,145.024846 226.827821,144.559851 227.323824,144.167182 C227.819826,143.774514 228.481153,143.702181 229.307824,143.950182 C229.638492,144.115516 229.834823,144.353181 229.896824,144.663182 C229.958824,144.973184 229.989824,145.31418 229.989824,145.686182 C229.989824,146.264852 229.917491,146.936512 229.772824,147.701182 C229.628156,148.465853 229.431825,149.209845 229.183824,149.933182 C228.935822,150.656519 228.646492,151.328179 228.315824,151.948182 C227.985155,152.568185 227.675158,153.043514 227.385824,153.374182 C226.889821,153.911518 226.362826,154.273181 225.804824,154.459182 C225.246821,154.645183 224.740493,154.572851 224.285824,154.242182 Z M94.3028236,180.304182 C94.0548223,181.420188 93.8068248,182.649842 93.5588236,183.993182 C93.3108223,185.336522 93.1351574,186.628176 93.0318236,187.868182 C92.9284897,189.108188 92.9284897,190.224177 93.0318236,191.216182 C93.1351574,192.208187 93.3934882,192.910847 93.8068236,193.324182 C94.5094937,193.448183 95.3154857,193.148519 96.2248236,192.425182 C97.1341614,191.701845 98.0228192,190.782188 98.8908236,189.666182 C99.7588279,188.550177 100.544153,187.341189 101.246824,186.039182 C101.949494,184.737176 102.445489,183.590187 102.734824,182.598182 C102.900158,182.10218 103.044823,181.585518 103.168824,181.048182 C103.292824,180.510846 103.354824,179.952852 103.354824,179.374182 C103.354824,179.043514 103.571821,178.723184 104.005824,178.413182 C104.439826,178.103181 104.801489,177.927516 105.090824,177.886182 C105.297491,177.844849 105.535156,177.886182 105.803824,178.010182 C106.072492,178.134183 106.320489,178.309848 106.547824,178.537182 C106.775158,178.764517 106.981823,179.033181 107.167824,179.343182 C107.353824,179.653184 107.446824,179.973514 107.446824,180.304182 C107.529491,181.544188 107.653489,182.908175 107.818824,184.396182 C107.984158,185.88419 108.180489,187.372175 108.407824,188.860182 C108.635158,190.34819 108.872822,191.794842 109.120824,193.200182 C109.368825,194.605523 109.616822,195.866177 109.864824,196.982182 C109.988824,197.436851 109.864825,197.953513 109.492824,198.532182 C109.120822,199.110852 108.707493,199.462182 108.252824,199.586182 C107.880822,199.668849 107.498492,199.627516 107.105824,199.462182 C106.713155,199.296848 106.413491,198.966185 106.206824,198.470182 C106.000156,197.891513 105.803824,197.17852 105.617824,196.331182 C105.431823,195.483845 105.266491,194.595187 105.121824,193.665182 C104.977156,192.735178 104.842824,191.84652 104.718824,190.999182 C104.594823,190.151845 104.512157,189.438852 104.470824,188.860182 C103.85082,189.976188 103.117161,191.10251 102.269824,192.239182 C101.422486,193.375855 100.513162,194.409178 99.5418236,195.339182 C98.5704854,196.269187 97.5578288,196.992513 96.5038236,197.509182 C95.4498183,198.025852 94.3648291,198.222183 93.2488236,198.098182 C91.595482,197.891515 90.3348279,196.34153 89.4668236,193.448182 C89.1361552,192.290843 88.9811568,191.009523 89.0018236,189.604182 C89.0224903,188.198842 89.1258226,186.803856 89.3118236,185.419182 C89.4978245,184.034509 89.7251556,182.722188 89.9938236,181.482182 C90.2624916,180.242176 90.5001559,179.22952 90.7068236,178.444182 C90.7894906,178.113514 90.9548223,177.81385 91.2028236,177.545182 C91.4508248,177.276514 91.7401552,177.183515 92.0708236,177.266182 C92.6908267,177.390183 93.2591543,177.762179 93.7758236,178.382182 C94.2924928,179.002185 94.4681577,179.642846 94.3028236,180.304182 Z M119.722824,180.304182 C119.474822,181.420188 119.226825,182.649842 118.978824,183.993182 C118.730822,185.336522 118.555157,186.628176 118.451824,187.868182 C118.34849,189.108188 118.34849,190.224177 118.451824,191.216182 C118.555157,192.208187 118.813488,192.910847 119.226824,193.324182 C119.929494,193.448183 120.735486,193.148519 121.644824,192.425182 C122.554161,191.701845 123.442819,190.782188 124.310824,189.666182 C125.178828,188.550177 125.964153,187.341189 126.666824,186.039182 C127.369494,184.737176 127.865489,183.590187 128.154824,182.598182 C128.320158,182.10218 128.464823,181.585518 128.588824,181.048182 C128.712824,180.510846 128.774824,179.952852 128.774824,179.374182 C128.774824,179.043514 128.991821,178.723184 129.425824,178.413182 C129.859826,178.103181 130.221489,177.927516 130.510824,177.886182 C130.717491,177.844849 130.955156,177.886182 131.223824,178.010182 C131.492492,178.134183 131.740489,178.309848 131.967824,178.537182 C132.195158,178.764517 132.401823,179.033181 132.587824,179.343182 C132.773824,179.653184 132.866824,179.973514 132.866824,180.304182 C132.949491,181.544188 133.073489,182.908175 133.238824,184.396182 C133.404158,185.88419 133.600489,187.372175 133.827824,188.860182 C134.055158,190.34819 134.292822,191.794842 134.540824,193.200182 C134.788825,194.605523 135.036822,195.866177 135.284824,196.982182 C135.408824,197.436851 135.284825,197.953513 134.912824,198.532182 C134.540822,199.110852 134.127493,199.462182 133.672824,199.586182 C133.300822,199.668849 132.918492,199.627516 132.525824,199.462182 C132.133155,199.296848 131.833491,198.966185 131.626824,198.470182 C131.420156,197.891513 131.223824,197.17852 131.037824,196.331182 C130.851823,195.483845 130.686491,194.595187 130.541824,193.665182 C130.397156,192.735178 130.262824,191.84652 130.138824,190.999182 C130.014823,190.151845 129.932157,189.438852 129.890824,188.860182 C129.27082,189.976188 128.537161,191.10251 127.689824,192.239182 C126.842486,193.375855 125.933162,194.409178 124.961824,195.339182 C123.990485,196.269187 122.977829,196.992513 121.923824,197.509182 C120.869818,198.025852 119.784829,198.222183 118.668824,198.098182 C117.015482,197.891515 115.754828,196.34153 114.886824,193.448182 C114.556155,192.290843 114.401157,191.009523 114.421824,189.604182 C114.44249,188.198842 114.545823,186.803856 114.731824,185.419182 C114.917824,184.034509 115.145156,182.722188 115.413824,181.482182 C115.682492,180.242176 115.920156,179.22952 116.126824,178.444182 C116.209491,178.113514 116.374822,177.81385 116.622824,177.545182 C116.870825,177.276514 117.160155,177.183515 117.490824,177.266182 C118.110827,177.390183 118.679154,177.762179 119.195824,178.382182 C119.712493,179.002185 119.888158,179.642846 119.722824,180.304182 Z M145.142824,180.304182 C144.894822,181.420188 144.646825,182.649842 144.398824,183.993182 C144.150822,185.336522 143.975157,186.628176 143.871824,187.868182 C143.76849,189.108188 143.76849,190.224177 143.871824,191.216182 C143.975157,192.208187 144.233488,192.910847 144.646824,193.324182 C145.349494,193.448183 146.155486,193.148519 147.064824,192.425182 C147.974161,191.701845 148.862819,190.782188 149.730824,189.666182 C150.598828,188.550177 151.384153,187.341189 152.086824,186.039182 C152.789494,184.737176 153.285489,183.590187 153.574824,182.598182 C153.740158,182.10218 153.884823,181.585518 154.008824,181.048182 C154.132824,180.510846 154.194824,179.952852 154.194824,179.374182 C154.194824,179.043514 154.411821,178.723184 154.845824,178.413182 C155.279826,178.103181 155.641489,177.927516 155.930824,177.886182 C156.137491,177.844849 156.375156,177.886182 156.643824,178.010182 C156.912492,178.134183 157.160489,178.309848 157.387824,178.537182 C157.615158,178.764517 157.821823,179.033181 158.007824,179.343182 C158.193824,179.653184 158.286824,179.973514 158.286824,180.304182 C158.369491,181.544188 158.493489,182.908175 158.658824,184.396182 C158.824158,185.88419 159.020489,187.372175 159.247824,188.860182 C159.475158,190.34819 159.712822,191.794842 159.960824,193.200182 C160.208825,194.605523 160.456822,195.866177 160.704824,196.982182 C160.828824,197.436851 160.704825,197.953513 160.332824,198.532182 C159.960822,199.110852 159.547493,199.462182 159.092824,199.586182 C158.720822,199.668849 158.338492,199.627516 157.945824,199.462182 C157.553155,199.296848 157.253491,198.966185 157.046824,198.470182 C156.840156,197.891513 156.643824,197.17852 156.457824,196.331182 C156.271823,195.483845 156.106491,194.595187 155.961824,193.665182 C155.817156,192.735178 155.682824,191.84652 155.558824,190.999182 C155.434823,190.151845 155.352157,189.438852 155.310824,188.860182 C154.69082,189.976188 153.957161,191.10251 153.109824,192.239182 C152.262486,193.375855 151.353162,194.409178 150.381824,195.339182 C149.410485,196.269187 148.397829,196.992513 147.343824,197.509182 C146.289818,198.025852 145.204829,198.222183 144.088824,198.098182 C142.435482,197.891515 141.174828,196.34153 140.306824,193.448182 C139.976155,192.290843 139.821157,191.009523 139.841824,189.604182 C139.86249,188.198842 139.965823,186.803856 140.151824,185.419182 C140.337824,184.034509 140.565156,182.722188 140.833824,181.482182 C141.102492,180.242176 141.340156,179.22952 141.546824,178.444182 C141.629491,178.113514 141.794822,177.81385 142.042824,177.545182 C142.290825,177.276514 142.580155,177.183515 142.910824,177.266182 C143.530827,177.390183 144.099154,177.762179 144.615824,178.382182 C145.132493,179.002185 145.308158,179.642846 145.142824,180.304182 Z M169.570824,171.190182 C169.570824,172.182187 169.56049,173.298176 169.539824,174.538182 C169.519157,175.778188 169.519157,177.059509 169.539824,178.382182 C169.56049,179.704856 169.581157,181.068842 169.601824,182.474182 C169.62249,183.879523 169.65349,185.222843 169.694824,186.504182 C170.108159,185.677511 170.604154,184.861186 171.182824,184.055182 C171.761493,183.249178 172.412487,182.536185 173.135824,181.916182 C173.859161,181.296179 174.62382,180.800184 175.429824,180.428182 C176.235828,180.05618 177.114152,179.870182 178.064824,179.870182 C179.098162,179.870182 180.01782,180.200846 180.823824,180.862182 C181.629828,181.523519 182.332487,182.401843 182.931824,183.497182 C183.53116,184.592521 184.037488,185.811842 184.450824,187.155182 C184.864159,188.498522 185.205156,189.862509 185.473824,191.247182 C185.742492,192.631856 185.938823,193.954509 186.062824,195.215182 C186.186824,196.475855 186.290156,197.560844 186.372824,198.470182 C186.372824,199.131519 186.207492,199.668847 185.876824,200.082182 C185.546155,200.495518 185.153493,200.702182 184.698824,200.702182 C184.368155,200.702182 183.965159,200.485184 183.489824,200.051182 C183.014488,199.61718 182.673491,199.090185 182.466824,198.470182 C182.342823,197.97418 182.218824,197.250854 182.094824,196.300182 C181.970823,195.349511 181.826158,194.326521 181.660824,193.231182 C181.495489,192.135843 181.288825,191.030188 181.040824,189.914182 C180.792822,188.798177 180.493159,187.795853 180.141824,186.907182 C179.790488,186.018511 179.366826,185.326185 178.870824,184.830182 C178.374821,184.33418 177.79616,184.148182 177.134824,184.272182 C176.101485,184.47885 175.202494,185.202176 174.437824,186.442182 C173.673153,187.682188 173.011826,189.087508 172.453824,190.658182 C171.895821,192.228857 171.441159,193.820174 171.089824,195.432182 C170.738488,197.04419 170.480158,198.346177 170.314824,199.338182 C170.149489,200.082186 169.932492,200.588514 169.663824,200.857182 C169.395156,201.12585 169.095492,201.260182 168.764824,201.260182 C168.434155,201.260182 168.134492,201.094851 167.865824,200.764182 C167.597156,200.433514 167.349158,200.030518 167.121824,199.555182 C166.894489,199.079847 166.698158,198.583852 166.532824,198.067182 C166.367489,197.550513 166.264157,197.106184 166.222824,196.734182 C166.016156,194.502171 165.850824,192.363193 165.726824,190.317182 C165.602823,188.271172 165.509824,186.214859 165.447824,184.148182 C165.385823,182.081505 165.354824,179.963193 165.354824,177.793182 C165.354824,175.623171 165.396156,173.298195 165.478824,170.818182 C165.478824,168.751505 166.222816,167.821515 167.710824,168.028182 C168.206826,168.110849 168.640822,168.472512 169.012824,169.113182 C169.384825,169.753852 169.570824,170.446179 169.570824,171.190182 Z M195.176824,171.190182 C195.176824,172.182187 195.16649,173.298176 195.145824,174.538182 C195.125157,175.778188 195.125157,177.059509 195.145824,178.382182 C195.16649,179.704856 195.187157,181.068842 195.207824,182.474182 C195.22849,183.879523 195.25949,185.222843 195.300824,186.504182 C195.714159,185.677511 196.210154,184.861186 196.788824,184.055182 C197.367493,183.249178 198.018487,182.536185 198.741824,181.916182 C199.465161,181.296179 200.22982,180.800184 201.035824,180.428182 C201.841828,180.05618 202.720152,179.870182 203.670824,179.870182 C204.704162,179.870182 205.62382,180.200846 206.429824,180.862182 C207.235828,181.523519 207.938487,182.401843 208.537824,183.497182 C209.13716,184.592521 209.643488,185.811842 210.056824,187.155182 C210.470159,188.498522 210.811156,189.862509 211.079824,191.247182 C211.348492,192.631856 211.544823,193.954509 211.668824,195.215182 C211.792824,196.475855 211.896156,197.560844 211.978824,198.470182 C211.978824,199.131519 211.813492,199.668847 211.482824,200.082182 C211.152155,200.495518 210.759493,200.702182 210.304824,200.702182 C209.974155,200.702182 209.571159,200.485184 209.095824,200.051182 C208.620488,199.61718 208.279491,199.090185 208.072824,198.470182 C207.948823,197.97418 207.824824,197.250854 207.700824,196.300182 C207.576823,195.349511 207.432158,194.326521 207.266824,193.231182 C207.101489,192.135843 206.894825,191.030188 206.646824,189.914182 C206.398822,188.798177 206.099159,187.795853 205.747824,186.907182 C205.396488,186.018511 204.972826,185.326185 204.476824,184.830182 C203.980821,184.33418 203.40216,184.148182 202.740824,184.272182 C201.707485,184.47885 200.808494,185.202176 200.043824,186.442182 C199.279153,187.682188 198.617826,189.087508 198.059824,190.658182 C197.501821,192.228857 197.047159,193.820174 196.695824,195.432182 C196.344488,197.04419 196.086158,198.346177 195.920824,199.338182 C195.755489,200.082186 195.538492,200.588514 195.269824,200.857182 C195.001156,201.12585 194.701492,201.260182 194.370824,201.260182 C194.040155,201.260182 193.740492,201.094851 193.471824,200.764182 C193.203156,200.433514 192.955158,200.030518 192.727824,199.555182 C192.500489,199.079847 192.304158,198.583852 192.138824,198.067182 C191.973489,197.550513 191.870157,197.106184 191.828824,196.734182 C191.622156,194.502171 191.456824,192.363193 191.332824,190.317182 C191.208823,188.271172 191.115824,186.214859 191.053824,184.148182 C190.991823,182.081505 190.960824,179.963193 190.960824,177.793182 C190.960824,175.623171 191.002156,173.298195 191.084824,170.818182 C191.084824,168.751505 191.828816,167.821515 193.316824,168.028182 C193.812826,168.110849 194.246822,168.472512 194.618824,169.113182 C194.990825,169.753852 195.176824,170.446179 195.176824,171.190182 Z M220.782824,171.190182 C220.782824,172.182187 220.77249,173.298176 220.751824,174.538182 C220.731157,175.778188 220.731157,177.059509 220.751824,178.382182 C220.77249,179.704856 220.793157,181.068842 220.813824,182.474182 C220.83449,183.879523 220.86549,185.222843 220.906824,186.504182 C221.320159,185.677511 221.816154,184.861186 222.394824,184.055182 C222.973493,183.249178 223.624487,182.536185 224.347824,181.916182 C225.071161,181.296179 225.83582,180.800184 226.641824,180.428182 C227.447828,180.05618 228.326152,179.870182 229.276824,179.870182 C230.310162,179.870182 231.22982,180.200846 232.035824,180.862182 C232.841828,181.523519 233.544487,182.401843 234.143824,183.497182 C234.74316,184.592521 235.249488,185.811842 235.662824,187.155182 C236.076159,188.498522 236.417156,189.862509 236.685824,191.247182 C236.954492,192.631856 237.150823,193.954509 237.274824,195.215182 C237.398824,196.475855 237.502156,197.560844 237.584824,198.470182 C237.584824,199.131519 237.419492,199.668847 237.088824,200.082182 C236.758155,200.495518 236.365493,200.702182 235.910824,200.702182 C235.580155,200.702182 235.177159,200.485184 234.701824,200.051182 C234.226488,199.61718 233.885491,199.090185 233.678824,198.470182 C233.554823,197.97418 233.430824,197.250854 233.306824,196.300182 C233.182823,195.349511 233.038158,194.326521 232.872824,193.231182 C232.707489,192.135843 232.500825,191.030188 232.252824,189.914182 C232.004822,188.798177 231.705159,187.795853 231.353824,186.907182 C231.002488,186.018511 230.578826,185.326185 230.082824,184.830182 C229.586821,184.33418 229.00816,184.148182 228.346824,184.272182 C227.313485,184.47885 226.414494,185.202176 225.649824,186.442182 C224.885153,187.682188 224.223826,189.087508 223.665824,190.658182 C223.107821,192.228857 222.653159,193.820174 222.301824,195.432182 C221.950488,197.04419 221.692158,198.346177 221.526824,199.338182 C221.361489,200.082186 221.144492,200.588514 220.875824,200.857182 C220.607156,201.12585 220.307492,201.260182 219.976824,201.260182 C219.646155,201.260182 219.346492,201.094851 219.077824,200.764182 C218.809156,200.433514 218.561158,200.030518 218.333824,199.555182 C218.106489,199.079847 217.910158,198.583852 217.744824,198.067182 C217.579489,197.550513 217.476157,197.106184 217.434824,196.734182 C217.228156,194.502171 217.062824,192.363193 216.938824,190.317182 C216.814823,188.271172 216.721824,186.214859 216.659824,184.148182 C216.597823,182.081505 216.566824,179.963193 216.566824,177.793182 C216.566824,175.623171 216.608156,173.298195 216.690824,170.818182 C216.690824,168.751505 217.434816,167.821515 218.922824,168.028182 C219.418826,168.110849 219.852822,168.472512 220.224824,169.113182 C220.596825,169.753852 220.782824,170.446179 220.782824,171.190182 Z M246.388824,171.190182 C246.388824,172.182187 246.37849,173.298176 246.357824,174.538182 C246.337157,175.778188 246.337157,177.059509 246.357824,178.382182 C246.37849,179.704856 246.399157,181.068842 246.419824,182.474182 C246.44049,183.879523 246.47149,185.222843 246.512824,186.504182 C246.926159,185.677511 247.422154,184.861186 248.000824,184.055182 C248.579493,183.249178 249.230487,182.536185 249.953824,181.916182 C250.677161,181.296179 251.44182,180.800184 252.247824,180.428182 C253.053828,180.05618 253.932152,179.870182 254.882824,179.870182 C255.916162,179.870182 256.83582,180.200846 257.641824,180.862182 C258.447828,181.523519 259.150487,182.401843 259.749824,183.497182 C260.34916,184.592521 260.855488,185.811842 261.268824,187.155182 C261.682159,188.498522 262.023156,189.862509 262.291824,191.247182 C262.560492,192.631856 262.756823,193.954509 262.880824,195.215182 C263.004824,196.475855 263.108156,197.560844 263.190824,198.470182 C263.190824,199.131519 263.025492,199.668847 262.694824,200.082182 C262.364155,200.495518 261.971493,200.702182 261.516824,200.702182 C261.186155,200.702182 260.783159,200.485184 260.307824,200.051182 C259.832488,199.61718 259.491491,199.090185 259.284824,198.470182 C259.160823,197.97418 259.036824,197.250854 258.912824,196.300182 C258.788823,195.349511 258.644158,194.326521 258.478824,193.231182 C258.313489,192.135843 258.106825,191.030188 257.858824,189.914182 C257.610822,188.798177 257.311159,187.795853 256.959824,186.907182 C256.608488,186.018511 256.184826,185.326185 255.688824,184.830182 C255.192821,184.33418 254.61416,184.148182 253.952824,184.272182 C252.919485,184.47885 252.020494,185.202176 251.255824,186.442182 C250.491153,187.682188 249.829826,189.087508 249.271824,190.658182 C248.713821,192.228857 248.259159,193.820174 247.907824,195.432182 C247.556488,197.04419 247.298158,198.346177 247.132824,199.338182 C246.967489,200.082186 246.750492,200.588514 246.481824,200.857182 C246.213156,201.12585 245.913492,201.260182 245.582824,201.260182 C245.252155,201.260182 244.952492,201.094851 244.683824,200.764182 C244.415156,200.433514 244.167158,200.030518 243.939824,199.555182 C243.712489,199.079847 243.516158,198.583852 243.350824,198.067182 C243.185489,197.550513 243.082157,197.106184 243.040824,196.734182 C242.834156,194.502171 242.668824,192.363193 242.544824,190.317182 C242.420823,188.271172 242.327824,186.214859 242.265824,184.148182 C242.203823,182.081505 242.172824,179.963193 242.172824,177.793182 C242.172824,175.623171 242.214156,173.298195 242.296824,170.818182 C242.296824,168.751505 243.040816,167.821515 244.528824,168.028182 C245.024826,168.110849 245.458822,168.472512 245.830824,169.113182 C246.202825,169.753852 246.388824,170.446179 246.388824,171.190182 Z" id="Uhhh,-uuuhhhh" fill="#4D394B"></path>
            </g>
            <circle id="Oval-4" fill="#4D394B" cx="543.5" cy="640.5" r="19.5"></circle>
        </g>
    </g>
</svg>