<?xml version="1.0" encoding="UTF-8"?>
<svg width="960px" height="960px" viewBox="0 0 960 960" version="1.1" xmlns="http://www.w3.org/2000/svg" xmlns:xlink="http://www.w3.org/1999/xlink">
    <!-- Generator: Sketch 44.1 (41455) - http://www.bohemiancoding.com/sketch -->
    <title>not-signed-in</title>
    <desc>Created with Sketch.</desc>
    <defs></defs>
    <g id="Illustrations-app" stroke="none" stroke-width="1" fill="none" fill-rule="evenodd">
        <g id="not-signed-in">
            <g id="Bot:-Color" transform="translate(75.000000, 475.000000)">
                <path d="M229.075996,467.751535 C381.904958,463.376545 432.627087,441.866679 402.047329,423.083295 C371.467572,404.299911 333.720455,410.49455 212.267427,410.49455 C90.8143997,410.49455 23.5654897,411.820024 4.43229475,435.261257 C-14.7009002,458.70249 76.247035,472.126525 229.075996,467.751535 Z" id="Shadow" fill-opacity="0.097826087" fill="#000000" transform="translate(206.222831, 439.044588) rotate(2.000000) translate(-206.222831, -439.044588) "></path>
                <g id="Fill" transform="translate(29.385612, 0.000000)">
                    <path d="M363.237562,380.181081 C352.043289,400.178969 272.30245,419.046719 183.395478,419.046719 C94.488507,419.046719 21.4775204,394.308361 5.61752239,380.181081 C-10.2424756,366.053802 13.6014388,354.342432 13.6014388,354.342432 L13.6014388,155.91067 C13.6014388,70.4095421 84.7747656,0 169.722302,0 L198.107914,0 C283.0626,0 354.228777,70.4057841 354.228777,155.91067 L354.228777,354.342432 C354.228777,354.342432 374.431835,360.183194 363.237562,380.181081 Z" id="Rectangle" fill="#FF9F72"></path>
                    <path d="M183.915108,198.431762 C215.268989,198.431762 240.686331,173.04864 240.686331,141.736973 C240.686331,110.425305 215.268989,85.0421836 183.915108,85.0421836 C152.561227,85.0421836 127.143885,110.425305 127.143885,141.736973 C127.143885,173.04864 152.561227,198.431762 183.915108,198.431762 Z" id="Oval" fill="#FFFFFF"></path>
                    <path d="M333.695676,87.3278465 C328.977767,85.8429138 323.955901,85.0421836 318.746763,85.0421836 C291.312117,85.0421836 269.071942,107.252415 269.071942,134.650124 C269.071942,162.047833 291.312117,184.258065 318.746763,184.258065 L318.746763,184.258065 C331.298044,184.258065 342.762102,179.609375 351.506708,171.942028" id="Oval" fill="#FFFFFF"></path>
                    <path d="M143.169721,374.550022 C142.515182,370.563212 141.336691,360.592398 141.336691,340.480178 C141.336691,312.635403 127.143885,311.638815 127.143885,283.473945 C127.143885,255.309076 127.143885,241.491773 127.143885,227.337138 C127.143885,169.524175 113.658232,184.035428 113.658232,141.77308 C113.658232,99.5107323 136.997195,80.0614933 156.10472,71.0681909 C201.109898,49.8856897 197.864576,9.83884274 197.864576,9.83884274 C197.864576,9.83884274 127.194696,7.5810084 88.491839,32.6197559 C49.7889824,57.6585035 27.7942446,64.4775585 23.332017,141.773084 C19.3326941,211.050088 26.0866886,326.90017 27.5310265,350.19086 C22.9877363,349.1808 20.3829147,348.595768 20.3829147,348.595768 L1.90704667,360.016517 L7.67306,385.469464 L96.1473722,412.820064 L204.651288,417.550059 C204.651288,417.550059 217.919009,395.093751 203.401546,378.481655 C184.280112,374.774481 170.996982,379.35338 165.401638,378.481655 C159.375867,377.542871 151.752898,376.181343 143.169721,374.550022 Z" id="Combined-Shape" fill-opacity="0.696218297" fill="#858585"></path>
                </g>
                <g id="Stroke" transform="translate(28.794245, 0.000000)">
                    <path d="M354.820144,354.342432 L342.020144,354.342432 L342.020144,155.91067 C342.020144,77.7155657 276.82618,12.8 198.699281,12.8 L170.313669,12.8 C92.1927146,12.8 26.9928058,77.7205208 26.9928058,155.91067 L26.9928058,354.342432 L14.1928058,354.342432 L14.1928058,155.91067 C14.1928058,70.4095421 85.3661325,0 170.313669,0 L198.699281,0 C283.653967,0 354.820144,70.4057841 354.820144,155.91067 L354.820144,354.342432 Z" id="Rectangle" fill="#4D394B" fill-rule="nonzero"></path>
                    <path d="M77.383101,155.720975 L51.7988645,157.102332 C54.3573799,156.891913 54.7753109,156.220469 54.7753109,156.545751 L54.7753109,195.885541 C54.7753109,196.441502 54.6485574,196.229921 52.0691537,195.867783 L77.5825854,198.628108 C73.8361463,198.35457 72.9599409,199.76924 72.9599409,199.128148 L72.9599409,155.593169 C72.9599409,154.571552 72.7726749,153.830609 72.6764346,153.670727 C73.3004169,154.707336 74.873609,155.790568 77.0851353,155.732924 L77.383101,155.720975 Z M85.1568345,155.593169 L85.1568345,199.128148 C85.1568345,206.884073 81.4156011,212.934115 76.8081964,212.597715 L50.9270554,209.804129 C46.3162299,209.145384 42.5784173,202.888877 42.5784173,195.885541 L42.5784173,156.545751 C42.5784173,149.537215 46.3196507,143.519212 50.9270554,143.140287 L76.8081964,141.738684 C81.4190219,141.618503 85.1568345,147.842998 85.1568345,155.593169 Z" id="Rectangle-2" fill="#4D394B" fill-rule="nonzero"></path>
                    <path d="M63.8676259,345.881814 L63.8676259,319.096779 M63.8676259,290.758901 L63.8676259,276.654411 M63.8676259,248.147839 L63.8676259,204.143111 M63.8676259,141.736973 C69.4590284,82.1136935 107.561696,29.8685747 160.201815,8.01076884" id="Rectangle" stroke="#4D394B" stroke-width="12.8" stroke-linecap="round" stroke-linejoin="round"></path>
                    <path d="M84.4094708,365.179442 C79.4693383,364.162759 74.6175688,363.080944 69.8559893,361.938173 C57.5163479,358.976679 46.7182149,355.818876 37.5584129,352.683442 C32.2224263,350.856914 28.7157831,349.49011 27.1355997,348.802693 C17.0276034,344.405478 5.52399968,349.666836 1.44158164,360.554266 C-2.6408364,371.441696 2.24385991,383.832349 12.3518562,388.229565 C21.4673522,392.195019 38.0236334,397.862295 61.2703943,403.44148 C99.5466967,412.62773 142.982246,418.124069 190.810716,418.124069 C238.771176,418.124069 279.91937,412.592229 314.279594,403.311927 C335.409953,397.604861 349.845326,391.730083 357.631552,387.485802 C367.358186,382.183801 371.252764,369.392669 366.330335,358.916008 C361.407906,348.439347 349.532494,344.244456 339.805859,349.546456 C338.803868,350.092643 336.191961,351.335595 331.961809,353.057144 C324.505095,356.09181 315.413744,359.168094 304.677888,362.067725 C273.440644,370.504545 235.516327,375.602978 190.810716,375.602978 C176.803187,375.602978 163.21201,375.101919 150.060358,374.152763 M127.017322,371.989234 C120.547256,371.238377 114.196357,370.378028 107.967748,369.415324" id="Line" stroke="#4D394B" stroke-width="12.8" stroke-linecap="round" fill-rule="nonzero"></path>
                    <path d="M184.506475,192.031762 C212.327662,192.031762 234.877698,169.512086 234.877698,141.736973 C234.877698,113.961859 212.327662,91.4421836 184.506475,91.4421836 C156.685288,91.4421836 134.135252,113.961859 134.135252,141.736973 C134.135252,169.512086 156.685288,192.031762 184.506475,192.031762 Z" id="Oval" stroke="#4D394B" stroke-width="12.8"></path>
                    <path d="M328.832105,92.4838068 C325.744755,91.7942525 322.567201,91.4421836 319.338129,91.4421836 C295.436178,91.4421836 276.063309,110.788969 276.063309,134.650124 C276.063309,158.511279 295.436178,177.858065 319.338129,177.858065 C328.743875,177.858065 337.669984,174.857548 345.028086,169.425426 L328.832105,92.4838068 Z" id="Oval" stroke="#4D394B" stroke-width="12.8"></path>
                    <ellipse id="Oval-2" fill="#4D394B" cx="334.530737" cy="133.850124" rx="7.09640288" ry="7.08684864"></ellipse>
                    <ellipse id="Oval-2" fill="#4D394B" cx="201.198208" cy="141.850124" rx="7.09640288" ry="7.08684864"></ellipse>
                </g>
            </g>
            <g id="Bot:-Speechbubbel" transform="translate(-23.000000, -31.000000)">
                <path d="M243.122953,488.689564 C251.940634,491.07778 490.458601,418.25597 457.40248,242.226664 C450.72263,140.765512 366.208364,61.4155651 263.935145,61.4155651 C156.853846,61.4155651 70.0473026,148.120876 70.0473026,255.077298 C70.0473026,362.033719 151.685567,448.821096 274.025975,448.821096 C279.363351,458.004325 269.574051,471.08892 243.122953,488.689564 Z" id="Bubble" stroke="#4D394B" stroke-width="12.8" fill="#FAFEFF" stroke-linecap="round" stroke-linejoin="round" transform="translate(265.295620, 275.080947) scale(-1, 1) rotate(-24.000000) translate(-265.295620, -275.080947) "></path>
                <path d="M181.709218,156.291755 C181.49055,157.822429 181.293752,159.517079 181.118818,161.375755 C180.943883,163.234431 180.768952,165.114945 180.594018,167.017355 C180.419083,168.919764 180.255085,170.767479 180.102018,172.560555 C179.94895,174.353631 179.828685,175.928015 179.741218,177.283755 C181.228158,177.021354 182.879075,176.715223 184.694018,176.365355 C186.50896,176.015486 188.356675,175.65469 190.237218,175.282955 C192.11776,174.91122 193.965475,174.583223 195.780418,174.298955 C197.59536,174.014687 199.246277,173.806956 200.733218,173.675755 C200.864418,173.675755 201.017483,173.719488 201.192418,173.806955 C201.542286,173.981889 201.717218,174.266153 201.717218,174.659755 C201.717218,175.228291 201.607885,175.654687 201.389218,175.938955 C201.17055,176.223223 200.908153,176.441887 200.602018,176.594955 C200.295883,176.748022 199.978819,176.890154 199.650818,177.021355 C199.322816,177.152556 199.027619,177.349354 198.765218,177.611755 C197.409478,177.961623 195.922559,178.333353 194.304418,178.726955 C192.686276,179.120557 191.024426,179.514153 189.318818,179.907755 L184.202018,181.088555 C182.496409,181.482157 180.900158,181.875753 179.413218,182.269355 C178.057478,182.619223 177.029755,182.378692 176.330018,181.547755 C175.630281,180.716817 175.346017,179.361098 175.477218,177.480555 C175.695885,173.938137 175.958283,170.384839 176.264418,166.820555 C176.570553,163.25627 176.942282,159.702973 177.379618,156.160555 C177.467085,155.417085 177.718549,154.804824 178.134018,154.323755 C178.549486,153.842686 179.063348,153.558422 179.675618,153.470955 C180.681489,153.339754 181.282817,153.591218 181.479618,154.225355 C181.676419,154.859491 181.752951,155.548285 181.709218,156.291755 Z M220.085218,167.246955 C218.379609,168.252827 216.542828,169.029085 214.574818,169.575755 C212.606808,170.122424 210.485762,170.395755 208.211618,170.395755 C208.299085,171.926429 208.736414,173.140017 209.523618,174.036555 C210.310822,174.933093 211.294812,175.468821 212.475618,175.643755 C213.175355,175.731222 213.886014,175.709356 214.607618,175.578155 C215.329221,175.446954 216.007081,175.239223 216.641218,174.954955 C217.275354,174.670687 217.854815,174.353623 218.379618,174.003755 C218.90442,173.653886 219.363616,173.304023 219.757218,172.954155 C220.15082,172.604286 220.566282,172.374689 221.003618,172.265355 C221.440953,172.156021 221.76895,172.145088 221.987618,172.232555 C222.599887,172.451223 222.818552,173.107216 222.643618,174.200555 C221.943881,175.600029 220.938024,176.79175 219.626018,177.775755 C218.314011,178.75976 216.848959,179.382954 215.230818,179.645355 C213.831344,179.907756 212.388158,179.842157 210.901218,179.448555 C209.414277,179.054953 208.080424,178.289627 206.899618,177.152555 C205.893746,176.146683 205.12842,174.965895 204.603618,173.610155 C204.078815,172.254415 203.750818,170.854962 203.619618,169.411755 C203.488417,168.056015 203.608682,166.765894 203.980418,165.541355 C204.352153,164.316815 204.931614,163.234426 205.718818,162.294155 C206.506022,161.353884 207.490012,160.577625 208.670818,159.965355 C209.851624,159.353085 211.22921,159.003222 212.803618,158.915755 C214.68416,158.784554 216.389743,159.134417 217.920418,159.965355 C219.451092,160.796292 220.522548,161.955214 221.134818,163.442155 C221.484686,164.273092 221.583085,164.994685 221.430018,165.606955 C221.27695,166.219225 220.828688,166.765886 220.085218,167.246955 Z M212.541218,162.786155 C212.103882,162.873622 211.633754,163.026687 211.130818,163.245355 C210.627882,163.464023 210.168686,163.737353 209.753218,164.065355 C209.337749,164.393357 208.966019,164.765086 208.638018,165.180555 C208.310016,165.596024 208.124151,166.066152 208.080418,166.590955 C208.823888,166.590955 209.64388,166.525356 210.540418,166.394155 C211.436955,166.262954 212.311613,166.098956 213.164418,165.902155 C214.017222,165.705354 214.804414,165.475756 215.526018,165.213355 C216.247621,164.950954 216.848949,164.66669 217.330018,164.360555 C216.980149,163.529617 216.335089,163.015756 215.394818,162.818955 C214.454546,162.622154 213.503356,162.611221 212.541218,162.786155 Z M242.126818,165.082155 C242.957755,165.038421 243.78868,165.235219 244.619618,165.672555 C245.450555,166.10989 245.866018,166.78775 245.866018,167.706155 C245.778551,168.449625 245.374021,168.919754 244.652418,169.116555 C243.930814,169.313356 243.351353,169.411755 242.914018,169.411755 C242.039347,169.411755 241.099089,169.433621 240.093218,169.477355 C239.087346,169.521088 238.059623,169.586688 237.010018,169.674155 C236.922551,171.117362 236.846018,172.473082 236.780418,173.741355 C236.714817,175.009628 236.660151,176.13575 236.616418,177.119755 C236.572684,178.10376 236.550818,178.901885 236.550818,179.514155 C236.550818,180.126425 236.572684,180.454421 236.616418,180.498155 C237.578556,180.323221 238.617212,180.028024 239.732418,179.612555 C240.847623,179.197086 241.962812,178.737891 243.078018,178.234955 C244.193223,177.732019 245.286546,177.207224 246.358018,176.660555 C247.42949,176.113885 248.44628,175.600024 249.408418,175.118955 C249.845753,174.900287 250.250282,174.834688 250.622018,174.922155 C250.993753,175.009622 251.223351,175.20642 251.310818,175.512555 C251.398285,175.993624 251.332685,176.584018 251.114018,177.283755 C250.89535,177.983492 250.501754,178.617619 249.933218,179.186155 C249.277214,179.710958 248.41349,180.312285 247.342018,180.990155 C246.270546,181.668025 245.122557,182.313085 243.898018,182.925355 C242.673478,183.537625 241.438024,184.073353 240.191618,184.532555 C238.945211,184.991757 237.840956,185.265088 236.878818,185.352555 C235.43561,185.483756 234.342288,185.090159 233.598818,184.171755 C232.855347,183.25335 232.439885,182.094429 232.352418,180.694955 C232.264951,179.295481 232.254017,177.677364 232.319618,175.840555 C232.385218,174.003746 232.461751,172.057632 232.549218,170.002155 C231.71828,170.089622 230.920155,170.166155 230.154818,170.231755 C229.389481,170.297355 228.656955,170.373888 227.957218,170.461355 C227.388681,170.461355 226.765488,170.330156 226.087618,170.067755 C225.409748,169.805354 225.070818,169.302425 225.070818,168.558955 C225.070818,168.296554 225.18015,167.94669 225.398818,167.509355 C225.617485,167.072019 226.098547,166.744023 226.842018,166.525355 C228.635093,166.21922 230.62494,165.956823 232.811618,165.738155 C232.942818,163.682678 233.095883,161.692831 233.270818,159.768555 C233.445752,157.844279 233.598817,156.094963 233.730018,154.520555 C233.773751,153.995752 233.926816,153.536557 234.189218,153.142955 C234.451619,152.749353 234.735883,152.552555 235.042018,152.552555 C235.785488,152.508821 236.496148,152.694686 237.174018,153.110155 C237.851888,153.525624 238.190818,153.995752 238.190818,154.520555 C238.015883,156.007496 237.851885,157.691212 237.698818,159.571755 C237.54575,161.452298 237.403618,163.376545 237.272418,165.344555 C238.147089,165.257088 238.988947,165.202422 239.798018,165.180555 C240.607088,165.158688 241.383347,165.125888 242.126818,165.082155 Z M257.542818,148.091755 C257.32415,147.566952 257.01802,147.064024 256.624418,146.582955 C256.230816,146.101886 255.924685,145.467759 255.706018,144.680555 C255.399883,143.674683 255.367083,142.778159 255.607618,141.990955 C255.848152,141.203751 256.274548,140.65709 256.886818,140.350955 C257.455354,140.088554 258.002015,140.001088 258.526818,140.088555 C259.05162,140.176022 259.532682,140.383753 259.970018,140.711755 C260.407353,141.039757 260.779083,141.477085 261.085218,142.023755 C261.391353,142.570424 261.610017,143.171752 261.741218,143.827755 C261.916152,144.87736 261.948952,146.123748 261.839618,147.566955 C261.730284,149.010162 261.500686,150.464281 261.150818,151.929355 C260.800949,153.394429 260.330821,154.815748 259.740418,156.193355 C259.150015,157.570962 258.483088,158.740817 257.739618,159.702955 C257.433483,160.096557 257.105486,160.326155 256.755618,160.391755 C256.405749,160.457355 256.099619,160.413622 255.837218,160.260555 C255.574816,160.107487 255.388952,159.866957 255.279618,159.538955 C255.170284,159.210953 255.203083,158.872023 255.378018,158.522155 C255.815353,157.647484 256.187083,156.838425 256.493218,156.094955 C256.799353,155.351485 257.050817,154.608025 257.247618,153.864555 C257.444419,153.121085 257.586551,152.366692 257.674018,151.601355 C257.761485,150.836018 257.805218,150.016026 257.805218,149.141355 C257.805218,148.791486 257.717752,148.441623 257.542818,148.091755 Z M282.667618,163.048555 C282.580151,162.567486 282.492685,162.10829 282.405218,161.670955 C282.317751,161.233619 282.099086,160.949356 281.749218,160.818155 C281.005747,160.599487 280.218555,160.577621 279.387618,160.752555 C278.55668,160.927489 277.791355,161.20082 277.091618,161.572555 C276.391881,161.94429 275.801487,162.359753 275.320418,162.818955 C274.839349,163.278157 274.576951,163.682686 274.533218,164.032555 C274.402017,164.688558 274.576949,165.322685 275.058018,165.934955 C275.539087,166.547225 276.238813,167.159485 277.157218,167.771755 C278.687892,168.690159 280.284143,169.630417 281.946018,170.592555 C283.607893,171.554693 285.007345,172.538683 286.144418,173.544555 C287.28149,174.550427 288.057749,175.654682 288.473218,176.857355 C288.888686,178.060028 288.790287,179.426681 288.178018,180.957355 C287.696949,182.138161 286.800424,183.100285 285.488418,183.843755 C284.176411,184.587225 282.733226,185.166686 281.158818,185.582155 C279.58441,185.997624 278.010026,186.281887 276.435618,186.434955 C274.86121,186.588022 273.527356,186.664555 272.434018,186.664555 C272.171616,186.664555 271.854553,186.566156 271.482818,186.369355 C271.111082,186.172554 270.761219,185.942956 270.433218,185.680555 C270.105216,185.418154 269.820952,185.144823 269.580418,184.860555 C269.339883,184.576287 269.219618,184.324823 269.219618,184.106155 C269.219618,183.318951 269.569481,182.77229 270.269218,182.466155 C270.968955,182.16002 271.690547,182.006955 272.434018,182.006955 C273.483623,182.006955 274.609745,181.952289 275.812418,181.842955 C277.01509,181.733621 278.163079,181.558689 279.256418,181.318155 C280.349756,181.07762 281.333747,180.760557 282.208418,180.366955 C283.083089,179.973353 283.695349,179.470425 284.045218,178.858155 C284.351353,178.333352 284.165488,177.710159 283.487618,176.988555 C282.809748,176.266951 281.913223,175.512559 280.798018,174.725355 C279.682812,173.938151 278.480157,173.172825 277.190018,172.429355 C275.899878,171.685885 274.795622,171.008025 273.877218,170.395755 C272.958813,169.783485 272.171621,169.050959 271.515618,168.198155 C270.859614,167.345351 270.444152,166.284828 270.269218,165.016555 C270.225484,163.879483 270.466015,162.78616 270.990818,161.736555 C271.51562,160.68695 272.204413,159.757626 273.057218,158.948555 C273.910022,158.139484 274.883079,157.494424 275.976418,157.013355 C277.069756,156.532286 278.163079,156.291755 279.256418,156.291755 C281.13696,156.379222 282.689478,156.893084 283.914018,157.833355 C285.138557,158.773626 285.86015,160.162146 286.078818,161.998955 C286.078818,162.611225 285.980419,163.114153 285.783618,163.507755 C285.586817,163.901357 285.247887,164.141888 284.766818,164.229355 C284.154548,164.316822 283.662553,164.240289 283.290818,163.999755 C282.919082,163.75922 282.711351,163.442157 282.667618,163.048555 Z M323.274018,163.048555 C323.186551,162.567486 323.099085,162.10829 323.011618,161.670955 C322.924151,161.233619 322.705486,160.949356 322.355618,160.818155 C321.612147,160.599487 320.824955,160.577621 319.994018,160.752555 C319.16308,160.927489 318.397755,161.20082 317.698018,161.572555 C316.998281,161.94429 316.407887,162.359753 315.926818,162.818955 C315.445749,163.278157 315.183351,163.682686 315.139618,164.032555 C315.008417,164.688558 315.183349,165.322685 315.664418,165.934955 C316.145487,166.547225 316.845213,167.159485 317.763618,167.771755 C319.294292,168.690159 320.890543,169.630417 322.552418,170.592555 C324.214293,171.554693 325.613745,172.538683 326.750818,173.544555 C327.88789,174.550427 328.664149,175.654682 329.079618,176.857355 C329.495086,178.060028 329.396687,179.426681 328.784418,180.957355 C328.303349,182.138161 327.406824,183.100285 326.094818,183.843755 C324.782811,184.587225 323.339626,185.166686 321.765218,185.582155 C320.19081,185.997624 318.616426,186.281887 317.042018,186.434955 C315.46761,186.588022 314.133756,186.664555 313.040418,186.664555 C312.778016,186.664555 312.460953,186.566156 312.089218,186.369355 C311.717482,186.172554 311.367619,185.942956 311.039618,185.680555 C310.711616,185.418154 310.427352,185.144823 310.186818,184.860555 C309.946283,184.576287 309.826018,184.324823 309.826018,184.106155 C309.826018,183.318951 310.175881,182.77229 310.875618,182.466155 C311.575355,182.16002 312.296947,182.006955 313.040418,182.006955 C314.090023,182.006955 315.216145,181.952289 316.418818,181.842955 C317.62149,181.733621 318.769479,181.558689 319.862818,181.318155 C320.956156,181.07762 321.940147,180.760557 322.814818,180.366955 C323.689489,179.973353 324.301749,179.470425 324.651618,178.858155 C324.957753,178.333352 324.771888,177.710159 324.094018,176.988555 C323.416148,176.266951 322.519623,175.512559 321.404418,174.725355 C320.289212,173.938151 319.086557,173.172825 317.796418,172.429355 C316.506278,171.685885 315.402022,171.008025 314.483618,170.395755 C313.565213,169.783485 312.778021,169.050959 312.122018,168.198155 C311.466014,167.345351 311.050552,166.284828 310.875618,165.016555 C310.831884,163.879483 311.072415,162.78616 311.597218,161.736555 C312.12202,160.68695 312.810813,159.757626 313.663618,158.948555 C314.516422,158.139484 315.489479,157.494424 316.582818,157.013355 C317.676156,156.532286 318.769479,156.291755 319.862818,156.291755 C321.74336,156.379222 323.295878,156.893084 324.520418,157.833355 C325.744957,158.773626 326.46655,160.162146 326.685218,161.998955 C326.685218,162.611225 326.586819,163.114153 326.390018,163.507755 C326.193217,163.901357 325.854287,164.141888 325.373218,164.229355 C324.760948,164.316822 324.268953,164.240289 323.897218,163.999755 C323.525482,163.75922 323.317751,163.442157 323.274018,163.048555 Z M349.120418,167.246955 C347.414809,168.252827 345.578028,169.029085 343.610018,169.575755 C341.642008,170.122424 339.520962,170.395755 337.246818,170.395755 C337.334285,171.926429 337.771614,173.140017 338.558818,174.036555 C339.346022,174.933093 340.330012,175.468821 341.510818,175.643755 C342.210555,175.731222 342.921214,175.709356 343.642818,175.578155 C344.364421,175.446954 345.042281,175.239223 345.676418,174.954955 C346.310554,174.670687 346.890015,174.353623 347.414818,174.003755 C347.93962,173.653886 348.398816,173.304023 348.792418,172.954155 C349.18602,172.604286 349.601482,172.374689 350.038818,172.265355 C350.476153,172.156021 350.80415,172.145088 351.022818,172.232555 C351.635087,172.451223 351.853752,173.107216 351.678818,174.200555 C350.979081,175.600029 349.973224,176.79175 348.661218,177.775755 C347.349211,178.75976 345.884159,179.382954 344.266018,179.645355 C342.866544,179.907756 341.423358,179.842157 339.936418,179.448555 C338.449477,179.054953 337.115624,178.289627 335.934818,177.152555 C334.928946,176.146683 334.16362,174.965895 333.638818,173.610155 C333.114015,172.254415 332.786018,170.854962 332.654818,169.411755 C332.523617,168.056015 332.643882,166.765894 333.015618,165.541355 C333.387353,164.316815 333.966814,163.234426 334.754018,162.294155 C335.541222,161.353884 336.525212,160.577625 337.706018,159.965355 C338.886824,159.353085 340.26441,159.003222 341.838818,158.915755 C343.71936,158.784554 345.424943,159.134417 346.955618,159.965355 C348.486292,160.796292 349.557748,161.955214 350.170018,163.442155 C350.519886,164.273092 350.618285,164.994685 350.465218,165.606955 C350.31215,166.219225 349.863888,166.765886 349.120418,167.246955 Z M341.576418,162.786155 C341.139082,162.873622 340.668954,163.026687 340.166018,163.245355 C339.663082,163.464023 339.203886,163.737353 338.788418,164.065355 C338.372949,164.393357 338.001219,164.765086 337.673218,165.180555 C337.345216,165.596024 337.159351,166.066152 337.115618,166.590955 C337.859088,166.590955 338.67908,166.525356 339.575618,166.394155 C340.472155,166.262954 341.346813,166.098956 342.199618,165.902155 C343.052422,165.705354 343.839614,165.475756 344.561218,165.213355 C345.282821,164.950954 345.884149,164.66669 346.365218,164.360555 C346.015349,163.529617 345.370289,163.015756 344.430018,162.818955 C343.489746,162.622154 342.538556,162.611221 341.576418,162.786155 Z M372.146018,167.246955 C370.440409,168.252827 368.603628,169.029085 366.635618,169.575755 C364.667608,170.122424 362.546562,170.395755 360.272418,170.395755 C360.359885,171.926429 360.797214,173.140017 361.584418,174.036555 C362.371622,174.933093 363.355612,175.468821 364.536418,175.643755 C365.236155,175.731222 365.946814,175.709356 366.668418,175.578155 C367.390021,175.446954 368.067881,175.239223 368.702018,174.954955 C369.336154,174.670687 369.915615,174.353623 370.440418,174.003755 C370.96522,173.653886 371.424416,173.304023 371.818018,172.954155 C372.21162,172.604286 372.627082,172.374689 373.064418,172.265355 C373.501753,172.156021 373.82975,172.145088 374.048418,172.232555 C374.660687,172.451223 374.879352,173.107216 374.704418,174.200555 C374.004681,175.600029 372.998824,176.79175 371.686818,177.775755 C370.374811,178.75976 368.909759,179.382954 367.291618,179.645355 C365.892144,179.907756 364.448958,179.842157 362.962018,179.448555 C361.475077,179.054953 360.141224,178.289627 358.960418,177.152555 C357.954546,176.146683 357.18922,174.965895 356.664418,173.610155 C356.139615,172.254415 355.811618,170.854962 355.680418,169.411755 C355.549217,168.056015 355.669482,166.765894 356.041218,165.541355 C356.412953,164.316815 356.992414,163.234426 357.779618,162.294155 C358.566822,161.353884 359.550812,160.577625 360.731618,159.965355 C361.912424,159.353085 363.29001,159.003222 364.864418,158.915755 C366.74496,158.784554 368.450543,159.134417 369.981218,159.965355 C371.511892,160.796292 372.583348,161.955214 373.195618,163.442155 C373.545486,164.273092 373.643885,164.994685 373.490818,165.606955 C373.33775,166.219225 372.889488,166.765886 372.146018,167.246955 Z M364.602018,162.786155 C364.164682,162.873622 363.694554,163.026687 363.191618,163.245355 C362.688682,163.464023 362.229486,163.737353 361.814018,164.065355 C361.398549,164.393357 361.026819,164.765086 360.698818,165.180555 C360.370816,165.596024 360.184951,166.066152 360.141218,166.590955 C360.884688,166.590955 361.70468,166.525356 362.601218,166.394155 C363.497755,166.262954 364.372413,166.098956 365.225218,165.902155 C366.078022,165.705354 366.865214,165.475756 367.586818,165.213355 C368.308421,164.950954 368.909749,164.66669 369.390818,164.360555 C369.040949,163.529617 368.395889,163.015756 367.455618,162.818955 C366.515346,162.622154 365.564156,162.611221 364.602018,162.786155 Z M188.236418,241.314155 C187.886549,241.795224 187.492953,242.112287 187.055618,242.265355 C186.618282,242.418422 186.224686,242.494955 185.874818,242.494955 C185.262548,242.451221 184.69402,242.24349 184.169218,241.871755 C183.644415,241.50002 183.316418,241.117357 183.185218,240.723755 C182.922816,239.980285 182.638553,239.149359 182.332418,238.230955 C182.026283,237.31255 181.731086,236.383226 181.446818,235.442955 C181.16255,234.502684 180.867353,233.584293 180.561218,232.687755 C180.255083,231.791217 179.970819,230.971225 179.708418,230.227755 C178.833747,231.758429 178.002822,233.300014 177.215618,234.852555 C176.428414,236.405096 175.553756,238.01228 174.591618,239.674155 C174.154282,240.330158 173.651354,240.77842 173.082818,241.018955 C172.514281,241.259489 172.03322,241.357888 171.639618,241.314155 C171.071081,241.270421 170.55722,241.051757 170.098018,240.658155 C169.638815,240.264553 169.278019,239.892823 169.015618,239.542955 C168.534549,238.755751 168.053487,237.738961 167.572418,236.492555 C167.091349,235.246149 166.643086,233.934162 166.227618,232.556555 C165.812149,231.178948 165.429486,229.801362 165.079618,228.423755 C164.729749,227.046148 164.445485,225.810694 164.226818,224.717355 C164.095617,223.973885 164.10655,223.274158 164.259618,222.618155 C164.412685,221.962152 164.795348,221.590422 165.407618,221.502955 C166.151088,221.459221 166.828948,221.710685 167.441218,222.257355 C168.053487,222.804024 168.403351,223.339752 168.490818,223.864555 C168.665752,224.739226 168.873483,225.690416 169.114018,226.718155 C169.354552,227.745893 169.61695,228.78455 169.901218,229.834155 C170.185486,230.88376 170.46975,231.911483 170.754018,232.917355 C171.038286,233.923227 171.333483,234.819751 171.639618,235.606955 C172.295621,234.55735 173.028147,233.343762 173.837218,231.966155 C174.646288,230.588548 175.422547,229.254695 176.166018,227.964555 C176.909488,226.674415 177.587348,225.548293 178.199618,224.586155 C178.811887,223.624017 179.292949,223.033623 179.642818,222.814955 C179.905219,222.640021 180.276949,222.650954 180.758018,222.847755 C181.239087,223.044556 181.58895,223.317886 181.807618,223.667755 C182.769756,225.592031 183.567881,227.702143 184.202018,229.998155 C184.836154,232.294166 185.459348,234.426145 186.071618,236.394155 C186.683887,235.606951 187.339881,234.568295 188.039618,233.278155 C188.739355,231.988015 189.417214,230.621362 190.073218,229.178155 C190.729221,227.734948 191.341481,226.291762 191.910018,224.848555 C192.478554,223.405348 192.937749,222.115227 193.287618,220.978155 C193.637486,219.797349 194.118548,219.228821 194.730818,219.272555 C195.518022,219.360022 196.195881,219.622419 196.764418,220.059755 C197.332954,220.49709 197.551618,220.956286 197.420418,221.437355 C196.45828,225.285907 195.211892,228.817339 193.681218,232.031755 C192.150543,235.246171 190.335628,238.340273 188.236418,241.314155 Z M206.735618,213.762155 C206.735618,214.81176 206.724684,215.992548 206.702818,217.304555 C206.680951,218.616561 206.680951,219.972281 206.702818,221.371755 C206.724684,222.771229 206.746551,224.214414 206.768418,225.701355 C206.790284,227.188296 206.823084,228.609615 206.866818,229.965355 C207.304153,229.090684 207.828948,228.226959 208.441218,227.374155 C209.053487,226.521351 209.742281,225.766958 210.507618,225.110955 C211.272955,224.454952 212.082013,223.930157 212.934818,223.536555 C213.787622,223.142953 214.716946,222.946155 215.722818,222.946155 C216.816156,222.946155 217.789213,223.296018 218.642018,223.995755 C219.494822,224.695492 220.238281,225.624816 220.872418,226.783755 C221.506554,227.942694 222.042282,229.232814 222.479618,230.654155 C222.916953,232.075495 223.27775,233.518681 223.562018,234.983755 C223.846286,236.448829 224.054017,237.848282 224.185218,239.182155 C224.316418,240.516028 224.425751,241.664017 224.513218,242.626155 C224.513218,243.325892 224.338286,243.894419 223.988418,244.331755 C223.638549,244.76909 223.223087,244.987755 222.742018,244.987755 C222.392149,244.987755 221.965754,244.758157 221.462818,244.298955 C220.959882,243.839753 220.599085,243.282158 220.380418,242.626155 C220.249217,242.101352 220.118018,241.336027 219.986818,240.330155 C219.855617,239.324283 219.702552,238.241894 219.527618,237.082955 C219.352683,235.924016 219.134019,234.754161 218.871618,233.573355 C218.609216,232.392549 218.292153,231.332026 217.920418,230.391755 C217.548682,229.451484 217.10042,228.718958 216.575618,228.194155 C216.050815,227.669352 215.438555,227.472554 214.738818,227.603755 C213.645479,227.822423 212.694288,228.587748 211.885218,229.899755 C211.076147,231.211761 210.376421,232.69868 209.786018,234.360555 C209.195615,236.02243 208.714553,237.706146 208.342818,239.411755 C207.971082,241.117363 207.697752,242.49495 207.522818,243.544555 C207.347883,244.331759 207.118286,244.867487 206.834018,245.151755 C206.54975,245.436023 206.232686,245.578155 205.882818,245.578155 C205.532949,245.578155 205.215886,245.403223 204.931618,245.053355 C204.64735,244.703486 204.384952,244.277091 204.144418,243.774155 C203.903883,243.271219 203.696152,242.746424 203.521218,242.199755 C203.346283,241.653085 203.236951,241.182957 203.193218,240.789355 C202.97455,238.427743 202.799618,236.164566 202.668418,233.999755 C202.537217,231.834944 202.438818,229.659232 202.373218,227.472555 C202.307617,225.285877 202.274818,223.044566 202.274818,220.748555 C202.274818,218.452543 202.318551,215.992568 202.406018,213.368555 C202.406018,211.181877 203.19321,210.197887 204.767618,210.416555 C205.29242,210.504022 205.751616,210.886685 206.145218,211.564555 C206.53882,212.242425 206.735618,212.974951 206.735618,213.762155 Z M245.636418,218.550955 C245.811352,219.775494 245.953484,221.076548 246.062818,222.454155 C246.172152,223.831762 246.259617,225.220281 246.325218,226.619755 C246.390818,228.019229 246.423618,229.374948 246.423618,230.686955 C246.423618,231.998961 246.401751,233.17975 246.358018,234.229355 C247.757491,235.191493 248.59935,236.044285 248.883618,236.787755 C249.167886,237.531225 249.200685,238.187219 248.982018,238.755755 C248.719616,239.542959 248.249488,239.947488 247.571618,239.969355 C246.893748,239.991222 246.117489,239.761624 245.242818,239.280555 C244.630548,239.71789 243.930822,240.188019 243.143618,240.690955 C242.356414,241.193891 241.525489,241.674953 240.650818,242.134155 C239.776147,242.593357 238.901489,242.997886 238.026818,243.347755 C237.152147,243.697623 236.343088,243.938154 235.599618,244.069355 C234.200144,244.288023 232.942823,244.025625 231.827618,243.282155 C230.712412,242.538685 229.95802,241.423496 229.564418,239.936555 C229.302016,238.930683 229.236417,237.892027 229.367618,236.820555 C229.498818,235.749083 229.826815,234.72136 230.351618,233.737355 C230.87642,232.75335 231.58708,231.867759 232.483618,231.080555 C233.380155,230.293351 234.440678,229.68109 235.665218,229.243755 C235.971353,229.112554 236.397748,229.003222 236.944418,228.915755 C237.491087,228.828288 238.059615,228.795488 238.650018,228.817355 C239.240421,228.839222 239.841748,228.959487 240.454018,229.178155 C241.066287,229.396823 241.634815,229.768552 242.159618,230.293355 C242.159618,229.549885 242.148684,228.729893 242.126818,227.833355 C242.104951,226.936817 242.072151,226.029359 242.028418,225.110955 C241.984684,224.19255 241.930018,223.328826 241.864418,222.519755 C241.798817,221.710684 241.722285,221.021891 241.634818,220.453355 C241.547351,219.797352 241.295886,219.392822 240.880418,219.239755 C240.464949,219.086687 239.951087,219.119487 239.338818,219.338155 C238.289212,219.688023 237.064691,220.365883 235.665218,221.371755 C234.265744,222.377627 232.931891,223.449083 231.663618,224.586155 C231.270016,224.979757 230.821754,225.154688 230.318818,225.110955 C229.815882,225.067221 229.389486,224.870423 229.039618,224.520555 C228.689749,224.170686 228.492951,223.766157 228.449218,223.306955 C228.405484,222.847753 228.580416,222.355758 228.974018,221.830955 C229.717488,221.043751 230.548413,220.234692 231.466818,219.403755 C232.385222,218.572817 233.347346,217.818425 234.353218,217.140555 C235.359089,216.462685 236.386812,215.90509 237.436418,215.467755 C238.486023,215.030419 239.535612,214.789888 240.585218,214.746155 C242.115892,214.702421 243.29668,215.041351 244.127618,215.762955 C244.958555,216.484559 245.461483,217.413883 245.636418,218.550955 Z M238.026818,232.654955 C237.458281,232.786156 236.856954,233.059486 236.222818,233.474955 C235.588681,233.890424 235.020154,234.393352 234.517218,234.983755 C234.014282,235.574158 233.642552,236.230151 233.402018,236.951755 C233.161483,237.673359 233.15055,238.384018 233.369218,239.083755 C233.456685,239.346156 233.64255,239.542954 233.926818,239.674155 C234.211086,239.805356 234.528149,239.827222 234.878018,239.739755 C235.927623,239.521087 237.119344,239.094691 238.453218,238.460555 C239.787091,237.826418 240.847614,237.137625 241.634818,236.394155 C241.634818,236.131754 241.503619,235.792824 241.241218,235.377355 C240.978816,234.961886 240.672686,234.546424 240.322818,234.130955 C239.972949,233.715486 239.590286,233.35469 239.174818,233.048555 C238.759349,232.74242 238.376686,232.611221 238.026818,232.654955 Z M267.678018,225.242155 C268.508955,225.198421 269.33988,225.395219 270.170818,225.832555 C271.001755,226.26989 271.417218,226.94775 271.417218,227.866155 C271.329751,228.609625 270.925221,229.079754 270.203618,229.276555 C269.482014,229.473356 268.902553,229.571755 268.465218,229.571755 C267.590547,229.571755 266.650289,229.593621 265.644418,229.637355 C264.638546,229.681088 263.610823,229.746688 262.561218,229.834155 C262.473751,231.277362 262.397218,232.633082 262.331618,233.901355 C262.266017,235.169628 262.211351,236.29575 262.167618,237.279755 C262.123884,238.26376 262.102018,239.061885 262.102018,239.674155 C262.102018,240.286425 262.123884,240.614421 262.167618,240.658155 C263.129756,240.483221 264.168412,240.188024 265.283618,239.772555 C266.398823,239.357086 267.514012,238.897891 268.629218,238.394955 C269.744423,237.892019 270.837746,237.367224 271.909218,236.820555 C272.98069,236.273885 273.99748,235.760024 274.959618,235.278955 C275.396953,235.060287 275.801482,234.994688 276.173218,235.082155 C276.544953,235.169622 276.774551,235.36642 276.862018,235.672555 C276.949485,236.153624 276.883885,236.744018 276.665218,237.443755 C276.44655,238.143492 276.052954,238.777619 275.484418,239.346155 C274.828414,239.870958 273.96469,240.472285 272.893218,241.150155 C271.821746,241.828025 270.673757,242.473085 269.449218,243.085355 C268.224678,243.697625 266.989224,244.233353 265.742818,244.692555 C264.496411,245.151757 263.392156,245.425088 262.430018,245.512555 C260.98681,245.643756 259.893488,245.250159 259.150018,244.331755 C258.406547,243.41335 257.991085,242.254429 257.903618,240.854955 C257.816151,239.455481 257.805217,237.837364 257.870818,236.000555 C257.936418,234.163746 258.012951,232.217632 258.100418,230.162155 C257.26948,230.249622 256.471355,230.326155 255.706018,230.391755 C254.940681,230.457355 254.208155,230.533888 253.508418,230.621355 C252.939881,230.621355 252.316688,230.490156 251.638818,230.227755 C250.960948,229.965354 250.622018,229.462425 250.622018,228.718955 C250.622018,228.456554 250.73135,228.10669 250.950018,227.669355 C251.168685,227.232019 251.649747,226.904023 252.393218,226.685355 C254.186293,226.37922 256.17614,226.116823 258.362818,225.898155 C258.494018,223.842678 258.647083,221.852831 258.822018,219.928555 C258.996952,218.004279 259.150017,216.254963 259.281218,214.680555 C259.324951,214.155752 259.478016,213.696557 259.740418,213.302955 C260.002819,212.909353 260.287083,212.712555 260.593218,212.712555 C261.336688,212.668821 262.047348,212.854686 262.725218,213.270155 C263.403088,213.685624 263.742018,214.155752 263.742018,214.680555 C263.567083,216.167496 263.403085,217.851212 263.250018,219.731755 C263.09695,221.612298 262.954818,223.536545 262.823618,225.504555 C263.698289,225.417088 264.540147,225.362422 265.349218,225.340555 C266.158288,225.318688 266.934547,225.285888 267.678018,225.242155 Z M312.810818,225.242155 C313.641755,225.198421 314.47268,225.395219 315.303618,225.832555 C316.134555,226.26989 316.550018,226.94775 316.550018,227.866155 C316.462551,228.609625 316.058021,229.079754 315.336418,229.276555 C314.614814,229.473356 314.035353,229.571755 313.598018,229.571755 C312.723347,229.571755 311.783089,229.593621 310.777218,229.637355 C309.771346,229.681088 308.743623,229.746688 307.694018,229.834155 C307.606551,231.277362 307.530018,232.633082 307.464418,233.901355 C307.398817,235.169628 307.344151,236.29575 307.300418,237.279755 C307.256684,238.26376 307.234818,239.061885 307.234818,239.674155 C307.234818,240.286425 307.256684,240.614421 307.300418,240.658155 C308.262556,240.483221 309.301212,240.188024 310.416418,239.772555 C311.531623,239.357086 312.646812,238.897891 313.762018,238.394955 C314.877223,237.892019 315.970546,237.367224 317.042018,236.820555 C318.11349,236.273885 319.13028,235.760024 320.092418,235.278955 C320.529753,235.060287 320.934282,234.994688 321.306018,235.082155 C321.677753,235.169622 321.907351,235.36642 321.994818,235.672555 C322.082285,236.153624 322.016685,236.744018 321.798018,237.443755 C321.57935,238.143492 321.185754,238.777619 320.617218,239.346155 C319.961214,239.870958 319.09749,240.472285 318.026018,241.150155 C316.954546,241.828025 315.806557,242.473085 314.582018,243.085355 C313.357478,243.697625 312.122024,244.233353 310.875618,244.692555 C309.629211,245.151757 308.524956,245.425088 307.562818,245.512555 C306.11961,245.643756 305.026288,245.250159 304.282818,244.331755 C303.539347,243.41335 303.123885,242.254429 303.036418,240.854955 C302.948951,239.455481 302.938017,237.837364 303.003618,236.000555 C303.069218,234.163746 303.145751,232.217632 303.233218,230.162155 C302.40228,230.249622 301.604155,230.326155 300.838818,230.391755 C300.073481,230.457355 299.340955,230.533888 298.641218,230.621355 C298.072681,230.621355 297.449488,230.490156 296.771618,230.227755 C296.093748,229.965354 295.754818,229.462425 295.754818,228.718955 C295.754818,228.456554 295.86415,228.10669 296.082818,227.669355 C296.301485,227.232019 296.782547,226.904023 297.526018,226.685355 C299.319093,226.37922 301.30894,226.116823 303.495618,225.898155 C303.626818,223.842678 303.779883,221.852831 303.954818,219.928555 C304.129752,218.004279 304.282817,216.254963 304.414018,214.680555 C304.457751,214.155752 304.610816,213.696557 304.873218,213.302955 C305.135619,212.909353 305.419883,212.712555 305.726018,212.712555 C306.469488,212.668821 307.180148,212.854686 307.858018,213.270155 C308.535888,213.685624 308.874818,214.155752 308.874818,214.680555 C308.699883,216.167496 308.535885,217.851212 308.382818,219.731755 C308.22975,221.612298 308.087618,223.536545 307.956418,225.504555 C308.831089,225.417088 309.672947,225.362422 310.482018,225.340555 C311.291088,225.318688 312.067347,225.285888 312.810818,225.242155 Z M329.276418,213.762155 C329.276418,214.81176 329.265484,215.992548 329.243618,217.304555 C329.221751,218.616561 329.221751,219.972281 329.243618,221.371755 C329.265484,222.771229 329.287351,224.214414 329.309218,225.701355 C329.331084,227.188296 329.363884,228.609615 329.407618,229.965355 C329.844953,229.090684 330.369748,228.226959 330.982018,227.374155 C331.594287,226.521351 332.283081,225.766958 333.048418,225.110955 C333.813755,224.454952 334.622813,223.930157 335.475618,223.536555 C336.328422,223.142953 337.257746,222.946155 338.263618,222.946155 C339.356956,222.946155 340.330013,223.296018 341.182818,223.995755 C342.035622,224.695492 342.779081,225.624816 343.413218,226.783755 C344.047354,227.942694 344.583082,229.232814 345.020418,230.654155 C345.457753,232.075495 345.81855,233.518681 346.102818,234.983755 C346.387086,236.448829 346.594817,237.848282 346.726018,239.182155 C346.857218,240.516028 346.966551,241.664017 347.054018,242.626155 C347.054018,243.325892 346.879086,243.894419 346.529218,244.331755 C346.179349,244.76909 345.763887,244.987755 345.282818,244.987755 C344.932949,244.987755 344.506554,244.758157 344.003618,244.298955 C343.500682,243.839753 343.139885,243.282158 342.921218,242.626155 C342.790017,242.101352 342.658818,241.336027 342.527618,240.330155 C342.396417,239.324283 342.243352,238.241894 342.068418,237.082955 C341.893483,235.924016 341.674819,234.754161 341.412418,233.573355 C341.150016,232.392549 340.832953,231.332026 340.461218,230.391755 C340.089482,229.451484 339.64122,228.718958 339.116418,228.194155 C338.591615,227.669352 337.979355,227.472554 337.279618,227.603755 C336.186279,227.822423 335.235088,228.587748 334.426018,229.899755 C333.616947,231.211761 332.917221,232.69868 332.326818,234.360555 C331.736415,236.02243 331.255353,237.706146 330.883618,239.411755 C330.511882,241.117363 330.238552,242.49495 330.063618,243.544555 C329.888683,244.331759 329.659086,244.867487 329.374818,245.151755 C329.09055,245.436023 328.773486,245.578155 328.423618,245.578155 C328.073749,245.578155 327.756686,245.403223 327.472418,245.053355 C327.18815,244.703486 326.925752,244.277091 326.685218,243.774155 C326.444683,243.271219 326.236952,242.746424 326.062018,242.199755 C325.887083,241.653085 325.777751,241.182957 325.734018,240.789355 C325.51535,238.427743 325.340418,236.164566 325.209218,233.999755 C325.078017,231.834944 324.979618,229.659232 324.914018,227.472555 C324.848417,225.285877 324.815618,223.044566 324.815618,220.748555 C324.815618,218.452543 324.859351,215.992568 324.946818,213.368555 C324.946818,211.181877 325.73401,210.197887 327.308418,210.416555 C327.83322,210.504022 328.292416,210.886685 328.686018,211.564555 C329.07962,212.242425 329.276418,212.974951 329.276418,213.762155 Z M362.798018,216.058155 C362.710551,216.49549 362.40442,216.736021 361.879618,216.779755 C361.354815,216.823488 360.917486,216.845355 360.567618,216.845355 C359.474279,216.889088 358.348157,216.998421 357.189218,217.173355 C356.030279,217.348289 354.816691,217.610686 353.548418,217.960555 C353.023615,218.135489 352.455087,218.06989 351.842818,217.763755 C351.230548,217.45762 350.858818,216.845359 350.727618,215.926955 C350.727618,215.577086 350.858816,215.292823 351.121218,215.074155 C351.383619,214.855487 351.689749,214.658689 352.039618,214.483755 C352.608154,214.221354 353.286014,213.991756 354.073218,213.794955 C354.860422,213.598154 355.658547,213.456022 356.467618,213.368555 C357.276688,213.281088 358.052947,213.248288 358.796418,213.270155 C359.539888,213.292022 360.152149,213.368554 360.633218,213.499755 C361.332955,213.718423 361.890549,214.046419 362.306018,214.483755 C362.721486,214.92109 362.885485,215.445885 362.798018,216.058155 Z M361.289218,237.902955 C361.595353,238.602692 361.759351,239.357084 361.781218,240.166155 C361.803084,240.975226 361.573487,241.53282 361.092418,241.838955 C360.480148,242.232557 359.824155,242.21069 359.124418,241.773355 C358.424681,241.336019 357.899886,240.745625 357.550018,240.002155 C357.068949,239.08375 356.697219,237.957628 356.434818,236.623755 C356.172416,235.289882 355.975618,233.966961 355.844418,232.654955 C355.713217,231.342948 355.636684,230.118427 355.614818,228.981355 C355.592951,227.844283 355.582018,226.991491 355.582018,226.422955 C355.625751,225.810685 355.800683,225.242158 356.106818,224.717355 C356.412953,224.192552 356.806549,223.886422 357.287618,223.798955 C358.074822,223.842688 358.708949,224.203485 359.190018,224.881355 C359.671087,225.559225 359.889751,226.401083 359.846018,227.406955 C359.846018,228.194159 359.867884,229.068817 359.911618,230.030955 C359.955351,230.993093 360.042817,231.955217 360.174018,232.917355 C360.305218,233.879493 360.458283,234.808817 360.633218,235.705355 C360.808152,236.601893 361.026816,237.334419 361.289218,237.902955 Z M379.919618,223.208555 C379.832151,222.727486 379.744685,222.26829 379.657218,221.830955 C379.569751,221.393619 379.351086,221.109356 379.001218,220.978155 C378.257747,220.759487 377.470555,220.737621 376.639618,220.912555 C375.80868,221.087489 375.043355,221.36082 374.343618,221.732555 C373.643881,222.10429 373.053487,222.519753 372.572418,222.978955 C372.091349,223.438157 371.828951,223.842686 371.785218,224.192555 C371.654017,224.848558 371.828949,225.482685 372.310018,226.094955 C372.791087,226.707225 373.490813,227.319485 374.409218,227.931755 C375.939892,228.850159 377.536143,229.790417 379.198018,230.752555 C380.859893,231.714693 382.259345,232.698683 383.396418,233.704555 C384.53349,234.710427 385.309749,235.814682 385.725218,237.017355 C386.140686,238.220028 386.042287,239.586681 385.430018,241.117355 C384.948949,242.298161 384.052424,243.260285 382.740418,244.003755 C381.428411,244.747225 379.985226,245.326686 378.410818,245.742155 C376.83641,246.157624 375.262026,246.441887 373.687618,246.594955 C372.11321,246.748022 370.779356,246.824555 369.686018,246.824555 C369.423616,246.824555 369.106553,246.726156 368.734818,246.529355 C368.363082,246.332554 368.013219,246.102956 367.685218,245.840555 C367.357216,245.578154 367.072952,245.304823 366.832418,245.020555 C366.591883,244.736287 366.471618,244.484823 366.471618,244.266155 C366.471618,243.478951 366.821481,242.93229 367.521218,242.626155 C368.220955,242.32002 368.942547,242.166955 369.686018,242.166955 C370.735623,242.166955 371.861745,242.112289 373.064418,242.002955 C374.26709,241.893621 375.415079,241.718689 376.508418,241.478155 C377.601756,241.23762 378.585747,240.920557 379.460418,240.526955 C380.335089,240.133353 380.947349,239.630425 381.297218,239.018155 C381.603353,238.493352 381.417488,237.870159 380.739618,237.148555 C380.061748,236.426951 379.165223,235.672559 378.050018,234.885355 C376.934812,234.098151 375.732157,233.332825 374.442018,232.589355 C373.151878,231.845885 372.047622,231.168025 371.129218,230.555755 C370.210813,229.943485 369.423621,229.210959 368.767618,228.358155 C368.111614,227.505351 367.696152,226.444828 367.521218,225.176555 C367.477484,224.039483 367.718015,222.94616 368.242818,221.896555 C368.76762,220.84695 369.456413,219.917626 370.309218,219.108555 C371.162022,218.299484 372.135079,217.654424 373.228418,217.173355 C374.321756,216.692286 375.415079,216.451755 376.508418,216.451755 C378.38896,216.539222 379.941478,217.053084 381.166018,217.993355 C382.390557,218.933626 383.11215,220.322146 383.330818,222.158955 C383.330818,222.771225 383.232419,223.274153 383.035618,223.667755 C382.838817,224.061357 382.499887,224.301888 382.018818,224.389355 C381.406548,224.476822 380.914553,224.400289 380.542818,224.159755 C380.171082,223.91922 379.963351,223.602157 379.919618,223.208555 Z M175.739618,269.658155 C175.783351,270.357892 175.816151,271.210683 175.838018,272.216555 C175.859884,273.222427 175.892684,274.315749 175.936418,275.496555 C175.980151,276.677361 176.045751,277.869082 176.133218,279.071755 C176.220685,280.274428 176.351883,281.422416 176.526818,282.515755 C177.182821,281.422416 177.937213,280.591491 178.790018,280.022955 C179.642822,279.454419 180.506547,279.104556 181.381218,278.973355 C182.736958,278.798421 183.917746,278.951486 184.923618,279.432555 C185.929489,279.913624 186.760414,280.580551 187.416418,281.433355 C188.072421,282.286159 188.553483,283.226416 188.859618,284.254155 C189.165753,285.281893 189.318818,286.276817 189.318818,287.238955 C189.318818,289.294432 188.78309,291.196813 187.711618,292.946155 C186.640146,294.695497 185.393758,296.248015 183.972418,297.603755 C182.551077,298.959495 181.151625,300.09655 179.774018,301.014955 C178.396411,301.933359 177.401487,302.589353 176.789218,302.982955 C175.914547,303.332823 175.061755,303.420289 174.230818,303.245355 C173.39988,303.070421 172.853219,302.808023 172.590818,302.458155 C172.37215,301.933352 172.306551,301.48509 172.394018,301.113355 C172.481485,300.74162 172.656416,300.40269 172.918818,300.096555 C173.181219,299.79042 173.498282,299.517089 173.870018,299.276555 C174.241753,299.03602 174.558816,298.806423 174.821218,298.587755 C173.771612,293.777064 172.962554,288.911779 172.394018,283.991755 C171.825481,279.07173 171.584951,274.075247 171.672418,269.002155 C171.672418,268.127484 171.858282,267.624556 172.230018,267.493355 C172.601753,267.362154 172.918816,267.296555 173.181218,267.296555 C173.793487,267.384022 174.340149,267.624553 174.821218,268.018155 C175.302287,268.411757 175.608417,268.958418 175.739618,269.658155 Z M185.317218,287.042155 C185.317218,285.555214 184.945488,284.516558 184.202018,283.926155 C183.458547,283.335752 182.693222,283.084288 181.906018,283.171755 C181.250014,283.259222 180.65962,283.499753 180.134818,283.893355 C179.610015,284.286957 179.15082,284.768019 178.757218,285.336555 C178.363616,285.905091 178.068419,286.539218 177.871618,287.238955 C177.674817,287.938692 177.598284,288.616552 177.642018,289.272555 C177.729485,290.365894 177.84975,291.546682 178.002818,292.814955 C178.155885,294.083228 178.34175,295.220283 178.560418,296.226155 C179.260155,295.745086 180.003614,295.187491 180.790818,294.553355 C181.578022,293.919218 182.310548,293.208559 182.988418,292.421355 C183.666288,291.634151 184.223882,290.792293 184.661218,289.895755 C185.098553,288.999217 185.317218,288.048027 185.317218,287.042155 Z M209.786018,287.566955 C208.080409,288.572827 206.243628,289.349085 204.275618,289.895755 C202.307608,290.442424 200.186562,290.715755 197.912418,290.715755 C197.999885,292.246429 198.437214,293.460017 199.224418,294.356555 C200.011622,295.253093 200.995612,295.788821 202.176418,295.963755 C202.876155,296.051222 203.586814,296.029356 204.308418,295.898155 C205.030021,295.766954 205.707881,295.559223 206.342018,295.274955 C206.976154,294.990687 207.555615,294.673623 208.080418,294.323755 C208.60522,293.973886 209.064416,293.624023 209.458018,293.274155 C209.85162,292.924286 210.267082,292.694689 210.704418,292.585355 C211.141753,292.476021 211.46975,292.465088 211.688418,292.552555 C212.300687,292.771223 212.519352,293.427216 212.344418,294.520555 C211.644681,295.920029 210.638824,297.11175 209.326818,298.095755 C208.014811,299.07976 206.549759,299.702954 204.931618,299.965355 C203.532144,300.227756 202.088958,300.162157 200.602018,299.768555 C199.115077,299.374953 197.781224,298.609627 196.600418,297.472555 C195.594546,296.466683 194.82922,295.285895 194.304418,293.930155 C193.779615,292.574415 193.451618,291.174962 193.320418,289.731755 C193.189217,288.376015 193.309482,287.085894 193.681218,285.861355 C194.052953,284.636815 194.632414,283.554426 195.419618,282.614155 C196.206822,281.673884 197.190812,280.897625 198.371618,280.285355 C199.552424,279.673085 200.93001,279.323222 202.504418,279.235755 C204.38496,279.104554 206.090543,279.454417 207.621218,280.285355 C209.151892,281.116292 210.223348,282.275214 210.835618,283.762155 C211.185486,284.593092 211.283885,285.314685 211.130818,285.926955 C210.97775,286.539225 210.529488,287.085886 209.786018,287.566955 Z M202.242018,283.106155 C201.804682,283.193622 201.334554,283.346687 200.831618,283.565355 C200.328682,283.784023 199.869486,284.057353 199.454018,284.385355 C199.038549,284.713357 198.666819,285.085086 198.338818,285.500555 C198.010816,285.916024 197.824951,286.386152 197.781218,286.910955 C198.524688,286.910955 199.34468,286.845356 200.241218,286.714155 C201.137755,286.582954 202.012413,286.418956 202.865218,286.222155 C203.718022,286.025354 204.505214,285.795756 205.226818,285.533355 C205.948421,285.270954 206.549749,284.98669 207.030818,284.680555 C206.680949,283.849617 206.035889,283.335756 205.095618,283.138955 C204.155346,282.942154 203.204156,282.931221 202.242018,283.106155 Z M233.336418,278.710955 C233.511352,279.935494 233.653484,281.236548 233.762818,282.614155 C233.872152,283.991762 233.959617,285.380281 234.025218,286.779755 C234.090818,288.179229 234.123618,289.534948 234.123618,290.846955 C234.123618,292.158961 234.101751,293.33975 234.058018,294.389355 C235.457491,295.351493 236.29935,296.204285 236.583618,296.947755 C236.867886,297.691225 236.900685,298.347219 236.682018,298.915755 C236.419616,299.702959 235.949488,300.107488 235.271618,300.129355 C234.593748,300.151222 233.817489,299.921624 232.942818,299.440555 C232.330548,299.87789 231.630822,300.348019 230.843618,300.850955 C230.056414,301.353891 229.225489,301.834953 228.350818,302.294155 C227.476147,302.753357 226.601489,303.157886 225.726818,303.507755 C224.852147,303.857623 224.043088,304.098154 223.299618,304.229355 C221.900144,304.448023 220.642823,304.185625 219.527618,303.442155 C218.412412,302.698685 217.65802,301.583496 217.264418,300.096555 C217.002016,299.090683 216.936417,298.052027 217.067618,296.980555 C217.198818,295.909083 217.526815,294.88136 218.051618,293.897355 C218.57642,292.91335 219.28708,292.027759 220.183618,291.240555 C221.080155,290.453351 222.140678,289.84109 223.365218,289.403755 C223.671353,289.272554 224.097748,289.163222 224.644418,289.075755 C225.191087,288.988288 225.759615,288.955488 226.350018,288.977355 C226.940421,288.999222 227.541748,289.119487 228.154018,289.338155 C228.766287,289.556823 229.334815,289.928552 229.859618,290.453355 C229.859618,289.709885 229.848684,288.889893 229.826818,287.993355 C229.804951,287.096817 229.772151,286.189359 229.728418,285.270955 C229.684684,284.35255 229.630018,283.488826 229.564418,282.679755 C229.498817,281.870684 229.422285,281.181891 229.334818,280.613355 C229.247351,279.957352 228.995886,279.552822 228.580418,279.399755 C228.164949,279.246687 227.651087,279.279487 227.038818,279.498155 C225.989212,279.848023 224.764691,280.525883 223.365218,281.531755 C221.965744,282.537627 220.631891,283.609083 219.363618,284.746155 C218.970016,285.139757 218.521754,285.314688 218.018818,285.270955 C217.515882,285.227221 217.089486,285.030423 216.739618,284.680555 C216.389749,284.330686 216.192951,283.926157 216.149218,283.466955 C216.105484,283.007753 216.280416,282.515758 216.674018,281.990955 C217.417488,281.203751 218.248413,280.394692 219.166818,279.563755 C220.085222,278.732817 221.047346,277.978425 222.053218,277.300555 C223.059089,276.622685 224.086812,276.06509 225.136418,275.627755 C226.186023,275.190419 227.235612,274.949888 228.285218,274.906155 C229.815892,274.862421 230.99668,275.201351 231.827618,275.922955 C232.658555,276.644559 233.161483,277.573883 233.336418,278.710955 Z M225.726818,292.814955 C225.158281,292.946156 224.556954,293.219486 223.922818,293.634955 C223.288681,294.050424 222.720154,294.553352 222.217218,295.143755 C221.714282,295.734158 221.342552,296.390151 221.102018,297.111755 C220.861483,297.833359 220.85055,298.544018 221.069218,299.243755 C221.156685,299.506156 221.34255,299.702954 221.626818,299.834155 C221.911086,299.965356 222.228149,299.987222 222.578018,299.899755 C223.627623,299.681087 224.819344,299.254691 226.153218,298.620555 C227.487091,297.986418 228.547614,297.297625 229.334818,296.554155 C229.334818,296.291754 229.203619,295.952824 228.941218,295.537355 C228.678816,295.121886 228.372686,294.706424 228.022818,294.290955 C227.672949,293.875486 227.290286,293.51469 226.874818,293.208555 C226.459349,292.90242 226.076686,292.771221 225.726818,292.814955 Z M252.754018,283.368555 C252.666551,282.887486 252.579085,282.42829 252.491618,281.990955 C252.404151,281.553619 252.185486,281.269356 251.835618,281.138155 C251.092147,280.919487 250.304955,280.897621 249.474018,281.072555 C248.64308,281.247489 247.877755,281.52082 247.178018,281.892555 C246.478281,282.26429 245.887887,282.679753 245.406818,283.138955 C244.925749,283.598157 244.663351,284.002686 244.619618,284.352555 C244.488417,285.008558 244.663349,285.642685 245.144418,286.254955 C245.625487,286.867225 246.325213,287.479485 247.243618,288.091755 C248.774292,289.010159 250.370543,289.950417 252.032418,290.912555 C253.694293,291.874693 255.093745,292.858683 256.230818,293.864555 C257.36789,294.870427 258.144149,295.974682 258.559618,297.177355 C258.975086,298.380028 258.876687,299.746681 258.264418,301.277355 C257.783349,302.458161 256.886824,303.420285 255.574818,304.163755 C254.262811,304.907225 252.819626,305.486686 251.245218,305.902155 C249.67081,306.317624 248.096426,306.601887 246.522018,306.754955 C244.94761,306.908022 243.613756,306.984555 242.520418,306.984555 C242.258016,306.984555 241.940953,306.886156 241.569218,306.689355 C241.197482,306.492554 240.847619,306.262956 240.519618,306.000555 C240.191616,305.738154 239.907352,305.464823 239.666818,305.180555 C239.426283,304.896287 239.306018,304.644823 239.306018,304.426155 C239.306018,303.638951 239.655881,303.09229 240.355618,302.786155 C241.055355,302.48002 241.776947,302.326955 242.520418,302.326955 C243.570023,302.326955 244.696145,302.272289 245.898818,302.162955 C247.10149,302.053621 248.249479,301.878689 249.342818,301.638155 C250.436156,301.39762 251.420147,301.080557 252.294818,300.686955 C253.169489,300.293353 253.781749,299.790425 254.131618,299.178155 C254.437753,298.653352 254.251888,298.030159 253.574018,297.308555 C252.896148,296.586951 251.999623,295.832559 250.884418,295.045355 C249.769212,294.258151 248.566557,293.492825 247.276418,292.749355 C245.986278,292.005885 244.882022,291.328025 243.963618,290.715755 C243.045213,290.103485 242.258021,289.370959 241.602018,288.518155 C240.946014,287.665351 240.530552,286.604828 240.355618,285.336555 C240.311884,284.199483 240.552415,283.10616 241.077218,282.056555 C241.60202,281.00695 242.290813,280.077626 243.143618,279.268555 C243.996422,278.459484 244.969479,277.814424 246.062818,277.333355 C247.156156,276.852286 248.249479,276.611755 249.342818,276.611755 C251.22336,276.699222 252.775878,277.213084 254.000418,278.153355 C255.224957,279.093626 255.94655,280.482146 256.165218,282.318955 C256.165218,282.931225 256.066819,283.434153 255.870018,283.827755 C255.673217,284.221357 255.334287,284.461888 254.853218,284.549355 C254.240948,284.636822 253.748953,284.560289 253.377218,284.319755 C253.005482,284.07922 252.797751,283.762157 252.754018,283.368555 Z M277.616418,285.402155 C278.447355,285.358421 279.27828,285.555219 280.109218,285.992555 C280.940155,286.42989 281.355618,287.10775 281.355618,288.026155 C281.268151,288.769625 280.863621,289.239754 280.142018,289.436555 C279.420414,289.633356 278.840953,289.731755 278.403618,289.731755 C277.528947,289.731755 276.588689,289.753621 275.582818,289.797355 C274.576946,289.841088 273.549223,289.906688 272.499618,289.994155 C272.412151,291.437362 272.335618,292.793082 272.270018,294.061355 C272.204417,295.329628 272.149751,296.45575 272.106018,297.439755 C272.062284,298.42376 272.040418,299.221885 272.040418,299.834155 C272.040418,300.446425 272.062284,300.774421 272.106018,300.818155 C273.068156,300.643221 274.106812,300.348024 275.222018,299.932555 C276.337223,299.517086 277.452412,299.057891 278.567618,298.554955 C279.682823,298.052019 280.776146,297.527224 281.847618,296.980555 C282.91909,296.433885 283.93588,295.920024 284.898018,295.438955 C285.335353,295.220287 285.739882,295.154688 286.111618,295.242155 C286.483353,295.329622 286.712951,295.52642 286.800418,295.832555 C286.887885,296.313624 286.822285,296.904018 286.603618,297.603755 C286.38495,298.303492 285.991354,298.937619 285.422818,299.506155 C284.766814,300.030958 283.90309,300.632285 282.831618,301.310155 C281.760146,301.988025 280.612157,302.633085 279.387618,303.245355 C278.163078,303.857625 276.927624,304.393353 275.681218,304.852555 C274.434811,305.311757 273.330556,305.585088 272.368418,305.672555 C270.92521,305.803756 269.831888,305.410159 269.088418,304.491755 C268.344947,303.57335 267.929485,302.414429 267.842018,301.014955 C267.754551,299.615481 267.743617,297.997364 267.809218,296.160555 C267.874818,294.323746 267.951351,292.377632 268.038818,290.322155 C267.20788,290.409622 266.409755,290.486155 265.644418,290.551755 C264.879081,290.617355 264.146555,290.693888 263.446818,290.781355 C262.878281,290.781355 262.255088,290.650156 261.577218,290.387755 C260.899348,290.125354 260.560418,289.622425 260.560418,288.878955 C260.560418,288.616554 260.66975,288.26669 260.888418,287.829355 C261.107085,287.392019 261.588147,287.064023 262.331618,286.845355 C264.124693,286.53922 266.11454,286.276823 268.301218,286.058155 C268.432418,284.002678 268.585483,282.012831 268.760418,280.088555 C268.935352,278.164279 269.088417,276.414963 269.219618,274.840555 C269.263351,274.315752 269.416416,273.856557 269.678818,273.462955 C269.941219,273.069353 270.225483,272.872555 270.531618,272.872555 C271.275088,272.828821 271.985748,273.014686 272.663618,273.430155 C273.341488,273.845624 273.680418,274.315752 273.680418,274.840555 C273.505483,276.327496 273.341485,278.011212 273.188418,279.891755 C273.03535,281.772298 272.893218,283.696545 272.762018,285.664555 C273.636689,285.577088 274.478547,285.522422 275.287618,285.500555 C276.096688,285.478688 276.872947,285.445888 277.616418,285.402155 Z M322.946018,286.123755 C322.639883,286.298689 322.268153,286.353355 321.830818,286.287755 C321.393482,286.222155 321.021753,285.948824 320.715618,285.467755 C320.015881,284.54935 319.163089,284.090155 318.157218,284.090155 C317.238813,284.090155 316.418821,284.297886 315.697218,284.713355 C314.975614,285.128824 314.341487,285.675485 313.794818,286.353355 C313.248148,287.031225 312.799886,287.785617 312.450018,288.616555 C312.100149,289.447492 311.859618,290.278417 311.728418,291.109355 C311.50975,292.640029 311.772147,293.93015 312.515618,294.979755 C313.259088,296.02936 314.41801,296.554155 315.992418,296.554155 C317.260691,296.597888 318.692943,296.346424 320.289218,295.799755 C321.885492,295.253085 323.383344,294.542426 324.782818,293.667755 C325.395087,293.405354 325.963615,293.252288 326.488418,293.208555 C327.01322,293.164821 327.450549,293.427219 327.800418,293.995755 C328.237753,294.695492 328.128421,295.406151 327.472418,296.127755 C326.816414,296.849359 325.941756,297.494419 324.848418,298.062955 C323.755079,298.675225 322.60709,299.210953 321.404418,299.670155 C320.201745,300.129357 318.988157,300.457354 317.763618,300.654155 C316.539078,300.850956 315.32549,300.861889 314.122818,300.686955 C312.920145,300.512021 311.794023,300.096558 310.744418,299.440555 C309.082543,298.303483 308.076686,296.685365 307.726818,294.586155 C307.376949,292.486944 307.530014,290.322166 308.186018,288.091755 C308.448419,287.260817 308.820149,286.418959 309.301218,285.566155 C309.782287,284.713351 310.361748,283.937092 311.039618,283.237355 C311.717488,282.537618 312.47188,281.936291 313.302818,281.433355 C314.133755,280.930419 315.052146,280.591489 316.058018,280.416555 C317.676159,280.154154 319.228677,280.318152 320.715618,280.908555 C322.202558,281.498958 323.186549,282.581347 323.667618,284.155755 C323.755085,284.505623 323.755085,284.86642 323.667618,285.238155 C323.580151,285.60989 323.33962,285.905087 322.946018,286.123755 Z M348.005218,278.710955 C348.180152,279.935494 348.322284,281.236548 348.431618,282.614155 C348.540952,283.991762 348.628417,285.380281 348.694018,286.779755 C348.759618,288.179229 348.792418,289.534948 348.792418,290.846955 C348.792418,292.158961 348.770551,293.33975 348.726818,294.389355 C350.126291,295.351493 350.96815,296.204285 351.252418,296.947755 C351.536686,297.691225 351.569485,298.347219 351.350818,298.915755 C351.088416,299.702959 350.618288,300.107488 349.940418,300.129355 C349.262548,300.151222 348.486289,299.921624 347.611618,299.440555 C346.999348,299.87789 346.299622,300.348019 345.512418,300.850955 C344.725214,301.353891 343.894289,301.834953 343.019618,302.294155 C342.144947,302.753357 341.270289,303.157886 340.395618,303.507755 C339.520947,303.857623 338.711888,304.098154 337.968418,304.229355 C336.568944,304.448023 335.311623,304.185625 334.196418,303.442155 C333.081212,302.698685 332.32682,301.583496 331.933218,300.096555 C331.670816,299.090683 331.605217,298.052027 331.736418,296.980555 C331.867618,295.909083 332.195615,294.88136 332.720418,293.897355 C333.24522,292.91335 333.95588,292.027759 334.852418,291.240555 C335.748955,290.453351 336.809478,289.84109 338.034018,289.403755 C338.340153,289.272554 338.766548,289.163222 339.313218,289.075755 C339.859887,288.988288 340.428415,288.955488 341.018818,288.977355 C341.609221,288.999222 342.210548,289.119487 342.822818,289.338155 C343.435087,289.556823 344.003615,289.928552 344.528418,290.453355 C344.528418,289.709885 344.517484,288.889893 344.495618,287.993355 C344.473751,287.096817 344.440951,286.189359 344.397218,285.270955 C344.353484,284.35255 344.298818,283.488826 344.233218,282.679755 C344.167617,281.870684 344.091085,281.181891 344.003618,280.613355 C343.916151,279.957352 343.664686,279.552822 343.249218,279.399755 C342.833749,279.246687 342.319887,279.279487 341.707618,279.498155 C340.658012,279.848023 339.433491,280.525883 338.034018,281.531755 C336.634544,282.537627 335.300691,283.609083 334.032418,284.746155 C333.638816,285.139757 333.190554,285.314688 332.687618,285.270955 C332.184682,285.227221 331.758286,285.030423 331.408418,284.680555 C331.058549,284.330686 330.861751,283.926157 330.818018,283.466955 C330.774284,283.007753 330.949216,282.515758 331.342818,281.990955 C332.086288,281.203751 332.917213,280.394692 333.835618,279.563755 C334.754022,278.732817 335.716146,277.978425 336.722018,277.300555 C337.727889,276.622685 338.755612,276.06509 339.805218,275.627755 C340.854823,275.190419 341.904412,274.949888 342.954018,274.906155 C344.484692,274.862421 345.66548,275.201351 346.496418,275.922955 C347.327355,276.644559 347.830283,277.573883 348.005218,278.710955 Z M340.395618,292.814955 C339.827081,292.946156 339.225754,293.219486 338.591618,293.634955 C337.957481,294.050424 337.388954,294.553352 336.886018,295.143755 C336.383082,295.734158 336.011352,296.390151 335.770818,297.111755 C335.530283,297.833359 335.51935,298.544018 335.738018,299.243755 C335.825485,299.506156 336.01135,299.702954 336.295618,299.834155 C336.579886,299.965356 336.896949,299.987222 337.246818,299.899755 C338.296423,299.681087 339.488144,299.254691 340.822018,298.620555 C342.155891,297.986418 343.216414,297.297625 344.003618,296.554155 C344.003618,296.291754 343.872419,295.952824 343.610018,295.537355 C343.347616,295.121886 343.041486,294.706424 342.691618,294.290955 C342.341749,293.875486 341.959086,293.51469 341.543618,293.208555 C341.128149,292.90242 340.745486,292.771221 340.395618,292.814955 Z M359.354018,281.334955 C359.485218,281.990958 359.62735,282.723484 359.780418,283.532555 C359.933485,284.341626 360.097483,285.172551 360.272418,286.025355 C360.447352,286.878159 360.600417,287.741884 360.731618,288.616555 C360.862818,289.491226 360.972151,290.322151 361.059618,291.109355 C361.58442,289.972283 362.152948,288.769628 362.765218,287.501355 C363.377487,286.233082 364.044414,285.063227 364.766018,283.991755 C365.487621,282.920283 366.252947,282.034692 367.062018,281.334955 C367.871088,280.635218 368.75668,280.285355 369.718818,280.285355 C371.162025,280.285355 372.375613,280.81015 373.359618,281.859755 C374.343623,282.90936 375.174548,284.210414 375.852418,285.762955 C376.530288,287.315496 377.066016,288.944546 377.459618,290.650155 C377.85322,292.355763 378.181216,293.864548 378.443618,295.176555 C378.706019,296.357361 378.181224,297.232019 376.869218,297.800555 C376.256948,298.10669 375.797753,298.150423 375.491618,297.931755 C375.185483,297.713087 375.010551,297.494423 374.966818,297.275755 C374.74815,296.750952 374.474819,295.832561 374.146818,294.520555 C373.818816,293.208548 373.447086,291.874695 373.031618,290.518955 C372.616149,289.163215 372.14602,287.982427 371.621218,286.976555 C371.096415,285.970683 370.506021,285.511488 369.850018,285.598955 C369.062814,285.642688 368.363087,286.233083 367.750818,287.370155 C367.226015,288.288559 366.690287,289.305349 366.143618,290.420555 C365.596948,291.53576 365.06122,292.672816 364.536418,293.831755 C364.011615,294.990694 363.497754,296.149616 362.994818,297.308555 C362.491882,298.467494 362.021753,299.528017 361.584418,300.490155 C361.278283,300.79629 360.89562,301.004021 360.436418,301.113355 C359.977215,301.222689 359.507087,301.189889 359.026018,301.014955 C358.588682,300.883754 358.238819,300.66509 357.976418,300.358955 C357.714016,300.05282 357.582818,299.74669 357.582818,299.440555 C357.189216,296.029338 356.784686,292.924302 356.369218,290.125355 C355.953749,287.326408 355.418021,284.461903 354.762018,281.531755 C354.455883,280.525883 354.401217,279.727758 354.598018,279.137355 C354.794819,278.546952 355.439879,278.317354 356.533218,278.448555 C358.063892,278.710956 359.004149,279.67308 359.354018,281.334955 Z M188.072418,329.883755 C187.941217,329.096551 187.995883,328.374958 188.236418,327.718955 C188.476952,327.062952 188.968947,326.691222 189.712418,326.603755 C190.368421,326.516288 190.947882,326.691219 191.450818,327.128555 C191.953754,327.56589 192.270817,328.134418 192.402018,328.834155 C193.276689,333.863513 194.096681,338.859997 194.862018,343.823755 C195.627355,348.787513 196.316148,353.652798 196.928418,358.419755 C197.103352,359.688028 197.015886,360.551753 196.666018,361.010955 C196.316149,361.470157 195.900687,361.809087 195.419618,362.027755 C194.894815,362.246423 194.40282,362.246423 193.943618,362.027755 C193.484415,361.809087 193.189218,361.415491 193.058018,360.846955 L192.992418,360.453355 L192.730018,360.518955 C191.28681,361.043758 189.778026,361.338955 188.203618,361.404555 C186.62921,361.470155 185.120425,361.28429 183.677218,360.846955 C182.23401,360.409619 180.954823,359.69896 179.839618,358.714955 C178.724412,357.73095 177.926287,356.473629 177.445218,354.942955 C176.395612,351.575471 177.051606,348.514169 179.413218,345.758955 C180.419089,344.621883 181.665477,343.594159 183.152418,342.675755 C184.639358,341.75735 186.432407,341.035758 188.531618,340.510955 L189.712418,340.248555 L188.072418,329.883755 Z M181.446818,353.302955 C181.709219,354.35256 182.190281,355.161619 182.890018,355.730155 C183.589755,356.298691 184.42068,356.681354 185.382818,356.878155 C186.344956,357.074956 187.372679,357.107756 188.466018,356.976555 C189.559356,356.845354 190.630812,356.604823 191.680418,356.254955 L192.270818,356.058155 L190.434018,344.512555 L189.122018,344.840555 C188.203613,345.102956 187.230556,345.507485 186.202818,346.054155 C185.175079,346.600824 184.267622,347.245885 183.480418,347.989355 C182.693214,348.732825 182.091886,349.56375 181.676418,350.482155 C181.260949,351.400559 181.184416,352.340817 181.446818,353.302955 Z M215.493218,340.248555 C216.805224,340.729624 217.90948,341.451217 218.806018,342.413355 C219.702555,343.375493 220.391349,344.457882 220.872418,345.660555 C221.353487,346.863228 221.626817,348.098682 221.692418,349.366955 C221.758018,350.635228 221.615886,351.816016 221.266018,352.909355 C220.784949,354.133894 220.172688,355.336549 219.429218,356.517355 C218.685747,357.698161 217.832956,358.74775 216.870818,359.666155 C215.90868,360.584559 214.815357,361.328019 213.590818,361.896555 C212.366278,362.465091 211.010558,362.749355 209.523618,362.749355 C207.730542,362.749355 206.221757,362.333892 204.997218,361.502955 C203.772678,360.672017 202.810555,359.600561 202.110818,358.288555 C201.411081,356.976548 200.962819,355.48963 200.766018,353.827755 C200.569217,352.16588 200.602016,350.50403 200.864418,348.842155 C201.039352,347.617615 201.334549,346.425894 201.750018,345.266955 C202.165486,344.108016 202.701214,343.080293 203.357218,342.183755 C204.013221,341.287217 204.767613,340.554691 205.620418,339.986155 C206.473222,339.417619 207.446279,339.133355 208.539618,339.133355 C209.151887,339.133355 209.917213,339.25362 210.835618,339.494155 C211.754022,339.734689 212.606814,340.073619 213.394018,340.510955 C213.962554,339.986152 214.66228,339.898686 215.493218,340.248555 Z M213.000418,345.037355 C212.519349,344.73122 211.961754,344.326691 211.327618,343.823755 C210.693481,343.320819 210.135887,343.069355 209.654818,343.069355 C209.130015,343.069355 208.616154,343.309886 208.113218,343.790955 C207.610282,344.272024 207.172953,344.829618 206.801218,345.463755 C206.429482,346.097891 206.112419,346.742952 205.850018,347.398955 C205.587616,348.054958 205.412685,348.579753 205.325218,348.973355 C205.194017,349.629358 205.106551,350.41655 205.062818,351.334955 C205.019084,352.253359 205.084683,353.160817 205.259618,354.057355 C205.434552,354.953893 205.773482,355.762951 206.276418,356.484555 C206.779354,357.206159 207.533746,357.72002 208.539618,358.026155 C209.151887,358.201089 209.87348,358.190156 210.704418,357.993355 C211.535355,357.796554 212.355347,357.435758 213.164418,356.910955 C213.973488,356.386152 214.738814,355.686426 215.460418,354.811755 C216.182021,353.937084 216.739616,352.931227 217.133218,351.794155 C217.570553,350.525882 217.581486,349.202962 217.166018,347.825355 C216.750549,346.447748 215.908691,345.452825 214.640418,344.840555 C214.334283,345.059223 214.028153,345.168555 213.722018,345.168555 C213.415883,345.168555 213.175352,345.124822 213.000418,345.037355 Z M237.272418,328.768555 C236.878816,330.692831 236.474286,332.595212 236.058818,334.475755 C235.643349,336.356298 235.260686,338.236812 234.910818,340.117355 C234.560949,341.997898 234.298552,343.878412 234.123618,345.758955 C233.948683,347.639498 233.926817,349.520012 234.058018,351.400555 C234.145485,351.881624 234.068952,352.340819 233.828418,352.778155 C233.587883,353.21549 233.314553,353.499754 233.008418,353.630955 C232.04628,353.980823 231.346553,353.740292 230.909218,352.909355 C230.384415,350.678944 230.111084,348.470432 230.089218,346.283755 C230.067351,344.097077 230.220416,341.932299 230.548418,339.789355 C230.876419,337.646411 231.313748,335.514432 231.860418,333.393355 C232.407087,331.272278 232.964681,329.162165 233.533218,327.062955 C233.751885,326.188284 234.101749,325.707222 234.582818,325.619755 C235.063887,325.532288 235.523082,325.576021 235.960418,325.750955 C236.616421,325.969623 237.031883,326.406952 237.206818,327.062955 C237.381752,327.718958 237.403618,328.287486 237.272418,328.768555 Z M234.648418,364.061355 C234.648418,364.542424 234.593752,365.187484 234.484418,365.996555 C234.375084,366.805626 234.200152,367.560018 233.959618,368.259755 C233.719083,368.959492 233.391086,369.528019 232.975618,369.965355 C232.560149,370.40269 232.046287,370.490156 231.434018,370.227755 C231.084149,370.009087 230.734286,369.593625 230.384418,368.981355 C230.034549,368.369085 229.881484,367.800558 229.925218,367.275755 C230.012685,366.22615 230.231349,365.198427 230.581218,364.192555 C230.931086,363.186683 231.390281,362.574423 231.958818,362.355755 C232.221219,362.268288 232.516416,362.268288 232.844418,362.355755 C233.172419,362.443222 233.467616,362.585354 233.730018,362.782155 C233.992419,362.978956 234.211083,363.19762 234.386018,363.438155 C234.560952,363.678689 234.648418,363.886421 234.648418,364.061355 Z M275.058018,348.514155 C274.883083,349.213892 274.719085,350.230682 274.566018,351.564555 C274.41295,352.898428 274.281752,354.297881 274.172418,355.762955 C274.063084,357.228029 273.975618,358.638415 273.910018,359.994155 C273.844417,361.349895 273.811618,362.399485 273.811618,363.142955 C273.811618,364.411228 273.111891,365.045355 271.712418,365.045355 C271.231349,365.045355 270.783086,364.914156 270.367618,364.651755 C269.952149,364.389354 269.744418,363.886425 269.744418,363.142955 C269.744418,361.306146 269.810017,359.316299 269.941218,357.173355 C270.072418,355.030411 270.24735,352.8219 270.466018,350.547755 C268.935343,347.748808 267.503091,344.993635 266.169218,342.282155 C264.835344,339.570675 263.709222,337.0779 262.790818,334.803755 C262.615883,334.410153 262.473752,333.983757 262.364418,333.524555 C262.255084,333.065353 262.211351,332.638957 262.233218,332.245355 C262.255084,331.851753 262.353483,331.512823 262.528418,331.228555 C262.703352,330.944287 263.009482,330.758422 263.446818,330.670955 C263.927887,330.627221 264.398015,330.660021 264.857218,330.769355 C265.31642,330.878689 265.720949,331.173886 266.070818,331.654955 C266.420686,332.573359 266.858015,333.622949 267.382818,334.803755 C267.90762,335.984561 268.454281,337.187215 269.022818,338.411755 C269.591354,339.636294 270.159881,340.806149 270.728418,341.921355 C271.296954,343.03656 271.799882,343.987751 272.237218,344.774955 C274.205228,342.150942 276.074809,339.461369 277.846018,336.706155 C279.617227,333.950941 281.268143,331.326967 282.798818,328.834155 C283.367354,327.959484 283.957748,327.478422 284.570018,327.390955 C285.182287,327.303488 285.685216,327.434686 286.078818,327.784555 C286.428686,328.046956 286.636417,328.484285 286.702018,329.096555 C286.767618,329.708825 286.691085,330.255486 286.472418,330.736555 C285.728947,332.048561 284.865223,333.480814 283.881218,335.033355 C282.897213,336.585896 281.891356,338.149347 280.863618,339.723755 C279.835879,341.298163 278.819089,342.850681 277.813218,344.381355 C276.807346,345.912029 275.888955,347.289615 275.058018,348.514155 Z M306.939618,347.726955 C305.234009,348.732827 303.397228,349.509085 301.429218,350.055755 C299.461208,350.602424 297.340162,350.875755 295.066018,350.875755 C295.153485,352.406429 295.590814,353.620017 296.378018,354.516555 C297.165222,355.413093 298.149212,355.948821 299.330018,356.123755 C300.029755,356.211222 300.740414,356.189356 301.462018,356.058155 C302.183621,355.926954 302.861481,355.719223 303.495618,355.434955 C304.129754,355.150687 304.709215,354.833623 305.234018,354.483755 C305.75882,354.133886 306.218016,353.784023 306.611618,353.434155 C307.00522,353.084286 307.420682,352.854689 307.858018,352.745355 C308.295353,352.636021 308.62335,352.625088 308.842018,352.712555 C309.454287,352.931223 309.672952,353.587216 309.498018,354.680555 C308.798281,356.080029 307.792424,357.27175 306.480418,358.255755 C305.168411,359.23976 303.703359,359.862954 302.085218,360.125355 C300.685744,360.387756 299.242558,360.322157 297.755618,359.928555 C296.268677,359.534953 294.934824,358.769627 293.754018,357.632555 C292.748146,356.626683 291.98282,355.445895 291.458018,354.090155 C290.933215,352.734415 290.605218,351.334962 290.474018,349.891755 C290.342817,348.536015 290.463082,347.245894 290.834818,346.021355 C291.206553,344.796815 291.786014,343.714426 292.573218,342.774155 C293.360422,341.833884 294.344412,341.057625 295.525218,340.445355 C296.706024,339.833085 298.08361,339.483222 299.658018,339.395755 C301.53856,339.264554 303.244143,339.614417 304.774818,340.445355 C306.305492,341.276292 307.376948,342.435214 307.989218,343.922155 C308.339086,344.753092 308.437485,345.474685 308.284418,346.086955 C308.13135,346.699225 307.683088,347.245886 306.939618,347.726955 Z M299.395618,343.266155 C298.958282,343.353622 298.488154,343.506687 297.985218,343.725355 C297.482282,343.944023 297.023086,344.217353 296.607618,344.545355 C296.192149,344.873357 295.820419,345.245086 295.492418,345.660555 C295.164416,346.076024 294.978551,346.546152 294.934818,347.070955 C295.678288,347.070955 296.49828,347.005356 297.394818,346.874155 C298.291355,346.742954 299.166013,346.578956 300.018818,346.382155 C300.871622,346.185354 301.658814,345.955756 302.380418,345.693355 C303.102021,345.430954 303.703349,345.14669 304.184418,344.840555 C303.834549,344.009617 303.189489,343.495756 302.249218,343.298955 C301.308946,343.102154 300.357756,343.091221 299.395618,343.266155 Z M330.490018,338.870955 C330.664952,340.095494 330.807084,341.396548 330.916418,342.774155 C331.025752,344.151762 331.113217,345.540281 331.178818,346.939755 C331.244418,348.339229 331.277218,349.694948 331.277218,351.006955 C331.277218,352.318961 331.255351,353.49975 331.211618,354.549355 C332.611091,355.511493 333.45295,356.364285 333.737218,357.107755 C334.021486,357.851225 334.054285,358.507219 333.835618,359.075755 C333.573216,359.862959 333.103088,360.267488 332.425218,360.289355 C331.747348,360.311222 330.971089,360.081624 330.096418,359.600555 C329.484148,360.03789 328.784422,360.508019 327.997218,361.010955 C327.210014,361.513891 326.379089,361.994953 325.504418,362.454155 C324.629747,362.913357 323.755089,363.317886 322.880418,363.667755 C322.005747,364.017623 321.196688,364.258154 320.453218,364.389355 C319.053744,364.608023 317.796423,364.345625 316.681218,363.602155 C315.566012,362.858685 314.81162,361.743496 314.418018,360.256555 C314.155616,359.250683 314.090017,358.212027 314.221218,357.140555 C314.352418,356.069083 314.680415,355.04136 315.205218,354.057355 C315.73002,353.07335 316.44068,352.187759 317.337218,351.400555 C318.233755,350.613351 319.294278,350.00109 320.518818,349.563755 C320.824953,349.432554 321.251348,349.323222 321.798018,349.235755 C322.344687,349.148288 322.913215,349.115488 323.503618,349.137355 C324.094021,349.159222 324.695348,349.279487 325.307618,349.498155 C325.919887,349.716823 326.488415,350.088552 327.013218,350.613355 C327.013218,349.869885 327.002284,349.049893 326.980418,348.153355 C326.958551,347.256817 326.925751,346.349359 326.882018,345.430955 C326.838284,344.51255 326.783618,343.648826 326.718018,342.839755 C326.652417,342.030684 326.575885,341.341891 326.488418,340.773355 C326.400951,340.117352 326.149486,339.712822 325.734018,339.559755 C325.318549,339.406687 324.804687,339.439487 324.192418,339.658155 C323.142812,340.008023 321.918291,340.685883 320.518818,341.691755 C319.119344,342.697627 317.785491,343.769083 316.517218,344.906155 C316.123616,345.299757 315.675354,345.474688 315.172418,345.430955 C314.669482,345.387221 314.243086,345.190423 313.893218,344.840555 C313.543349,344.490686 313.346551,344.086157 313.302818,343.626955 C313.259084,343.167753 313.434016,342.675758 313.827618,342.150955 C314.571088,341.363751 315.402013,340.554692 316.320418,339.723755 C317.238822,338.892817 318.200946,338.138425 319.206818,337.460555 C320.212689,336.782685 321.240412,336.22509 322.290018,335.787755 C323.339623,335.350419 324.389212,335.109888 325.438818,335.066155 C326.969492,335.022421 328.15028,335.361351 328.981218,336.082955 C329.812155,336.804559 330.315083,337.733883 330.490018,338.870955 Z M322.880418,352.974955 C322.311881,353.106156 321.710554,353.379486 321.076418,353.794955 C320.442281,354.210424 319.873754,354.713352 319.370818,355.303755 C318.867882,355.894158 318.496152,356.550151 318.255618,357.271755 C318.015083,357.993359 318.00415,358.704018 318.222818,359.403755 C318.310285,359.666156 318.49615,359.862954 318.780418,359.994155 C319.064686,360.125356 319.381749,360.147222 319.731618,360.059755 C320.781223,359.841087 321.972944,359.414691 323.306818,358.780555 C324.640691,358.146418 325.701214,357.457625 326.488418,356.714155 C326.488418,356.451754 326.357219,356.112824 326.094818,355.697355 C325.832416,355.281886 325.526286,354.866424 325.176418,354.450955 C324.826549,354.035486 324.443886,353.67469 324.028418,353.368555 C323.612949,353.06242 323.230286,352.931221 322.880418,352.974955 Z M342.232418,334.082155 C342.232418,335.13176 342.221484,336.312548 342.199618,337.624555 C342.177751,338.936561 342.177751,340.292281 342.199618,341.691755 C342.221484,343.091229 342.243351,344.534414 342.265218,346.021355 C342.287084,347.508296 342.319884,348.929615 342.363618,350.285355 C342.800953,349.410684 343.325748,348.546959 343.938018,347.694155 C344.550287,346.841351 345.239081,346.086958 346.004418,345.430955 C346.769755,344.774952 347.578813,344.250157 348.431618,343.856555 C349.284422,343.462953 350.213746,343.266155 351.219618,343.266155 C352.312956,343.266155 353.286013,343.616018 354.138818,344.315755 C354.991622,345.015492 355.735081,345.944816 356.369218,347.103755 C357.003354,348.262694 357.539082,349.552814 357.976418,350.974155 C358.413753,352.395495 358.77455,353.838681 359.058818,355.303755 C359.343086,356.768829 359.550817,358.168282 359.682018,359.502155 C359.813218,360.836028 359.922551,361.984017 360.010018,362.946155 C360.010018,363.645892 359.835086,364.214419 359.485218,364.651755 C359.135349,365.08909 358.719887,365.307755 358.238818,365.307755 C357.888949,365.307755 357.462554,365.078157 356.959618,364.618955 C356.456682,364.159753 356.095885,363.602158 355.877218,362.946155 C355.746017,362.421352 355.614818,361.656027 355.483618,360.650155 C355.352417,359.644283 355.199352,358.561894 355.024418,357.402955 C354.849483,356.244016 354.630819,355.074161 354.368418,353.893355 C354.106016,352.712549 353.788953,351.652026 353.417218,350.711755 C353.045482,349.771484 352.59722,349.038958 352.072418,348.514155 C351.547615,347.989352 350.935355,347.792554 350.235618,347.923755 C349.142279,348.142423 348.191088,348.907748 347.382018,350.219755 C346.572947,351.531761 345.873221,353.01868 345.282818,354.680555 C344.692415,356.34243 344.211353,358.026146 343.839618,359.731755 C343.467882,361.437363 343.194552,362.81495 343.019618,363.864555 C342.844683,364.651759 342.615086,365.187487 342.330818,365.471755 C342.04655,365.756023 341.729486,365.898155 341.379618,365.898155 C341.029749,365.898155 340.712686,365.723223 340.428418,365.373355 C340.14415,365.023486 339.881752,364.597091 339.641218,364.094155 C339.400683,363.591219 339.192952,363.066424 339.018018,362.519755 C338.843083,361.973085 338.733751,361.502957 338.690018,361.109355 C338.47135,358.747743 338.296418,356.484566 338.165218,354.319755 C338.034017,352.154944 337.935618,349.979232 337.870018,347.792555 C337.804417,345.605877 337.771618,343.364566 337.771618,341.068555 C337.771618,338.772543 337.815351,336.312568 337.902818,333.688555 C337.902818,331.501877 338.69001,330.517887 340.264418,330.736555 C340.78922,330.824022 341.248416,331.206685 341.642018,331.884555 C342.03562,332.562425 342.232418,333.294951 342.232418,334.082155 Z M369.850018,362.093355 C370.068685,363.667763 369.412692,364.564287 367.882018,364.782955 C367.094814,364.870422 366.449754,364.651758 365.946818,364.126955 C365.443882,363.602152 365.126818,362.968025 364.995618,362.224555 C364.864417,361.437351 364.919083,360.672025 365.159618,359.928555 C365.400152,359.185085 365.870281,358.769622 366.570018,358.682155 C367.444689,358.550954 368.188148,358.868018 368.800418,359.633355 C369.412687,360.398692 369.762551,361.218684 369.850018,362.093355 Z" id="Lets-see-what-this" fill="#4D394B"></path>
            </g>
            <path d="M425.769005,608.791815 L916.47992,534" id="Line" stroke="#70CADB" stroke-width="43.2" style="mix-blend-mode: multiply;" stroke-linecap="round"></path>
            <path d="M304,617 L881.039687,726" id="Line" stroke="#CF155F" stroke-width="43.2" style="mix-blend-mode: multiply;" stroke-linecap="round"></path>
            <path d="M612,475.800959 L734,809" id="Line" stroke="#39AD88" stroke-width="43.2" style="mix-blend-mode: multiply;" stroke-linecap="round"></path>
            <circle id="Oval-4" fill="#4D394B" cx="368.5" cy="760.5" r="19.5"></circle>
            <path d="M792.5,356.5 L835,809" id="Line" stroke="#D69D21" stroke-width="43.2" style="mix-blend-mode: multiply;" stroke-linecap="round"></path>
        </g>
    </g>
</svg>
