<?xml version="1.0" encoding="UTF-8"?>
<svg width="960px" height="960px" viewBox="0 0 960 960" version="1.1" xmlns="http://www.w3.org/2000/svg" xmlns:xlink="http://www.w3.org/1999/xlink">
    <!-- Generator: Sketch 42 (36781) - http://www.bohemiancoding.com/sketch -->
    <title>user-avatar--3</title>
    <desc>Created with Sketch.</desc>
    <defs></defs>
    <g id="Illustrations-app" stroke="none" stroke-width="1" fill="none" fill-rule="evenodd">
        <g id="user-avatar--3">
            <g id="User:-Color" transform="translate(73.842718, 40.012765)">
                <path d="M450.074829,879.617555 C697.647838,872.540431 779.814399,837.745378 730.277174,807.360772 C680.73995,776.976165 619.592067,786.996813 422.846037,786.996813 C226.100006,786.996813 117.161132,789.140942 86.1665963,827.060236 C55.1720609,864.979529 202.50182,886.69468 450.074829,879.617555 Z" id="Shadow" fill="#C8CDCF"></path>
                <g id="Fill" transform="translate(409.735052, 468.626486) scale(-1, 1) translate(-409.735052, -468.626486) translate(114.735052, 112.626486)">
                    <path d="M300.577769,595.1639 C133.756508,582.962265 0.56327818,528.36033 0.56327818,528.36033 L0.56327818,257.383813 C0.56327818,116.234998 122.94577,0 269.013008,0 L317.82205,0 C463.901581,0 586.27178,116.228794 586.27178,257.383813 L574.486875,528.36033 C574.486875,528.36033 549.881728,638.243853 448.759043,685.170207 C347.636358,732.096562 368.766981,601.711873 300.577769,595.1639 Z" id="Rectangle" fill="#A87056"></path>
                    <path d="M277.753119,297.542002 C323.014883,297.542002 359.706793,262.36259 359.706793,218.966586 C359.706793,175.570583 323.014883,140.391171 277.753119,140.391171 C232.491355,140.391171 195.799445,175.570583 195.799445,218.966586 C195.799445,262.36259 232.491355,297.542002 277.753119,297.542002 Z" id="Oval" fill="#FFFFFF"></path>
                    <path d="M562.531254,150.451905 C555.430327,148.306172 547.871913,147.149114 540.031635,147.149114 C498.739732,147.149114 465.26603,179.242977 465.26603,218.832764 C465.26603,258.42255 498.739732,290.516414 540.031635,290.516414 L540.031635,290.516414 C558.922577,290.516414 576.177139,283.799041 589.338651,272.719698" id="Oval" fill="#FFFFFF"></path>
                    <path d="M9.13391349,224.37473 C9.13391349,224.37473 54.6266495,81.3819103 121.176188,38.8166251 C187.725726,-3.74866012 309.242543,0.0896054423 309.242543,0.0896054423 C309.242543,0.0896054423 314.822871,68.1683086 237.436496,104.178065 C204.581119,119.466469 164.449785,152.52972 164.449785,224.374723 C164.449785,296.219726 261.297779,216.518019 261.297779,314.798705 C261.297779,332.96372 183.849699,392.438535 172.761723,479.138659 C161.673748,565.838784 171.040008,544.850369 172.761723,578.050687 C179.786499,713.51145 299.211099,685.734544 252.847352,711.433912 C200.075025,688.137156 94.3543731,649.190425 80.1294969,635.291567 C65.9046208,621.39271 9.13391349,547.004821 9.13391349,547.004821 L9.13391349,224.37473 Z" id="Rectangle-3" fill="#815743"></path>
                </g>
                <g id="User" transform="translate(417.252753, 424.500000) scale(-1, 1) translate(-417.252753, -424.500000) translate(0.752753, 0.000000)">
                    <path d="M157.353096,690.89987 C157.353096,621.148003 131.583027,382.758354 131.583027,382.758354 C131.583027,233.568643 252.855863,112.626486 402.426278,112.626486 L441.137593,112.626486 C590.72019,112.626486 711.980844,233.562188 711.980844,382.758354 C711.980844,382.758354 742.949622,561.988247 678.441332,703.619332 C622.40177,822.414565 512.503074,826.6695 406.442906,807.099316 C295.159137,786.565275 157.353096,760.651736 157.353096,690.89987 Z" id="Rectangle" stroke="#4D394B" stroke-width="22.3999996" stroke-linecap="round" stroke-linejoin="round"></path>
                    <path d="M133.333231,584.203916 C133.333231,584.203916 330.239015,663.937677 450.583272,690.190621 C471.515824,694.75703 531.023946,804.032373 568.316982,804.032373 C605.610018,804.032373 601.778505,691.595699 618.432296,687.866624 C699.921508,669.619765 702.417976,631.457713 702.417976,631.457713 C702.417976,631.457713 695.390852,683.384381 692.268894,709.372152 C689.146935,735.359924 682.268894,776.239836 682.268894,776.239836 C682.268894,776.239836 619.095491,874.639014 464.216089,842.163923 C404.219746,829.583899 354.830362,831.13021 310.700232,823.427248 C266.570101,815.724287 204.482508,792.433422 204.482508,792.433422 C178.937857,783.489952 155.410197,754.491084 151.929266,727.64147 L133.333231,584.203916 Z" id="Rectangle-2" fill="#8DE99C"></path>
                    <path d="M133.665306,583.545586 L297.100983,650.148395 C297.100983,650.148395 296.864072,679.560913 307.932571,710.145677 C331.223783,799.614929 421.735141,836.745769 421.735141,836.745769 C421.735141,836.745769 338.717408,831.825273 297.100983,823.930658 C255.484558,816.036043 205.822559,799.557145 205.822559,799.557145 C179.974417,791.557182 156.282833,763.313607 152.902812,736.448618 L133.665306,583.545586 Z" id="Rectangle-4" fill-opacity="0.400985054" fill="#292929"></path>
                    <path d="M471.497098,844.180221 C297.171153,832.204181 199.965383,789.986012 199.965383,789.986012 C174.49363,780.88046 151.490546,751.684685 148.587345,724.782715 L133.235042,582.523506 C133.235042,582.523506 307.034576,660.833397 439.595471,685.844215 C507.205402,698.600463 504.2544,802.249716 561.168704,802.249716 C618.083008,802.249716 579.286746,688.346272 623.276004,685.844215 C672.16599,683.063411 701.093517,636.084436 701.093517,636.084436 L684.252772,773.498951 C684.252772,773.498951 645.823044,856.156262 471.497098,844.180221 Z" id="Rectangle" stroke="#4D394B" stroke-width="20" stroke-linecap="round" stroke-linejoin="round"></path>
                    <path d="M409.476714,417.49274 C453.551632,417.49274 489.281414,381.857629 489.281414,337.899493 C489.281414,293.941357 453.551632,258.306246 409.476714,258.306246 C365.401795,258.306246 329.672014,293.941357 329.672014,337.899493 C329.672014,381.857629 365.401795,417.49274 409.476714,417.49274 Z" id="Oval" stroke="#4D394B" stroke-width="22.3999996"></path>
                    <path d="M680.779163,257.439431 C676.703468,256.740746 672.513063,256.376713 668.237407,256.376713 C627.635058,256.376713 594.72035,289.204209 594.72035,329.698977 C594.72035,370.193745 627.635058,403.02124 668.237407,403.02124 L668.237407,403.02124 C684.294134,403.02124 699.148582,397.887316 711.240539,389.175548" id="Oval" stroke="#4D394B" stroke-width="22.3999996"></path>
                    <ellipse id="Oval-2" fill="#4D394B" cx="437.410157" cy="339.343247" rx="13.5426157" ry="13.5067328"></ellipse>
                    <ellipse id="Oval-2" fill="#4D394B" cx="644.17724" cy="329.730815" rx="13.5426157" ry="13.5067328"></ellipse>
                    <path d="M692.735214,275.030893 C638.294319,94.3987955 420.342081,117.898103 428.204114,107.482091 C552.481111,-57.1662511 725.058625,55.9860843 783.222762,142.418457 C922.894567,349.971875 723.413556,469.987235 723.413556,469.987235 C723.413556,469.987235 707.623209,324.428495 692.735214,275.030893 Z" id="Rectangle-6" fill="#4D394B"></path>
                    <g id="Group-2" transform="translate(342.247353, 317.172774) scale(-1, 1) translate(-342.247353, -317.172774) translate(0.747353, 0.172774)">
                        <path d="M171.014077,239.736761 L254.151882,239.736761" id="Line" stroke="#4D394B" stroke-width="22.3999996" stroke-linecap="round"></path>
                        <path d="M56.4001023,429.146893 C56.4001023,429.146893 56.8939361,441.594348 64.4630602,445.596045 C72.6562107,450.011368 82.2697543,445.770758 82.2697543,445.770758 C82.2697543,445.770758 85.3301596,459.29829 105.119424,463.594283 C124.908688,467.890276 137.802782,456.4761 137.802782,456.4761 C137.802782,456.4761 152.621359,459.070972 160.495762,456.4761 C168.370165,454.152837 180.287271,442.32103 180.287271,442.32103" id="Line" stroke="#4D394B" stroke-width="22.3999996" stroke-linecap="round" stroke-linejoin="round"></path>
                        <path d="M-1.63424829e-13,236 L91.255174,236.023328" id="Line" stroke="#4D394B" stroke-width="22.3999996" stroke-linecap="round"></path>
                        <path d="M73,600 C73,600 129.695269,604.582782 164.860949,600 C200.02663,595.417218 220.067103,574.824678 220.067103,574.824678" id="Line" stroke="#4D394B" stroke-width="22.3999996" stroke-linecap="round"></path>
                        <path d="M189.432249,163.391882 C189.432249,19.4605254 395.334619,-65.2598976 586.687259,64.3293948 C641.79204,101.647874 672.379652,235.382511 680.906375,336.466869 C689.433099,437.551227 651.380764,650.65191 577.99267,632.349339 C528.608995,620.033333 484.157538,596.892961 348.048688,469.81446 C211.939838,342.735959 189.432249,234.121228 189.432249,163.391882 Z" id="Rectangle-6" fill="#4D394B"></path>
                    </g>
                </g>
            </g>
        </g>
    </g>
</svg>
