<?xml version="1.0" encoding="UTF-8"?>
<svg width="960px" height="960px" viewBox="0 0 960 960" version="1.1" xmlns="http://www.w3.org/2000/svg" xmlns:xlink="http://www.w3.org/1999/xlink">
    <!-- Generator: Sketch 44.1 (41455) - http://www.bohemiancoding.com/sketch -->
    <title>user-team</title>
    <desc>Created with Sketch.</desc>
    <defs></defs>
    <g id="Illustrations-app" stroke="none" stroke-width="1" fill="none" fill-rule="evenodd">
        <g id="user-team" fill-rule="nonzero">
            <g id="slack-(1)" transform="translate(67.000000, 67.000000)">
                <path d="M72.5373108,437.049524 C41.8748514,437.285524 15.9005,418.888762 6.32336486,390.175429 C5.96807705,389.09103 5.63685058,387.998791 5.32993243,386.899524 C-5.10668919,350.128476 15.1303108,311.660476 51.4017568,299.343524 L633.173649,103.109524 C640.081406,101.097546 647.230068,100.046404 654.420824,99.9853333 C685.898122,99.7380952 712.586851,118.539429 722.398392,147.859619 L723.269041,150.691619 C734.152149,188.991048 707.111811,223.177333 674.713635,234.134476 C674.691311,234.151333 668.797689,236.157333 96.1676081,432.99819 C88.5562822,435.610504 80.5784269,436.97828 72.5373108,437.049524 Z" id="Shape" fill="#70CADB"></path>
                <path d="M169.508595,725.11 C138.606149,725.334762 112.5425,707.196476 103.076986,678.893333 C102.717682,677.81666 102.382731,676.731904 102.072392,675.639905 C91.4906622,638.430571 111.705338,599.558 148.099568,587.22419 L729.893784,389.192095 C737.4115,386.663524 745.174784,385.371143 752.982716,385.298095 C783.968878,385.062095 811.193392,404.121905 820.798432,432.745333 L821.691405,435.723429 C827.311554,455.508095 823.990811,477.742667 812.817486,495.290952 C804.490514,508.338381 778.225946,519.823714 778.225946,519.823714 L194.221622,720.867619 C186.256691,723.582371 177.916935,725.017814 169.508595,725.121238 L169.508595,725.11 Z" id="Shape" fill="#E01765"></path>
                <path d="M653.812486,726.363048 C622.876322,726.662151 595.265723,706.875478 585.416338,677.348095 L391.250527,96.6757143 L390.279419,93.4166667 C379.759081,56.3871429 399.9905,17.7618095 436.250784,5.45609524 C443.506189,3.00057143 451.007162,1.71942857 458.558365,1.652 C469.776338,1.56771429 480.631541,4.11314286 490.856081,9.19838095 C507.866919,17.6679989 520.821037,32.6173323 526.848473,50.734381 L720.997541,631.35619 L721.56123,633.221714 C732.466662,671.667238 712.279892,710.315048 676.019608,722.620762 C668.857203,725.029898 661.363707,726.292682 653.812486,726.363048 L653.812486,726.363048 Z" id="Shape" fill="#E8A723"></path>
                <path d="M365.198041,824.16819 C334.244032,824.465055 306.620383,804.661225 296.773986,775.113905 L102.658405,194.464 C96.5838041,176.372046 97.9071475,156.5903 106.336556,139.481869 C114.765964,122.373439 129.608943,109.343821 147.591689,103.266857 C154.764715,100.852683 162.26944,99.5861188 169.832297,99.5133333 C200.773664,99.2057893 228.391919,118.994718 238.239608,148.528286 L432.36077,729.200667 C438.438282,747.301364 437.110592,767.093089 428.670802,784.206626 C420.231011,801.320164 405.373158,814.348199 387.377257,820.414667 C380.21817,822.830119 372.725805,824.094927 365.175716,824.162571 L365.198041,824.162571 L365.198041,824.16819 Z" id="Shape" fill="#3EB890"></path>
                <polygon id="Shape" fill="#CC2027" points="558.091365 595.596571 693.47723 548.99219 649.219257 416.663619 513.677122 462.779143 558.091365 595.596571"></polygon>
                <polygon id="Shape" fill="#361238" points="269.923405 694.795238 405.298108 648.196476 360.70527 514.856476 225.196622 560.988857 269.923405 694.795238"></polygon>
                <polygon id="Shape" fill="#65863A" points="461.706095 307.361905 597.103122 260.819333 553.364189 130.036 417.716014 175.791905"></polygon>
                <polygon id="Shape" fill="#1A937D" points="173.504649 406.425714 308.901676 359.883143 264.626959 227.430952 128.978784 273.181238 173.504649 406.425714"></polygon>
            </g>
        </g>
    </g>
</svg>