<?xml version="1.0" encoding="UTF-8"?>
<svg width="960px" height="960px" viewBox="0 0 960 960" version="1.1" xmlns="http://www.w3.org/2000/svg" xmlns:xlink="http://www.w3.org/1999/xlink">
    <!-- Generator: Sketch 42 (36781) - http://www.bohemiancoding.com/sketch -->
    <title>user-avatar--2</title>
    <desc>Created with Sketch.</desc>
    <defs></defs>
    <g id="Illustrations-app" stroke="none" stroke-width="1" fill="none" fill-rule="evenodd">
        <g id="user-avatar--2">
            <path d="M414.789954,935.278411 C674.189032,926.219996 850.533687,862.98541 798.804973,831.263099 C747.076259,799.540787 683.504508,818.057181 478.054581,818.057181 C272.604654,818.057181 166.720641,839.099443 120.553728,864.017901 C74.3868143,888.936359 157.634868,940.217926 414.789954,935.278411 Z" id="Shadow" fill="#C8CDCF" transform="translate(458.135689, 874.148323) rotate(2.000000) translate(-458.135689, -874.148323) "></path>
            <g id="Fill" transform="translate(473.500000, 498.000000) scale(-1, 1) translate(-473.500000, -498.000000) translate(164.000000, 135.000000)">
                <path d="M426.553962,724.150635 C261.313992,738.395077 0.0811837357,643.668335 0.0811837357,643.668335 L10.15,605.915493 L10.15,266.602817 C10.15,120.398317 136.521619,0 287.35,0 L337.75,0 C488.591076,0 614.95,120.391891 614.95,266.602817 L614.95,605.915493 C614.95,605.915493 591.793932,709.906193 426.553962,724.150635 Z" id="Rectangle" fill="#FFC6AB"></path>
                <path d="M296.375,308.199396 C343.112097,308.199396 381,271.759924 381,226.809557 C381,181.85919 343.112097,145.419718 296.375,145.419718 C249.637903,145.419718 211.75,181.85919 211.75,226.809557 C211.75,271.759924 249.637903,308.199396 296.375,308.199396 Z" id="Oval" fill="#FFFFFF"></path>
                <path d="M590.435639,155.840809 C583.103253,153.61822 575.298468,152.419718 567.202632,152.419718 C524.564796,152.419718 490,185.663123 490,226.670942 C490,267.67876 524.564796,300.922165 567.202632,300.922165 L567.202632,300.922165 C586.709335,300.922165 604.526319,293.964189 618.116838,282.488004" id="Oval" fill="#FFFFFF"></path>
                <path d="M19,232.41141 C19,232.41141 65.9755973,84.2968572 134.694356,40.2069636 C203.413114,-3.88293008 328.890839,0.0928149406 328.890839,0.0928149406 C328.890839,0.0928149406 334.653062,70.6099692 254.744234,107.909528 C220.817917,123.745533 179.37848,157.993048 179.37848,232.411403 C179.37848,306.829759 203.322897,281.277379 203.322897,383.078294 C203.322897,408.002717 203.322897,432.333144 203.322897,481.927721 C203.322897,531.522299 228.522897,533.277158 228.522897,582.308091 C228.522897,631.339025 228.522897,702.882707 228.522897,702.882707 C228.522897,702.882707 149.999486,680.440336 113.417172,663.049028 C76.8348583,645.65772 19,603.275085 19,603.275085 L19,232.41141 Z" id="Rectangle-3" fill-opacity="0.7" fill="#CC9A83"></path>
            </g>
            <g id="User" transform="translate(488.000000, 453.500000) scale(-1, 1) translate(-488.000000, -453.500000) translate(137.000000, 29.000000)">
                <path d="M448.143141,830.698621 C248.032461,830.698621 67,711.645246 67,711.645246 L67,385.997111 C67,231.358977 192.368669,106 346.99063,106 L387.00937,106 C541.643925,106 667,231.352286 667,385.997111 L667,711.645246 C667,711.645246 648.253822,830.698621 448.143141,830.698621 Z" id="Rectangle" stroke="#4D394B" stroke-width="20" stroke-linecap="round" stroke-linejoin="round"></path>
                <path d="M67.2009563,715.799549 C67.2009563,715.799549 326.5488,771.171023 432.361141,773.311153 C538.173482,775.451284 660.176441,715.799549 660.176441,715.799549 C660.176441,715.799549 663.319815,750.660265 660.176441,763.755758 C657.033067,776.851251 660.176441,797.451041 660.176441,797.451041 C660.176441,797.451041 556.295317,862.152647 400.353516,845.78813 C244.411714,829.423612 67.2009563,797.451041 67.2009563,797.451041 L67.2009563,715.799549 Z" id="Rectangle-2" fill="#A978EC"></path>
                <path d="M68.9541414,715.467811 L284.317809,755.63219 C284.317809,755.63219 282.061295,785.300335 292.648873,803.708758 C303.236452,822.11718 359,843.057868 359,843.057868 L68.9541414,796.320379 L68.9541414,715.467811 Z" id="Rectangle-4" fill-opacity="0.400985054" fill="#292929"></path>
                <path d="M407.31985,846.804162 C231.798111,840.769318 67,794.771612 67,794.771612 L67,713.844602 C67,713.844602 303.558551,768.939609 439.494209,768.939609 C575.429867,768.939609 666.809309,713.844602 666.809309,713.844602 L661.809309,796.069881 C661.809309,796.069881 582.84159,852.839006 407.31985,846.804162 Z" id="Rectangle" stroke="#4D394B" stroke-width="20" stroke-linecap="round" stroke-linejoin="round"></path>
                <path d="M354.5,422 C400.063492,422 437,385.063492 437,339.5 C437,293.936508 400.063492,257 354.5,257 C308.936508,257 272,293.936508 272,339.5 C272,385.063492 308.936508,422 354.5,422 Z" id="Oval" stroke="#4D394B" stroke-width="20"></path>
                <path d="M634.965338,256.101529 C630.751991,255.377328 626.42006,255 622,255 C580.026359,255 546,289.026359 546,331 C546,372.973641 580.026359,407 622,407 L622,407 C638.599022,407 653.95516,401.678584 666.455507,392.648662" id="Oval" stroke="#4D394B" stroke-width="20"></path>
                <ellipse id="Oval-2" fill="#4D394B" cx="372" cy="339" rx="14" ry="14"></ellipse>
                <ellipse id="Oval-2" fill="#4D394B" cx="610" cy="332" rx="14" ry="14"></ellipse>
                <ellipse id="Oval-2" fill="#4D394B" cx="527" cy="635" rx="22" ry="22"></ellipse>
                <g id="Group-2" transform="translate(351.000000, 313.500000) scale(-1, 1) translate(-351.000000, -313.500000) ">
                    <path d="M121.28041,435.570945 C121.28041,435.570945 124.959596,444.783075 132.062876,446.474515 C139.166156,448.165954 143.02559,449.071206 143.02559,449.071206 C143.02559,449.071206 143.8925,468.527229 163.626793,471 C189.796488,473.59755 202,450.75 202,450.75 C202,450.75 208.391097,455.878481 217.639545,455.878481 C226.887993,455.878481 236.74622,450.75 236.74622,450.75" id="Line" stroke="#4D394B" stroke-width="20" stroke-linecap="round" stroke-linejoin="round"></path>
                    <path d="M498.011473,231.591288 C469.251447,197.093367 476.658668,298.710794 461.421241,328.362555 C419.02174,338.069612 66.0440213,367.83506 0.992452167,308.04213 C0.992452167,199.516277 120.829564,-110.900899 524.70418,41.3955472 C780.393648,137.813088 701.601185,579.025032 637.51556,622.138788 C573.429935,665.252544 650.804841,358.08234 562.328381,402.223262 C473.851921,446.364183 528.399858,268.042441 498.011473,231.591288 Z" id="Rectangle-6" fill="#4D394B"></path>
                </g>
            </g>
        </g>
    </g>
</svg>
