<?xml version="1.0" encoding="UTF-8" standalone="no"?>
<svg width="960px" height="960px" viewBox="0 0 960 960" version="1.1" xmlns="http://www.w3.org/2000/svg" xmlns:xlink="http://www.w3.org/1999/xlink">
    <!-- Generator: Sketch 39.1 (31720) - http://www.bohemiancoding.com/sketch -->
    <title>user-avatar</title>
    <desc>Created with Sketch.</desc>
    <defs>
        <path d="M481.962903,687.08129 C478.669683,676.542984 484.202536,664.417283 494.333158,659.992414 L631.666842,600.007586 C641.791965,595.585119 653.708678,600.159091 658.277046,610.209502 L671.722954,639.790498 C676.29424,649.847328 672.355332,662.657097 662.919751,668.405209 L523.080249,753.594791 C513.647088,759.341429 503.33111,755.459552 500.037097,744.91871 L481.962903,687.08129 Z" id="path-1"></path>
        <mask id="mask-2" maskContentUnits="userSpaceOnUse" maskUnits="objectBoundingBox" x="0" y="0" width="192.615723" height="157.931421" fill="white">
            <use xlink:href="#path-1"></use>
        </mask>
        <path d="M19.701043,692.934111 C16.4078226,682.395806 22.5147025,672.073022 33.3326137,669.879258 L387.914639,597.973564 C398.736368,595.779025 411.402393,602.064651 416.205432,612.013804 L426.812794,633.986196 C431.615638,643.934945 426.939056,654.57805 416.347978,657.764066 L62.8992749,764.088755 C52.3168723,767.272161 41.0692498,761.312373 37.7752368,750.771532 L19.701043,692.934111 Z" id="path-3"></path>
        <mask id="mask-4" maskContentUnits="userSpaceOnUse" maskUnits="objectBoundingBox" x="0" y="0" width="409.891674" height="167.409252" fill="white">
            <use xlink:href="#path-3"></use>
        </mask>
    </defs>
    <g id="Illustrations-app" stroke="none" stroke-width="1" fill="none" fill-rule="evenodd">
        <g id="user-avatar">
            <path d="M506.756867,887.039239 C765.28232,879.650539 851.083867,843.323608 799.355153,811.601297 C747.626439,779.878986 683.77342,790.3408 478.323493,790.3408 C272.873566,790.3408 159.115318,792.579326 126.749607,832.168044 C94.383897,871.756763 248.231414,894.42794 506.756867,887.039239 Z" id="Shadow" fill="#C8CDCF" transform="translate(468.098455, 838.557521) rotate(2.000000) translate(-468.098455, -838.557521) "></path>
            <g id="Fill" transform="translate(468.500000, 492.000000) scale(-1, 1) translate(-468.500000, -492.000000) translate(152.000000, 115.000000)">
                <path d="M632.945525,650.09885 L480.396766,742.877014 L452.755592,683.152893 L428.553962,724.150635 L395.733955,692.032593 L363.132331,750.793457 L2.08118374,643.668335 L12.15,605.915493 L12.15,266.602817 C12.15,120.398317 138.521619,0 289.35,0 L339.75,0 C490.591076,0 616.95,120.391891 616.95,266.602817 L616.95,605.915493 L632.945525,650.09885 Z" id="Rectangle" fill="#FFC6AB"></path>
                <path d="M298.375,308.199396 C345.112097,308.199396 383,271.759924 383,226.809557 C383,181.85919 345.112097,145.419718 298.375,145.419718 C251.637903,145.419718 213.75,181.85919 213.75,226.809557 C213.75,271.759924 251.637903,308.199396 298.375,308.199396 Z" id="Oval" fill="#FFFFFF"></path>
                <path d="M592.435639,155.840809 C585.103253,153.61822 577.298468,152.419718 569.202632,152.419718 C526.564796,152.419718 492,185.663123 492,226.670942 C492,267.67876 526.564796,300.922165 569.202632,300.922165 L569.202632,300.922165 C588.709335,300.922165 606.526319,293.964189 620.116838,282.488004" id="Oval" fill="#FFFFFF"></path>
                <path d="M21,232.41141 C21,232.41141 67.9755973,84.2968572 136.694356,40.2069636 C205.413114,-3.88293008 330.890839,0.0928149406 330.890839,0.0928149406 C330.890839,0.0928149406 336.653062,70.6099692 256.744234,107.909528 C222.817917,123.745533 181.37848,157.993048 181.37848,232.411403 C181.37848,306.829759 205.322897,281.277379 205.322897,383.078294 C205.322897,408.002717 205.322897,432.333144 205.322897,481.927721 C205.322897,531.522299 230.522897,533.277158 230.522897,582.308091 C230.522897,631.339025 230.522897,643 230.522897,643 L21,603.275085 L21,232.41141 Z" id="Rectangle-3" fill-opacity="0.7" fill="#CC9A83"></path>
                <polygon id="Rectangle-2" fill="#FF6767" points="457 677.072624 614.26344 609 628.765302 656.532486 481.919078 745.145248"></polygon>
                <polygon id="Rectangle-2" fill="#FF6767" points="13.2009563 609.799549 386.383848 680.952717 363.634184 753.900181 0.0956251901 644.223763"></polygon>
                <polygon id="Rectangle-4" fill-opacity="0.400985054" fill="#292929" points="14.9541414 609.467811 383.668248 689.314463 362.843754 751.004038 1.62388208 659.141834"></polygon>
            </g>
            <g id="User" transform="translate(479.000000, 497.500000) scale(-1, 1) translate(-479.000000, -497.500000) translate(142.000000, 115.000000)">
                <path d="M482.90029,675.676707 L458,732.540344 L424.934209,680.6243 L44,605.645246 L44,279.997111 C44,125.358977 169.368669,0 323.99063,0 L364.00937,0 C518.643925,0 644,125.352286 644,279.997111 L644,605.645246 L482.90029,675.676707 Z" id="Rectangle" stroke="#4D394B" stroke-width="20" stroke-linecap="round" stroke-linejoin="round"></path>
                <use id="Rectangle-5" stroke="#4D394B" mask="url(#mask-2)" stroke-width="40" stroke-linecap="round" stroke-linejoin="round" xlink:href="#path-1"></use>
                <use id="Rectangle-5" stroke="#4D394B" mask="url(#mask-4)" stroke-width="40" stroke-linecap="round" stroke-linejoin="round" transform="translate(223.754556, 681.241198) scale(-1, 1) translate(-223.754556, -681.241198) " xlink:href="#path-3"></use>
                <path d="M331.5,316 C377.063492,316 414,279.063492 414,233.5 C414,187.936508 377.063492,151 331.5,151 C285.936508,151 249,187.936508 249,233.5 C249,279.063492 285.936508,316 331.5,316 Z" id="Oval" stroke="#4D394B" stroke-width="20"></path>
                <path d="M611.965338,150.101529 C607.751991,149.377328 603.42006,149 599,149 C557.026359,149 523,183.026359 523,225 C523,266.973641 557.026359,301 599,301 L599,301 C615.599022,301 630.95516,295.678584 643.455507,286.648662" id="Oval" stroke="#4D394B" stroke-width="20"></path>
                <ellipse id="Oval-2" fill="#4D394B" cx="355" cy="235" rx="14" ry="14"></ellipse>
                <ellipse id="Oval-2" fill="#4D394B" cx="607" cy="224" rx="14" ry="14"></ellipse>
                <path d="M573.581704,388.197963 C506.204085,396.865995 433.445229,398.318016 368.191306,395.525974 C362.053473,395.263353 356.629644,394.984054 351.994457,394.707899 C350.420217,394.61411 349.070413,394.528524 347.95433,394.453634 C302.855189,391.116266 264.488412,424.187959 261.222503,468.249869 C257.956595,512.311778 291.028288,550.678556 335.090198,553.944464 C335.546216,553.978265 336.266543,554.029171 337.242246,554.094642 C338.753576,554.196053 340.502092,554.306919 342.478885,554.424692 C347.98951,554.753003 354.304044,555.078169 361.351591,555.379715 C390.597013,556.631048 423.286362,557.125399 457.99909,556.43265 C504.747953,555.499701 550.516221,550.483906 593.997222,544.890139 C611.40043,542.651241 644.581673,533.955159 644.581673,533.955159 L643.423507,378 C643.423507,378 631.535177,378.404891 625.519491,379.644504 C609.267401,382.993464 591.902501,385.841019 573.581704,388.197963 Z" id="Line" fill="#4D394B"></path>
                <g id="Group-2" transform="translate(307.000000, 223.500000) scale(-1, 1) translate(-307.000000, -223.500000) translate(0.000000, 96.000000)">
                    <path d="M245.5,0.5 L339.5,15.5" id="Line" stroke="#4D394B" stroke-width="20" stroke-linecap="round"></path>
                    <path d="M59.3523743,232.375518 C59.3523743,232.375518 63.3889554,239.922377 70.4922354,241.613817 C77.5955155,243.305256 87.1158558,240.161137 87.1158558,240.161137 C87.1158558,240.161137 94.016639,252.438475 107.314952,254.241193 C120.613265,256.043912 137,248.75 137,248.75 C137,248.75 143.391097,253.878481 152.639545,253.878481 C161.887993,253.878481 171.74622,248.75 171.74622,248.75" id="Line" stroke="#4D394B" stroke-width="20" stroke-linecap="round" stroke-linejoin="round"></path>
                    <path d="M0.5,19.5 L97,0" id="Line" stroke="#4D394B" stroke-width="20" stroke-linecap="round"></path>
                    <path d="M443.197354,62.4145029 C472.821513,24.3710947 550.422879,43.7912839 574.232025,55.4746353 C598.041171,67.1579866 589.678535,88.1768147 594.399124,125.734832 C599.119713,163.292849 637.788399,188.705878 588.599564,221.495422 C539.410728,254.284965 488.549666,271.348158 449.996041,232.870374 C411.442416,194.392591 413.573195,100.457911 443.197354,62.4145029 Z" id="Rectangle-6" fill="#4D394B"></path>
                </g>
            </g>
        </g>
    </g>
</svg>
