<?xml version="1.0" encoding="UTF-8"?>
<svg width="960px" height="960px" viewBox="0 0 960 960" version="1.1" xmlns="http://www.w3.org/2000/svg" xmlns:xlink="http://www.w3.org/1999/xlink">
    <!-- Generator: Sketch 42 (36781) - http://www.bohemiancoding.com/sketch -->
    <title>user-avatar--1</title>
    <desc>Created with Sketch.</desc>
    <defs></defs>
    <g id="Illustrations-app" stroke="none" stroke-width="1" fill="none" fill-rule="evenodd">
        <g id="user-avatar--1">
            <g id="User:-Color" transform="translate(129.842718, 68.012765)">
                <path d="M396.074829,821.617555 C643.647838,814.540431 725.814399,779.745378 676.277174,749.360772 C626.73995,718.976165 565.592067,728.996813 368.846037,728.996813 C172.100006,728.996813 63.1611318,731.140942 32.1665963,769.060236 C1.17206086,806.979529 148.50182,828.69468 396.074829,821.617555 Z" id="Shadow" fill="#C8CDCF"></path>
                <g id="Fill" transform="translate(355.951187, 410.398981) scale(-1, 1) translate(-355.951187, -410.398981) translate(61.167323, 54.626486)">
                    <path d="M278.540108,693.406047 C111.718846,681.204412 6.79539131,536.541994 6.79539131,536.541994 L0.56327818,257.383813 C0.56327818,116.234998 122.94577,0 269.013008,0 L317.82205,0 C463.901581,0 586.27178,116.228794 586.27178,257.383813 L574.486875,528.36033 C574.486875,528.36033 512.008673,715.825223 278.540108,693.406047 Z" id="Rectangle" fill="#FFC6AB"></path>
                    <path d="M277.753119,297.542002 C323.014883,297.542002 359.706793,262.36259 359.706793,218.966586 C359.706793,175.570583 323.014883,140.391171 277.753119,140.391171 C232.491355,140.391171 195.799445,175.570583 195.799445,218.966586 C195.799445,262.36259 232.491355,297.542002 277.753119,297.542002 Z" id="Oval" fill="#FFFFFF"></path>
                    <path d="M562.531254,150.451905 C555.430327,148.306172 547.871913,147.149114 540.031635,147.149114 C498.739732,147.149114 465.26603,179.242977 465.26603,218.832764 C465.26603,258.42255 498.739732,290.516414 540.031635,290.516414 L540.031635,290.516414 C558.922577,290.516414 576.177139,283.799041 589.338651,272.719698" id="Oval" fill="#FFFFFF"></path>
                    <path d="M9.13391349,224.37473 C9.13391349,224.37473 54.6266495,81.3819103 121.176188,38.8166251 C187.725726,-3.74866012 309.242543,0.0896054423 309.242543,0.0896054423 C309.242543,0.0896054423 314.822871,68.1683086 237.436496,104.178065 C204.581119,119.466469 164.449785,152.52972 164.449785,224.374723 C164.449785,296.219726 187.638358,271.550936 187.638358,369.831621 C187.638358,393.894169 187.638357,417.38326 187.638357,465.26288 C187.638358,513.1425 211.887285,510.315428 207.004339,582.773027 C202.121393,655.230625 299.211099,685.734544 252.847352,711.433912 C200.075025,688.137156 94.3543731,649.190425 80.1294969,635.291567 C65.9046208,621.39271 9.13391349,547.004821 9.13391349,547.004821 L9.13391349,224.37473 Z" id="Rectangle-3" fill-opacity="0.7" fill="#CC9A83"></path>
                </g>
                <g id="User" transform="translate(350.653151, 379.584041) scale(-1, 1) translate(-350.653151, -379.584041) translate(0.553550, -0.000000)">
                    <path d="M78.3530958,632.89987 C18.0677609,540.8403 52.5830267,324.758354 52.5830267,324.758354 C52.5830267,175.568643 173.855863,54.6264856 323.426278,54.6264856 L362.137593,54.6264856 C511.72019,54.6264856 632.980844,175.562188 632.980844,324.758354 C632.980844,324.758354 663.949622,503.988247 599.441332,645.619332 C543.40177,764.414565 433.503074,768.6695 327.442906,749.099316 C216.159137,728.565275 109.220206,680.035926 78.3530958,632.89987 Z" id="Rectangle" stroke="#4D394B" stroke-width="22.3999996" stroke-linecap="round" stroke-linejoin="round"></path>
                    <path d="M330.476714,359.49274 C374.551632,359.49274 410.281414,323.857629 410.281414,279.899493 C410.281414,235.941357 374.551632,200.306246 330.476714,200.306246 C286.401795,200.306246 250.672014,235.941357 250.672014,279.899493 C250.672014,323.857629 286.401795,359.49274 330.476714,359.49274 Z" id="Oval" stroke="#4D394B" stroke-width="22.3999996"></path>
                    <path d="M601.779163,199.439431 C597.703468,198.740746 593.513063,198.376713 589.237407,198.376713 C548.635058,198.376713 515.72035,231.204209 515.72035,271.698977 C515.72035,312.193745 548.635058,345.02124 589.237407,345.02124 L589.237407,345.02124 C605.294134,345.02124 620.148582,339.887316 632.240539,331.175548" id="Oval" stroke="#4D394B" stroke-width="22.3999996"></path>
                    <ellipse id="Oval-2" fill="#4D394B" cx="357.410157" cy="274.343247" rx="13.5426157" ry="13.5067328"></ellipse>
                    <ellipse id="Oval-2" fill="#4D394B" cx="601.17724" cy="263.730815" rx="13.5426157" ry="13.5067328"></ellipse>
                    <path d="M564.649535,429.146925 C499.473163,437.509553 429.091361,438.910414 365.969304,436.216746 C360.031996,435.963377 354.785365,435.693919 350.301611,435.427495 C348.778802,435.337009 347.473096,435.25444 346.393476,435.182188 C302.767738,431.962406 265.654415,463.868872 262.495204,506.378332 C259.335994,548.887792 291.327225,585.902778 333.949618,589.053618 C334.390739,589.086228 335.087532,589.13534 336.031359,589.198504 C337.493313,589.296343 339.184704,589.403303 341.096916,589.516926 C346.427506,589.833669 352.535743,590.147378 359.353044,590.4383 C387.643009,591.645545 419.264387,592.122477 452.843039,591.454137 C498.064603,590.554059 542.337608,585.714987 584.398071,580.318307 C601.232711,578.158293 633.329913,569.768603 633.329913,569.768603 L632.209585,419.308271 C632.209585,419.308271 620.70965,419.698896 614.890498,420.894833 C599.169369,424.125798 582.371786,426.873024 564.649535,429.146925 Z" id="Line" fill="#4D394B" fill-rule="nonzero"></path>
                    <path d="M600.958558,185.934044 C543.545919,66.6875526 347.773038,63.249168 349.204114,49.4820914 C359.020564,-44.9530367 575.923698,12.4290543 625.869664,121.846318 C675.81563,231.263582 644.306652,305.55127 644.306652,409.22494 C644.306652,512.898609 688.93745,527.101333 698.83695,567.720677 C708.73645,608.34002 614.375614,608.34002 614.375614,608.34002 C614.375614,608.34002 649.948768,425.590759 634.590875,312.066484 C625.237219,242.925037 622.690019,231.070454 600.958558,185.934044 Z" id="Rectangle-6" fill="#4D394B"></path>
                    <g id="Group-2" transform="translate(301.961496, 311.823878) scale(-1, 1) translate(-301.961496, -311.823878) translate(0.175639, 0.172774)">
                        <path d="M237.47944,147.553691 L328.408431,162.02519" id="Line" stroke="#4D394B" stroke-width="22.3999996" stroke-linecap="round"></path>
                        <path d="M57.4133141,371.259452 C57.4133141,371.259452 61.3180189,378.54041 68.1892326,380.172254 C75.0604463,381.804099 84.2697543,378.770758 84.2697543,378.770758 C84.2697543,378.770758 90.9450867,390.615524 103.80894,392.354726 C116.672793,394.093928 132.524168,387.057006 132.524168,387.057006 C132.524168,387.057006 138.706466,392.004793 147.652764,392.004793 C156.599063,392.004793 166.135219,387.057006 166.135219,387.057006" id="Line" stroke="#4D394B" stroke-width="22.3999996" stroke-linecap="round" stroke-linejoin="round"></path>
                        <path d="M0.483664847,165.884257 L93.8309804,147.071307" id="Line" stroke="#4D394B" stroke-width="22.3999996" stroke-linecap="round"></path>
                        <path d="M426.72702,230.961695 C454.914589,155.052621 200.825296,72.0010552 203.072591,58.7534278 C215.281487,-13.2170424 310.87347,-36.9224252 501.885485,92.0067169 C598.504762,157.222722 568.422616,279.222332 572.988982,349.579909 C577.555348,419.937487 626.064188,550.27733 588.532879,566.797192 C551.00157,583.317054 422.089378,663.309586 394.053097,597.728853 C366.016817,532.148121 378.24675,361.518979 426.72702,230.961695 Z" id="Rectangle-6" fill="#4D394B"></path>
                    </g>
                </g>
            </g>
            <g id="Perls" transform="translate(476.999004, 762.736842) scale(-1, 1) translate(-476.999004, -762.736842) translate(165.410359, 659.086587)">
                <g id="Perls-:-Fill" fill="#FFFBF1">
                    <ellipse id="Oval-3" cx="52.5149402" cy="52.5254669" rx="52.5149402" ry="52.5254669"></ellipse>
                    <ellipse id="Oval-3" cx="143.540837" cy="115.556027" rx="52.5149402" ry="52.5254669"></ellipse>
                    <ellipse id="Oval-3" cx="248.570717" cy="143.56961" rx="52.5149402" ry="52.5254669"></ellipse>
                    <ellipse id="Oval-3" cx="360.60259" cy="150.573005" rx="52.5149402" ry="52.5254669"></ellipse>
                    <ellipse id="Oval-3" cx="472.634462" cy="136.566214" rx="52.5149402" ry="52.5254669"></ellipse>
                    <ellipse id="Oval-3" cx="570.662351" cy="87.5424448" rx="52.5149402" ry="52.5254669"></ellipse>
                </g>
                <g id="Perls-:-Shadow" fill="#000000" fill-opacity="0.2">
                    <ellipse id="Oval-3" cx="52.5149402" cy="52.5254669" rx="52.5149402" ry="52.5254669"></ellipse>
                    <ellipse id="Oval-3" cx="150.542829" cy="115.556027" rx="52.5149402" ry="52.5254669"></ellipse>
                    <path d="M248.570717,197.205658 C262.256395,197.205658 269.931578,199.728673 268.99027,182.677162 C264.287817,135.048894 221.583266,130.903043 236.233767,100.9651 C250.884268,71.0271567 196.055777,115.671177 196.055777,144.680191 C196.055777,173.689206 219.567517,197.205658 248.570717,197.205658 Z" id="Oval-3"></path>
                    <path d="M301.146912,134.500155 C280.373312,148.479344 312.036267,134.011734 312.036267,163.020748 C312.036267,181.136202 366.619671,220.36473 377.194753,202.849506 C394.138287,174.786386 341.194195,166.440401 337.306453,137.086553 C333.41871,107.732705 367.305447,107.985637 346.581385,105.239596 C325.857324,102.493555 306.987373,130.56993 301.146912,134.500155 Z" id="Oval-3"></path>
                    <path d="M419.455284,151.281065 C405.994183,160.339451 418.160954,153.153325 418.160954,171.950899 C418.160954,183.689547 502.630854,185.065064 509.48341,173.715361 C520.462664,155.530717 472.468715,161.576137 450.426763,152.426799 C428.384812,143.277462 436.574105,120.909987 423.145103,119.130578 C409.716102,117.351169 423.23985,148.734315 419.455284,151.281065 Z" id="Oval-3"></path>
                    <path d="M517.483173,109.260691 C504.022071,118.319077 516.188842,111.132952 516.188842,129.930526 C516.188842,141.669174 603.008866,143.504742 607.511298,131.694987 C637.756778,52.3619414 569.270266,118.410029 547.228314,109.260691 C527.126012,100.916478 524.867645,73.8362102 524.124485,70.4045866 C523.381325,66.972963 521.172992,77.1102047 521.172992,77.1102047 C521.172992,77.1102047 521.267738,106.713942 517.483173,109.260691 Z" id="Oval-3"></path>
                </g>
                <g id="Perls-:-Stroke" stroke="#4D394B" stroke-width="20.9999996">
                    <ellipse id="Oval-3" cx="52.5149402" cy="52.5254669" rx="52.5149402" ry="52.5254669"></ellipse>
                    <ellipse id="Oval-3" cx="143.540837" cy="115.556027" rx="52.5149402" ry="52.5254669"></ellipse>
                    <ellipse id="Oval-3" cx="248.570717" cy="143.56961" rx="52.5149402" ry="52.5254669"></ellipse>
                    <ellipse id="Oval-3" cx="360.60259" cy="150.573005" rx="52.5149402" ry="52.5254669"></ellipse>
                    <ellipse id="Oval-3" cx="472.634462" cy="136.566214" rx="52.5149402" ry="52.5254669"></ellipse>
                    <ellipse id="Oval-3" cx="570.662351" cy="87.5424448" rx="52.5149402" ry="52.5254669"></ellipse>
                </g>
            </g>
        </g>
    </g>
</svg>
